<svg xmlns="http://www.w3.org/2000/svg" width="24" height="24" fill="none" viewBox="0 0 24 24"><path fill="#98bc2a" d="M21.648 11.625a.75.75 0 0 1-.273 1.023l-9 5.25a.75.75 0 0 1-.756 0l-9-5.25a.75.75 0 0 1 .756-1.296L12 16.382l8.625-5.03a.75.75 0 0 1 1.023.273M2.25 7.5a.75.75 0 0 1 .375-.648l9-5.25a.75.75 0 0 1 .756 0l9 5.25a.75.75 0 0 1 0 1.296l-9 5.25a.75.75 0 0 1-.756 0l-9-5.25A.75.75 0 0 1 2.25 7.5m2.239 0L12 11.882 19.511 7.5 12 3.118zM21.75 18h-1.5v-1.5a.75.75 0 1 0-1.5 0V18h-1.5a.75.75 0 1 0 0 1.5h1.5V21a.75.75 0 1 0 1.5 0v-1.5h1.5a.75.75 0 1 0 0-1.5m-8.625 2.227L12 20.884l-8.625-5.032a.75.75 0 0 0-.75 1.296l9 5.25a.75.75 0 0 0 .756 0l1.5-.875a.75.75 0 1 0-.756-1.296"/></svg>