<svg xmlns="http://www.w3.org/2000/svg" width="40" height="40" fill="none" viewBox="0 0 40 40"><path fill="#98bc2a" d="M37.5 16.25h-1.687l-4.341-9.766A2.5 2.5 0 0 0 29.187 5H10.814a2.5 2.5 0 0 0-2.285 1.484l-4.34 9.766H2.5a1.25 1.25 0 0 0 0 2.5h1.25v12.5a2.5 2.5 0 0 0 2.5 2.5H10a2.5 2.5 0 0 0 2.5-2.5v-2.5h15v2.5a2.5 2.5 0 0 0 2.5 2.5h3.75a2.5 2.5 0 0 0 2.5-2.5v-12.5h1.25a1.25 1.25 0 0 0 0-2.5M10.813 7.5h18.374l3.89 8.75H6.923zM10 31.25H6.25v-2.5H10zm20 0v-2.5h3.75v2.5zm3.75-5H6.25v-7.5h27.5zm-25-3.75A1.25 1.25 0 0 1 10 21.25h2.5a1.25 1.25 0 0 1 0 2.5H10a1.25 1.25 0 0 1-1.25-1.25m17.5 0a1.25 1.25 0 0 1 1.25-1.25H30a1.25 1.25 0 0 1 0 2.5h-2.5a1.25 1.25 0 0 1-1.25-1.25"/></svg>