<svg xmlns="http://www.w3.org/2000/svg" width="40" height="40" fill="none" viewBox="0 0 40 40"><path fill="#98bc2a" d="M33.75 12.5h-5v-5a2.5 2.5 0 0 0-2.5-2.5h-20a2.5 2.5 0 0 0-2.5 2.5v20a1.25 1.25 0 0 0 2.031.972l5.469-4.41v4.688a2.5 2.5 0 0 0 2.5 2.5h14.623l5.846 4.722c.22.179.496.277.781.278A1.25 1.25 0 0 0 36.25 35V15a2.5 2.5 0 0 0-2.5-2.5m-23.352 9.028L6.25 24.883V7.5h20v13.75H11.184a1.25 1.25 0 0 0-.786.278M33.75 32.383l-4.148-3.355a1.25 1.25 0 0 0-.782-.278H13.75v-5h12.5a2.5 2.5 0 0 0 2.5-2.5V15h5z"/></svg>