<svg xmlns="http://www.w3.org/2000/svg" width="40" height="40" fill="none" viewBox="0 0 40 40"><path fill="#98bc2a" d="M36.25 21.354A16.27 16.27 0 1 1 18.647 3.75a1.254 1.254 0 1 1 .206 2.5A13.769 13.769 0 1 0 33.75 21.147a1.254 1.254 0 0 1 2.5.207M18.75 11.25V20A1.25 1.25 0 0 0 20 21.25h8.75a1.25 1.25 0 0 0 0-2.5h-7.5v-7.5a1.25 1.25 0 0 0-2.5 0M25 7.5a1.875 1.875 0 1 0 0-3.75 1.875 1.875 0 0 0 0 3.75m5.625 3.75a1.874 1.874 0 1 0 0-3.748 1.874 1.874 0 0 0 0 3.748m3.75 5.625a1.874 1.874 0 1 0 0-3.748 1.874 1.874 0 0 0 0 3.748"/></svg>