<svg xmlns="http://www.w3.org/2000/svg" width="24" height="24" fill="none" viewBox="0 0 24 24"><path fill="#98bc2a" d="M12 14.25A1.125 1.125 0 1 1 12 12a1.125 1.125 0 0 1 0 2.25M21.75 12A9.75 9.75 0 1 1 12 2.25 9.76 9.76 0 0 1 21.75 12m-18 0v.03a12.74 12.74 0 0 1 16.5 0V12a8.25 8.25 0 1 0-16.5 0m6.328 8.023L8.48 15.75H4.653a8.28 8.28 0 0 0 5.425 4.273M12 20.25h.233l1.882-5.022a1.51 1.51 0 0 1 1.406-.974h4.418q.053-.185.093-.375a11.25 11.25 0 0 0-16.068 0q.043.187.094.375H8.48a1.51 1.51 0 0 1 1.406.975l1.875 5.021zm7.347-4.5H15.52l-1.602 4.274a8.28 8.28 0 0 0 5.43-4.274"/></svg>