<svg xmlns="http://www.w3.org/2000/svg" width="24" height="24" fill="none" viewBox="0 0 24 24"><path fill="#98bc2a" d="M22.423 9.118a1.54 1.54 0 0 0-1.337-1.056l-5.532-.446-2.135-5.165a1.534 1.534 0 0 0-2.838 0L8.447 7.615l-5.534.447a1.543 1.543 0 0 0-.878 2.706l4.218 3.64-1.285 5.443a1.536 1.536 0 0 0 2.297 1.671l4.734-2.914 4.737 2.914a1.539 1.539 0 0 0 2.295-1.67l-1.29-5.445 4.218-3.64a1.54 1.54 0 0 0 .463-1.649m-1.439.513-4.565 3.937a.75.75 0 0 0-.24.742l1.395 5.887a.035.035 0 0 1-.016.045c-.017.014-.022.01-.036 0l-5.13-3.154a.75.75 0 0 0-.785 0l-5.13 3.156c-.015.009-.018.012-.036 0a.034.034 0 0 1-.016-.045l1.395-5.887a.75.75 0 0 0-.24-.742L3.014 9.633c-.01-.01-.021-.018-.012-.047s.017-.026.031-.027l5.993-.484a.75.75 0 0 0 .63-.463l2.308-5.589c.007-.016.01-.023.032-.023.023 0 .026.007.033.023l2.314 5.589a.75.75 0 0 0 .633.461l5.992.484c.015 0 .023 0 .031.027s0 .037-.015.047"/></svg>