<svg xmlns="http://www.w3.org/2000/svg" width="40" height="40" fill="none" viewBox="0 0 40 40"><path fill="#98bc2a" d="M37.37 15.197a2.56 2.56 0 0 0-2.227-1.76l-9.22-.743-3.558-8.608a2.556 2.556 0 0 0-4.73 0l-3.556 8.606-9.224.745a2.571 2.571 0 0 0-1.464 4.51l7.031 6.067-2.142 9.072a2.56 2.56 0 0 0 3.828 2.784l7.89-4.856 7.896 4.856a2.563 2.563 0 0 0 3.824-2.784l-2.15-9.074 7.03-6.067a2.57 2.57 0 0 0 .773-2.748m-2.396.854-7.61 6.563a1.25 1.25 0 0 0-.4 1.236l2.326 9.812a.06.06 0 0 1-.027.075c-.028.022-.036.017-.06 0l-8.55-5.257a1.25 1.25 0 0 0-1.309 0l-8.55 5.26c-.023.014-.03.02-.06 0a.057.057 0 0 1-.026-.075l2.325-9.812a1.25 1.25 0 0 0-.4-1.236l-7.61-6.562c-.018-.016-.035-.03-.02-.079.016-.048.029-.042.052-.045l9.988-.806a1.25 1.25 0 0 0 1.05-.772l3.846-9.314c.013-.027.018-.04.055-.04s.042.013.055.04l3.856 9.314a1.25 1.25 0 0 0 1.055.769l9.987.806c.024 0 .038 0 .052.045s0 .063-.025.078"/></svg>