<svg width="41" height="18" viewBox="0 0 41 18" fill="none" xmlns="http://www.w3.org/2000/svg">
<path d="M8.88597 17.2766C10.6675 17.2766 12.1118 15.8323 12.1118 14.0508C12.1118 12.2692 10.6675 10.825 8.88597 10.825C7.1044 10.825 5.66016 12.2692 5.66016 14.0508C5.66016 15.8323 7.1044 17.2766 8.88597 17.2766Z" stroke="#1C1C1C" stroke-miterlimit="10" stroke-linecap="round" stroke-linejoin="round"/>
<path d="M31.468 17.2766C33.2496 17.2766 34.6938 15.8323 34.6938 14.0508C34.6938 12.2692 33.2496 10.825 31.468 10.825C29.6864 10.825 28.2422 12.2692 28.2422 14.0508C28.2422 15.8323 29.6864 17.2766 31.468 17.2766Z" stroke="#1C1C1C" stroke-miterlimit="10" stroke-linecap="round" stroke-linejoin="round"/>
<path d="M12.1133 14.0494H28.2424" stroke="#1C1C1C" stroke-miterlimit="10" stroke-linecap="round" stroke-linejoin="round"/>
<path d="M34.6936 14.0484H40.5001V9.53228C37.5324 7.46776 34.0485 6.30647 30.4356 6.30647H29.5323L25.7904 1.53226C25.2743 0.887097 24.5001 0.5 23.7259 0.5H10.6936C10.4355 0.5 10.0484 0.629034 9.79034 0.758066L5.6613 4.37098H3.08065C2.30646 4.37098 1.79033 4.88711 1.79033 5.6613V9.53228L0.5 10.8226V12.7581L5.6613 14.0484" stroke="#1C1C1C" stroke-miterlimit="10" stroke-linecap="round" stroke-linejoin="round"/>
<path d="M14.6927 8.23975H13.4023" stroke="#1C1C1C" stroke-miterlimit="10" stroke-linecap="round" stroke-linejoin="round"/>
<path d="M21.1458 8.23975H19.8555" stroke="#1C1C1C" stroke-miterlimit="10" stroke-linecap="round" stroke-linejoin="round"/>
<path d="M29.5313 6.30647H12.1119L9.53125 5.01614V3.72582L13.4022 0.5" stroke="#1C1C1C" stroke-miterlimit="10" stroke-linecap="round" stroke-linejoin="round"/>
<path d="M1.78906 9.53134H3.07939C3.85358 9.53134 4.36971 9.01521 4.36971 8.24101C4.36971 7.46681 3.85358 6.95068 3.07939 6.95068H1.78906" stroke="#1C1C1C" stroke-miterlimit="10" stroke-linecap="round" stroke-linejoin="round"/>
<path d="M36.6289 7.59521V9.5307C36.6289 10.3049 37.145 10.821 37.9192 10.821H40.4999" stroke="#1C1C1C" stroke-miterlimit="10" stroke-linecap="round" stroke-linejoin="round"/>
<path d="M17.9219 0.5V6.30647" stroke="#1C1C1C" stroke-miterlimit="10" stroke-linecap="round" stroke-linejoin="round"/>
</svg>
