<svg width="41" height="16" viewBox="0 0 41 16" fill="none" xmlns="http://www.w3.org/2000/svg">
<path d="M9.53049 14.6937C11.3121 14.6937 12.7563 13.2494 12.7563 11.4679C12.7563 9.68631 11.3121 8.24207 9.53049 8.24207C7.74893 8.24207 6.30469 9.68631 6.30469 11.4679C6.30469 13.2494 7.74893 14.6937 9.53049 14.6937Z" stroke="#1C1C1C" stroke-miterlimit="10" stroke-linecap="round" stroke-linejoin="round"/>
<path d="M32.7571 14.6937C34.5386 14.6937 35.9829 13.2494 35.9829 11.4679C35.9829 9.68631 34.5386 8.24207 32.7571 8.24207C30.9755 8.24207 29.5312 9.68631 29.5312 11.4679C29.5312 13.2494 30.9755 14.6937 32.7571 14.6937Z" stroke="#1C1C1C" stroke-miterlimit="10" stroke-linecap="round" stroke-linejoin="round"/>
<path d="M6.30645 11.4679L0.5 10.1775V6.95173L1.79032 6.30657L0.5 4.37109C0.5 4.37109 5.91935 0.500122 12.1129 0.500122C17.0161 0.500122 21.7903 0.500122 23.5968 0.500122C24.1129 0.500122 24.629 0.629153 25.0161 0.887218L30.1774 4.37109C30.1774 4.37109 36.5 4.75819 40.5 5.66141L39.8548 6.95173L40.5 8.24206V10.8227L35.9839 11.4679" stroke="#1C1C1C" stroke-miterlimit="10" stroke-linecap="round" stroke-linejoin="round"/>
<path d="M12.7578 11.4679H29.532" stroke="#1C1C1C" stroke-miterlimit="10" stroke-linecap="round" stroke-linejoin="round"/>
<path d="M30.1777 4.37109H10.8228L8.24219 3.72593C9.14541 2.43561 10.3067 1.53238 11.7261 0.887218L12.7583 0.500122" stroke="#1C1C1C" stroke-miterlimit="10" stroke-linecap="round" stroke-linejoin="round"/>
<path d="M13.4023 6.30652H14.6927" stroke="#1C1C1C" stroke-miterlimit="10" stroke-linecap="round" stroke-linejoin="round"/>
<path d="M21.1445 6.30652H22.4349" stroke="#1C1C1C" stroke-miterlimit="10" stroke-linecap="round" stroke-linejoin="round"/>
<path d="M1.79032 6.30658H4.37097L3.72581 4.37109H0.5" stroke="#1C1C1C" stroke-miterlimit="10" stroke-linecap="round" stroke-linejoin="round"/>
<path d="M37.918 6.95178H39.8535" stroke="#1C1C1C" stroke-miterlimit="10" stroke-linecap="round" stroke-linejoin="round"/>
<path d="M18.5664 4.37109V0.500122" stroke="#1C1C1C" stroke-miterlimit="10" stroke-linecap="round" stroke-linejoin="round"/>
</svg>
