<svg width="41" height="18" viewBox="0 0 41 18" fill="none" xmlns="http://www.w3.org/2000/svg">
<path d="M29.6618 14.6937H11.9844" stroke="#1C1C1C" stroke-miterlimit="10" stroke-linecap="round" stroke-linejoin="round"/>
<path d="M35.8548 14.6937H37.2742L40.5 13.4033V8.24206L30.1774 5.66141L26.5645 2.04851C25.5323 1.01625 24.2419 0.500122 22.9516 0.500122H7.59677C4.75806 1.79044 2.30644 3.98399 1.01612 6.95173L0.5 8.24206V12.7582L5.01613 14.6937H5.79033" stroke="#1C1C1C" stroke-miterlimit="10" stroke-linecap="round" stroke-linejoin="round"/>
<path d="M40.4992 9.53235H37.2734L37.9186 12.113H40.4992" stroke="#1C1C1C" stroke-miterlimit="10" stroke-linecap="round" stroke-linejoin="round"/>
<path d="M0.5 8.24207H3.72581L3.20969 9.66142C2.82259 10.6937 1.66129 11.4679 0.5 11.4679" stroke="#1C1C1C" stroke-miterlimit="10" stroke-linecap="round" stroke-linejoin="round"/>
<path d="M10.8228 0.500122L8.24219 4.37109L9.53251 5.66141H30.1777" stroke="#1C1C1C" stroke-miterlimit="10" stroke-linecap="round" stroke-linejoin="round"/>
<path d="M8.88596 17.2744C10.6675 17.2744 12.1118 15.8301 12.1118 14.0486C12.1118 12.267 10.6675 10.8228 8.88596 10.8228C7.1044 10.8228 5.66016 12.267 5.66016 14.0486C5.66016 15.8301 7.1044 17.2744 8.88596 17.2744Z" stroke="#1C1C1C" stroke-miterlimit="10" stroke-linecap="round" stroke-linejoin="round"/>
<path d="M32.7571 17.2744C34.5386 17.2744 35.9829 15.8301 35.9829 14.0486C35.9829 12.267 34.5386 10.8228 32.7571 10.8228C30.9755 10.8228 29.5312 12.267 29.5312 14.0486C29.5312 15.8301 30.9755 17.2744 32.7571 17.2744Z" stroke="#1C1C1C" stroke-miterlimit="10" stroke-linecap="round" stroke-linejoin="round"/>
<path d="M7.59551 0.500122L4.36971 5.66141H1.78906" stroke="#1C1C1C" stroke-miterlimit="10" stroke-linecap="round" stroke-linejoin="round"/>
<path d="M19.2109 5.66141V0.500122" stroke="#1C1C1C" stroke-miterlimit="10" stroke-linecap="round" stroke-linejoin="round"/>
<path d="M12.1145 8.24207H10.8242" stroke="#1C1C1C" stroke-miterlimit="10" stroke-linecap="round" stroke-linejoin="round"/>
<path d="M19.8555 8.24207H21.791" stroke="#1C1C1C" stroke-miterlimit="10" stroke-linecap="round" stroke-linejoin="round"/>
</svg>
