<svg width="60" height="60" viewBox="0 0 60 60" fill="none" xmlns="http://www.w3.org/2000/svg">
<path d="M47.725 47.9812C46.3188 47.9812 45.1836 46.8456 45.1836 45.4388C45.1836 44.0321 46.3188 42.8965 47.725 42.8965C49.1312 42.8965 50.2664 44.0321 50.2664 45.4388C50.2833 46.8456 49.1312 47.9812 47.725 47.9812ZM47.725 44.2524C47.0642 44.2524 46.539 44.7948 46.539 45.4388C46.539 46.0829 47.0812 46.6253 47.725 46.6253C48.3688 46.6253 48.911 46.0829 48.911 45.4388C48.911 44.7948 48.3858 44.2524 47.725 44.2524Z" fill="#1C1C1C"/>
<path d="M30.5297 47.9812C29.1234 47.9812 27.9883 46.8456 27.9883 45.4388C27.9883 44.0321 29.1234 42.8965 30.5297 42.8965C31.9359 42.8965 33.0711 44.0321 33.0711 45.4388C33.088 46.8456 31.9359 47.9812 30.5297 47.9812ZM30.5297 44.2524C29.8689 44.2524 29.3437 44.7948 29.3437 45.4388C29.3437 46.0829 29.8859 46.6253 30.5297 46.6253C31.1905 46.6253 31.7157 46.0829 31.7157 45.4388C31.7157 44.7948 31.1905 44.2524 30.5297 44.2524Z" fill="#1C1C1C"/>
<path d="M43.6954 47.0326H34.5802C34.1227 47.0326 33.75 46.6597 33.75 46.2021V44.6767C33.75 44.2191 34.1227 43.8462 34.5802 43.8462H43.6954C44.1529 43.8462 44.5256 44.2191 44.5256 44.6767V46.2021C44.5256 46.6597 44.1529 47.0326 43.6954 47.0326ZM35.1054 45.6767H43.1702V45.2021H35.1054V45.6767Z" fill="#1C1C1C"/>
<path d="M39.2918 40.4067H28.584C28.2112 40.4067 27.9062 40.1016 27.9062 39.7287C27.9062 39.3559 28.2112 39.0508 28.584 39.0508H39.2918C39.6645 39.0508 39.9695 39.3559 39.9695 39.7287C39.9695 40.1016 39.6645 40.4067 39.2918 40.4067Z" fill="#1C1C1C"/>
<path d="M49.6094 40.4067H38.9863C38.6136 40.4067 38.3086 40.1016 38.3086 39.7287C38.3086 39.3559 38.6136 39.0508 38.9863 39.0508H49.6094C49.9822 39.0508 50.2871 39.3559 50.2871 39.7287C50.2871 40.1016 49.9822 40.4067 49.6094 40.4067Z" fill="#1C1C1C"/>
<path d="M31.9747 53.9995H30.4838C29.2978 53.9995 28.332 53.0334 28.332 51.847V50.0334C28.332 49.6606 28.637 49.3555 29.0097 49.3555C29.3825 49.3555 29.6874 49.6606 29.6874 50.0334V51.8639C29.6874 52.3046 30.0433 52.6605 30.4838 52.6605H31.9747C32.4152 52.6605 32.7711 52.3046 32.7711 51.8639V50.0504C32.7711 49.6775 33.076 49.3724 33.4488 49.3724C33.8215 49.3724 34.1265 49.6775 34.1265 50.0504V51.8639C34.1265 53.0504 33.1607 53.9995 31.9747 53.9995Z" fill="#1C1C1C"/>
<path d="M47.7989 54H46.308C45.122 54 44.1562 53.0339 44.1562 51.8475V50.0339C44.1562 49.661 44.4612 49.356 44.834 49.356C45.2067 49.356 45.5117 49.661 45.5117 50.0339V51.8644C45.5117 52.3051 45.8675 52.661 46.308 52.661H47.7989C48.2394 52.661 48.5953 52.3051 48.5953 51.8644V50.0509C48.5953 49.678 48.9002 49.3729 49.273 49.3729C49.6457 49.3729 49.9507 49.678 49.9507 50.0509V51.8644C49.9507 53.0509 48.9849 54 47.7989 54Z" fill="#1C1C1C"/>
<path d="M50.3834 50.711H27.8666C26.7145 50.711 25.7656 49.7618 25.7656 48.5923V45.0669C25.7656 43.2873 26.3756 41.5246 27.4769 40.1178L28.0191 39.4229C28.3749 38.9822 28.6459 38.4737 28.8323 37.9314C28.8323 37.9144 28.8492 37.8805 28.8662 37.8636L30.408 34.6602C31.0349 33.3382 32.3902 32.4907 33.8304 32.4907H44.4026C45.8427 32.4907 47.1982 33.3382 47.8251 34.6602L49.3669 37.8636C49.3838 37.8805 49.3838 37.9144 49.4007 37.9314C49.5871 38.4737 49.8582 38.9822 50.214 39.4229L50.7561 40.1178C51.8574 41.5246 52.4674 43.2703 52.4674 45.0669V48.5923C52.4843 49.7618 51.5525 50.711 50.3834 50.711ZM39.286 49.355H50.4004C50.807 49.355 51.1459 49.0161 51.1459 48.5923V45.0669C51.1459 43.5754 50.6376 42.1178 49.7227 40.9653L49.1805 40.2703C48.74 39.711 48.4011 39.1009 48.1639 38.4229L46.6391 35.2534C46.2325 34.406 45.3684 33.8636 44.4365 33.8636H33.8473C32.9155 33.8636 32.0514 34.406 31.6448 35.2534L30.1199 38.4229C29.8827 39.1009 29.5439 39.711 29.1034 40.2703L28.5612 40.9653C27.6463 42.1347 27.138 43.5924 27.138 45.0669V48.5923C27.138 49.0161 27.4768 49.355 27.8835 49.355H39.286Z" fill="#1C1C1C"/>
<path d="M27.5476 41.9144C27.3612 41.9144 27.1748 41.8466 27.0393 41.6941L25.7517 40.2534C25.4806 39.9483 25.3281 39.5585 25.3281 39.1517C25.3281 38.2365 26.0736 37.4907 26.9885 37.4907H29.496C29.8687 37.4907 30.1737 37.7958 30.1737 38.1687C30.1737 38.5416 29.8687 38.8466 29.496 38.8466H26.9885C26.8191 38.8466 26.6835 38.9822 26.6835 39.1517C26.6835 39.2195 26.7174 39.2873 26.7683 39.3551L28.0558 40.7958C28.31 41.067 28.2761 41.5076 28.005 41.7449C27.8695 41.8466 27.717 41.9144 27.5476 41.9144Z" fill="#1C1C1C"/>
<path d="M50.7277 41.9154C50.5583 41.9154 50.4057 41.8646 50.2702 41.7459C49.9991 41.4917 49.9653 41.068 50.2194 40.7968L51.5071 39.3561C51.5579 39.3052 51.5918 39.2205 51.5918 39.1527C51.5918 38.9832 51.4562 38.8476 51.2868 38.8476H48.7793C48.4065 38.8476 48.1016 38.5425 48.1016 38.1697C48.1016 37.7968 48.4065 37.4917 48.7793 37.4917H51.2868C52.2017 37.4917 52.9472 38.2375 52.9472 39.1527C52.9472 39.5595 52.7947 39.9493 52.5236 40.2544L51.236 41.6781C51.1004 41.8307 50.9141 41.9154 50.7277 41.9154Z" fill="#1C1C1C"/>
<path d="M23.8241 50.8987H9.54139C8.16903 50.8987 7.05078 49.7801 7.05078 48.4072V13.5091C7.05078 12.1362 8.16903 11.0176 9.54139 11.0176H12.015C12.3878 11.0176 12.6928 11.3227 12.6928 11.6955C12.6928 12.0684 12.3878 12.3735 12.015 12.3735H9.54139C8.91451 12.3735 8.4062 12.882 8.4062 13.5091V48.4072C8.4062 49.0513 8.89757 49.5428 9.54139 49.5428H23.8241C24.1968 49.5428 24.5018 49.8479 24.5018 50.2208C24.5018 50.5937 24.1968 50.8987 23.8241 50.8987Z" fill="#1C1C1C"/>
<path d="M39.1361 32.1012C38.7634 32.1012 38.4584 31.7962 38.4584 31.4233V13.5081C38.4584 12.881 37.9501 12.3725 37.3232 12.3725H34.8496C34.4768 12.3725 34.1719 12.0674 34.1719 11.6946C34.1719 11.3217 34.4768 11.0166 34.8496 11.0166H37.3232C38.6956 11.0166 39.8138 12.1352 39.8138 13.5081V31.4233C39.8138 31.7962 39.5089 32.1012 39.1361 32.1012Z" fill="#1C1C1C"/>
<path d="M32.653 14.0339H14.2363C13.8636 14.0339 13.5586 13.7288 13.5586 13.3559V11.2712C13.5586 10.1186 14.4904 9.16948 15.6425 9.16948H18.3194V7.96609C18.3194 6.88135 19.2005 6 20.2848 6H26.5875C27.6719 6 28.5529 6.88135 28.5529 7.96609V9.18643H31.2298C32.3819 9.18643 33.3137 10.1186 33.3137 11.2881V13.3728C33.3307 13.7288 33.0257 14.0339 32.653 14.0339ZM14.914 12.6779H31.9753V11.2712C31.9753 10.8644 31.6534 10.5254 31.2468 10.5254H27.8921C27.5193 10.5254 27.2144 10.2203 27.2144 9.84744V7.96609C27.2144 7.62711 26.9433 7.35593 26.6045 7.35593H20.3018C19.9629 7.35593 19.6918 7.62711 19.6918 7.96609V9.86439C19.6918 10.2373 19.3868 10.5424 19.0141 10.5424H15.6595C15.2528 10.5424 14.9309 10.8813 14.9309 11.2881V12.6779H14.914Z" fill="#1C1C1C"/>
<path d="M14.4577 22.9148C14.2882 22.9148 14.1357 22.864 14.0002 22.7453L12.001 20.9487C11.7299 20.6945 11.696 20.2708 11.9502 19.9996C12.2043 19.7284 12.6278 19.6945 12.8989 19.9487L14.4069 21.3047L17.4057 18.186C17.6598 17.9148 18.1004 17.9148 18.3715 18.1691C18.6425 18.4233 18.6426 18.864 18.3884 19.1352L14.949 22.7114C14.8134 22.847 14.6271 22.9148 14.4577 22.9148Z" fill="#1C1C1C"/>
<path d="M34.0433 19.5757H21.6074C21.2347 19.5757 20.9297 19.2706 20.9297 18.8977C20.9297 18.5248 21.2347 18.2197 21.6074 18.2197H34.0433C34.4161 18.2197 34.721 18.5248 34.721 18.8977C34.721 19.2706 34.4161 19.5757 34.0433 19.5757Z" fill="#1C1C1C"/>
<path d="M30.4176 22.9145H21.6074C21.2347 22.9145 20.9297 22.6094 20.9297 22.2366C20.9297 21.8637 21.2347 21.5586 21.6074 21.5586H30.4176C30.7903 21.5586 31.0953 21.8637 31.0953 22.2366C31.0953 22.6094 30.7903 22.9145 30.4176 22.9145Z" fill="#1C1C1C"/>
<path d="M14.4577 33.4231C14.2882 33.4231 14.1357 33.3723 14.0002 33.2536L12.001 31.457C11.7299 31.2028 11.696 30.7791 11.9502 30.5079C12.2043 30.2367 12.6278 30.2028 12.8989 30.457L14.4069 31.813L17.4057 28.6943C17.6598 28.4231 18.1004 28.4231 18.3715 28.6774C18.6425 28.9316 18.6426 29.3723 18.3884 29.6435L14.949 33.2197C14.8134 33.3553 14.6271 33.4231 14.4577 33.4231Z" fill="#1C1C1C"/>
<path d="M34.0433 30.0844H21.6074C21.2347 30.0844 20.9297 29.7794 20.9297 29.4065C20.9297 29.0336 21.2347 28.7285 21.6074 28.7285H34.0433C34.4161 28.7285 34.721 29.0336 34.721 29.4065C34.721 29.7794 34.4161 30.0844 34.0433 30.0844Z" fill="#1C1C1C"/>
<path d="M29.8924 33.4238H21.6074C21.2347 33.4238 20.9297 33.1187 20.9297 32.7458C20.9297 32.373 21.2347 32.0679 21.6074 32.0679H29.8924C30.2651 32.0679 30.5701 32.373 30.5701 32.7458C30.5701 33.1187 30.2651 33.4238 29.8924 33.4238Z" fill="#1C1C1C"/>
<path d="M14.4577 43.9319C14.2882 43.9319 14.1357 43.8811 14.0002 43.7624L12.001 41.9658C11.7299 41.7116 11.696 41.2879 11.9502 41.0167C12.2043 40.7455 12.6278 40.7116 12.8989 40.9658L14.4069 42.3217L17.4057 39.2031C17.6598 38.9319 18.1004 38.9319 18.3715 39.1862C18.6425 39.4404 18.6426 39.8811 18.3884 40.1523L14.949 43.7285C14.8134 43.8641 14.6271 43.9319 14.4577 43.9319Z" fill="#1C1C1C"/>
<path d="M24.025 40.5937H21.6191C21.2464 40.5937 20.9414 40.2886 20.9414 39.9158C20.9414 39.5429 21.2464 39.2378 21.6191 39.2378H24.025C24.3978 39.2378 24.7027 39.5429 24.7027 39.9158C24.7027 40.2886 24.3978 40.5937 24.025 40.5937Z" fill="#1C1C1C"/>
<path d="M24.1826 43.9321H21.6074C21.2347 43.9321 20.9297 43.627 20.9297 43.2541C20.9297 42.8813 21.2347 42.5762 21.6074 42.5762H24.1826C24.5554 42.5762 24.8603 42.8813 24.8603 43.2541C24.8603 43.627 24.5554 43.9321 24.1826 43.9321Z" fill="#1C1C1C"/>
</svg>
