<svg width="60" height="60" viewBox="0 0 60 60" fill="none" xmlns="http://www.w3.org/2000/svg">
<path d="M14.7287 35.3738C12.5167 35.3738 10.7227 33.5791 10.7227 31.3488C10.7227 29.1186 12.5167 27.3413 14.7287 27.3413C16.9407 27.3413 18.7521 29.136 18.7521 31.3488C18.7521 33.5617 16.9407 35.3738 14.7287 35.3738ZM14.7287 28.7352C13.283 28.7352 12.1161 29.9201 12.1161 31.3488C12.1161 32.7776 13.3004 33.9799 14.7287 33.9799C16.1743 33.9799 17.3587 32.795 17.3587 31.3488C17.3587 29.9026 16.1743 28.7352 14.7287 28.7352Z" fill="#1C1C1C"/>
<path d="M30.0507 33.6672H22.9618C21.8471 33.6672 20.9414 32.7611 20.9414 31.646V31.0884C20.9414 29.9558 21.8471 29.0498 22.9618 29.0498H31.5487C31.9318 29.0498 32.2454 29.3634 32.2454 29.7468C32.2454 30.1301 31.9318 30.4437 31.5487 30.4437H22.9618C22.6135 30.4437 22.3348 30.7399 22.3348 31.0884V31.646C22.3348 31.9945 22.6135 32.2732 22.9618 32.2732H30.0507C30.4339 32.2732 30.7474 32.5869 30.7474 32.9702C30.7474 33.3535 30.4339 33.6672 30.0507 33.6672Z" fill="#1C1C1C"/>
<path d="M30.246 21.9418H11.2436C10.8604 21.9418 10.5469 21.6281 10.5469 21.2448C10.5469 20.8615 10.8604 20.5479 11.2436 20.5479H30.246C30.6292 20.5479 30.9427 20.8615 30.9427 21.2448C30.9427 21.6281 30.6292 21.9418 30.246 21.9418Z" fill="#1C1C1C"/>
<path d="M30.2465 40.2186H10.0074C8.2308 40.2186 6.78516 38.755 6.78516 36.9603V30.7225C6.78516 28.1786 7.49931 25.7044 8.82303 23.5438C9.08429 23.1082 9.38036 22.6901 9.7113 22.2719L10.6693 21.0696C10.6867 21.0348 10.7215 20.9999 10.7563 20.9651C10.7738 20.9477 10.7738 20.9477 10.7912 20.9303C10.8086 20.8954 10.826 20.8606 10.8434 20.8431C11.4008 20.0939 11.8711 19.2401 12.202 18.3167C12.2194 18.2644 12.2368 18.2295 12.2543 18.1773L14.9888 12.5145C16.0513 10.319 18.1936 8.95996 20.6146 8.95996H39.3558C41.742 8.95996 43.9366 10.3539 44.9642 12.5145L46.9324 16.5917L47.6988 18.1598C47.7162 18.2121 47.7336 18.2644 47.751 18.3167C48.082 19.2401 48.5348 20.0939 49.0922 20.8605C49.0922 20.878 49.1096 20.878 49.1096 20.8954C49.1444 20.9651 49.1967 21.0174 49.2315 21.0696L50.2069 22.2893C50.5378 22.7075 50.8339 23.1257 51.0952 23.5613C52.4363 25.7218 53.133 28.196 53.133 30.7399V36.9777C53.133 38.0754 52.5931 39.1035 51.6699 39.7133C51.3564 39.9224 50.921 39.8353 50.712 39.5216C50.503 39.208 50.59 38.7724 50.9036 38.5633C51.4261 38.2148 51.7396 37.6224 51.7396 36.9777V30.7399C51.7396 28.4574 51.1126 26.2271 49.9108 24.2931C49.6669 23.8923 49.4056 23.509 49.1096 23.1431L48.1342 21.9234C48.0819 21.8537 48.0123 21.7666 47.9426 21.6795C47.2981 20.7908 46.7756 19.7977 46.3925 18.7174L45.6609 17.2189L43.6927 13.1243C42.8915 11.4342 41.1846 10.3539 39.3384 10.3539H20.5972C18.7335 10.3539 17.0615 11.4167 16.2254 13.1243L13.5257 18.7174V18.7348C13.1426 19.8151 12.62 20.7909 11.9756 21.6446C11.9233 21.7317 11.8885 21.784 11.8362 21.8363C11.8188 21.8537 11.8188 21.8711 11.8014 21.8886C11.784 21.906 11.784 21.9234 11.7666 21.9408L10.7912 23.1605C10.5125 23.5264 10.2338 23.9097 10.0074 24.2931C8.80558 26.2271 8.16116 28.4574 8.16116 30.7399V36.9777C8.16116 38.0057 8.97978 38.8421 9.98999 38.8421H30.2116C30.5948 38.8421 30.9083 39.1557 30.9083 39.5391C30.9083 39.9224 30.6297 40.2186 30.2465 40.2186Z" fill="#1C1C1C"/>
<path d="M30.2398 40.2181H19.8764C19.4932 40.2181 19.1797 39.9045 19.1797 39.5212C19.1797 39.1379 19.4932 38.8242 19.8764 38.8242H30.2223C30.6055 38.8242 30.919 39.1379 30.919 39.5212C30.919 39.9045 30.6229 40.2181 30.2398 40.2181Z" fill="#1C1C1C"/>
<path d="M48.5367 21.9413H29.7084C29.3252 21.9413 29.0117 21.6277 29.0117 21.2443C29.0117 20.861 29.3252 20.5474 29.7084 20.5474H48.5367C48.9199 20.5474 49.2334 20.861 49.2334 21.2443C49.2334 21.6277 48.9199 21.9413 48.5367 21.9413Z" fill="#1C1C1C"/>
<path d="M17.2672 46.0552H14.6023C12.7735 46.0552 11.293 44.5741 11.293 42.7446V39.5212C11.293 39.1379 11.6065 38.8242 11.9897 38.8242C12.3729 38.8242 12.6864 39.1379 12.6864 39.5212V42.7446C12.6864 43.8075 13.5398 44.6613 14.6023 44.6613H17.2672C18.3296 44.6613 19.1831 43.8075 19.1831 42.7446V39.5212C19.1831 39.1379 19.4966 38.8242 19.8798 38.8242C20.263 38.8242 20.5765 39.1379 20.5765 39.5212V42.7446C20.5765 44.5741 19.096 46.0552 17.2672 46.0552Z" fill="#1C1C1C"/>
<path d="M9.43127 24.5895C9.23968 24.5895 9.04809 24.5198 8.90875 24.363L6.62705 21.8191C6.22644 21.366 6 20.791 6 20.1986C6 18.857 7.0973 17.7593 8.43844 17.7593H12.8973C13.2805 17.7593 13.594 18.0729 13.594 18.4562C13.594 18.8396 13.2805 19.1532 12.8973 19.1532H8.43844C7.86367 19.1532 7.3934 19.6236 7.3934 20.1986C7.3934 20.4426 7.49792 20.6865 7.67209 20.8782L9.95379 23.4221C10.2151 23.7009 10.1802 24.1539 9.90153 24.3978C9.76219 24.5372 9.58803 24.5895 9.43127 24.5895Z" fill="#1C1C1C"/>
<path d="M50.5182 24.5895C50.344 24.5895 50.1873 24.5372 50.048 24.4153C49.7693 24.1539 49.7344 23.7183 49.9957 23.4395L52.2774 20.8956C52.4516 20.7039 52.5561 20.46 52.5561 20.1986C52.5561 19.6236 52.0858 19.1532 51.511 19.1532H47.0522C46.669 19.1532 46.3555 18.8396 46.3555 18.4562C46.3555 18.0729 46.669 17.7593 47.0522 17.7593H51.511C52.8521 17.7593 53.9494 18.857 53.9494 20.1986C53.9494 20.791 53.723 21.366 53.3224 21.8191L51.0407 24.363C50.9014 24.5198 50.7098 24.5895 50.5182 24.5895Z" fill="#1C1C1C"/>
<path d="M40.7166 45.7252C40.4379 45.7252 40.1592 45.7078 39.8979 45.6904C34.5334 45.2548 30.5274 40.5155 30.9802 35.1489C31.4157 29.7823 36.1532 25.7748 41.5178 26.2278C46.8824 26.6634 50.8884 31.4027 50.4355 36.7693C50.2613 38.9125 49.4079 40.8814 47.9796 42.4669C47.3526 43.1813 46.6211 43.7912 45.8199 44.279C44.2871 45.2374 42.528 45.7252 40.7166 45.7252ZM40.6992 27.5869C36.3971 27.5869 32.722 30.8974 32.3562 35.2708C31.973 39.8708 35.4043 43.9305 40.0025 44.3139C41.7965 44.4707 43.5556 44.0351 45.0709 43.0942C45.7676 42.6586 46.3946 42.1359 46.9346 41.5435C48.1538 40.1844 48.8853 38.4943 49.0421 36.6473C49.4253 32.0474 45.9941 27.9876 41.3959 27.6043C41.152 27.5868 40.9256 27.5869 40.6992 27.5869Z" fill="#1C1C1C"/>
<path d="M51.37 51.0398C51.2829 51.0398 51.1958 51.0398 51.1087 51.0224C50.3772 50.9527 49.7153 50.5694 49.2799 49.9769L44.9082 44.0876C44.7862 43.9308 44.7514 43.7391 44.7862 43.5475C44.8211 43.3558 44.943 43.1816 45.0997 43.077C45.7964 42.6589 46.4235 42.1361 46.9634 41.5263C47.0853 41.3869 47.2595 41.2998 47.4511 41.2998C47.6427 41.2998 47.8169 41.3695 47.9562 41.4915L53.1988 46.527C53.7214 47.0323 54.0175 47.7467 54.0001 48.4611C53.9826 49.1929 53.6691 49.8898 53.1117 50.3777C52.6241 50.7959 51.997 51.0398 51.37 51.0398ZM46.4409 43.8611L50.3772 49.158C50.5862 49.4368 50.8823 49.611 51.2307 49.6459C51.579 49.6807 51.91 49.5762 52.1712 49.3497C52.4325 49.1232 52.5718 48.7921 52.5892 48.4436C52.5892 48.0952 52.4673 47.7815 52.206 47.5376L47.4685 42.9899C47.155 43.3036 46.8067 43.5823 46.4409 43.8611Z" fill="#1C1C1C"/>
<path d="M43.1126 42.5539C42.8165 42.5539 42.5552 42.3622 42.4507 42.0835C42.3288 41.7176 42.5204 41.3168 42.8862 41.1948C46.3696 40.0274 46.5264 34.6957 46.5264 34.6434C46.5264 34.2601 46.8399 33.9639 47.2231 33.9639H47.2405C47.6237 33.9639 47.9372 34.2949 47.9198 34.6783C47.9198 34.9396 47.7456 41.038 43.339 42.5191C43.2519 42.5365 43.1823 42.5539 43.1126 42.5539Z" fill="#1C1C1C"/>
</svg>
