<svg width="41" height="18" viewBox="0 0 41 18" fill="none" xmlns="http://www.w3.org/2000/svg">
<path d="M7.5969 17.0373C9.37846 17.0373 10.8227 15.5931 10.8227 13.8115C10.8227 12.0299 9.37846 10.5857 7.5969 10.5857C5.81534 10.5857 4.37109 12.0299 4.37109 13.8115C4.37109 15.5931 5.81534 17.0373 7.5969 17.0373Z" stroke="#1C1C1C" stroke-miterlimit="10" stroke-linecap="round" stroke-linejoin="round"/>
<path d="M16.6289 0.908325V4.77929" stroke="#1C1C1C" stroke-miterlimit="10" stroke-linecap="round" stroke-linejoin="round"/>
<path d="M30.8241 6.06962L10.8241 5.42445L6.95312 4.13413L9.53377 0.908325" stroke="#1C1C1C" stroke-miterlimit="10" stroke-linecap="round" stroke-linejoin="round"/>
<path d="M4.37097 13.8119L0.5 13.1668V9.94097L1.79032 8.65065L1.14516 6.71516L5.66129 1.55387L4.37097 0.908713L14.5645 0.521617C20.5 0.263553 26.3065 2.32807 30.8226 6.07C30.8226 6.07 37.0161 6.71516 40.5 9.29581V14.4571H35.3387" stroke="#1C1C1C" stroke-miterlimit="10" stroke-linecap="round" stroke-linejoin="round"/>
<path d="M32.1125 17.0373C33.8941 17.0373 35.3383 15.5931 35.3383 13.8115C35.3383 12.0299 33.8941 10.5857 32.1125 10.5857C30.331 10.5857 28.8867 12.0299 28.8867 13.8115C28.8867 15.5931 30.331 17.0373 32.1125 17.0373Z" stroke="#1C1C1C" stroke-miterlimit="10" stroke-linecap="round" stroke-linejoin="round"/>
<path d="M2.43422 5.42444L5.66003 6.71476C4.88584 7.87605 3.46648 8.65024 2.04712 8.65024H1.78906" stroke="#1C1C1C" stroke-miterlimit="10" stroke-linecap="round" stroke-linejoin="round"/>
<path d="M40.5011 11.2308C38.8237 10.8437 37.1463 10.0695 35.856 9.03726L35.3398 8.65017L38.3076 8.005" stroke="#1C1C1C" stroke-miterlimit="10" stroke-linecap="round" stroke-linejoin="round"/>
<path d="M12.1145 8.005H10.8242" stroke="#1C1C1C" stroke-miterlimit="10" stroke-linecap="round" stroke-linejoin="round"/>
<path d="M19.8567 8.005H18.5664" stroke="#1C1C1C" stroke-miterlimit="10" stroke-linecap="round" stroke-linejoin="round"/>
<path d="M10.8242 13.8115H28.8887" stroke="#1C1C1C" stroke-miterlimit="10" stroke-linecap="round" stroke-linejoin="round"/>
</svg>
