<svg width="41" height="16" viewBox="0 0 41 16" fill="none" xmlns="http://www.w3.org/2000/svg">
<path d="M29.832 11.8334H11.832" stroke="#1C1C1C" stroke-miterlimit="10" stroke-linecap="round" stroke-linejoin="round"/>
<path d="M36.4999 11.8333H40.4999V8.49999V7.83332C40.4999 7.83332 40.6333 5.16666 28.5 4.49999C27.1666 3.16666 25.7 2.23333 24.1 1.56667C22.5 0.900003 20.6333 0.5 18.9 0.5H15.7C15.5666 0.5 15.4333 0.5 15.3 0.5C14.2333 0.5 13.3 0.766668 12.2333 1.03333L9.83332 1.7L7.16666 2.5H1.83333L1.16667 4.49999V6.49999L0.5 7.83332L1.16667 11.1666L5.16666 11.7" stroke="#1C1C1C" stroke-miterlimit="10" stroke-linecap="round" stroke-linejoin="round"/>
<path d="M8.5013 15.1667C10.3422 15.1667 11.8346 13.6743 11.8346 11.8333C11.8346 9.99238 10.3422 8.5 8.5013 8.5C6.66035 8.5 5.16797 9.99238 5.16797 11.8333C5.16797 13.6743 6.66035 15.1667 8.5013 15.1667Z" stroke="#1C1C1C" stroke-miterlimit="10" stroke-linecap="round" stroke-linejoin="round"/>
<path d="M33.1654 15.1667C35.0063 15.1667 36.4987 13.6743 36.4987 11.8333C36.4987 9.99238 35.0063 8.5 33.1654 8.5C31.3244 8.5 29.832 9.99238 29.832 11.8333C29.832 13.6743 31.3244 15.1667 33.1654 15.1667Z" stroke="#1C1C1C" stroke-miterlimit="10" stroke-linecap="round" stroke-linejoin="round"/>
<path d="M1.16797 4.5H4.5013L3.16797 6.5H1.16797" stroke="#1C1C1C" stroke-miterlimit="10" stroke-linecap="round" stroke-linejoin="round"/>
<path d="M9.83203 1.83337L10.632 2.90004C11.432 3.96671 12.632 4.50004 13.832 4.50004H28.4987" stroke="#1C1C1C" stroke-miterlimit="10" stroke-linecap="round" stroke-linejoin="round"/>
<path d="M17.8333 6.5H16.5" stroke="#1C1C1C" stroke-miterlimit="10" stroke-linecap="round" stroke-linejoin="round"/>
<path d="M28.4987 7.83337L27.5653 9.30004C27.2987 9.70004 26.8987 9.83337 26.4987 9.83337H17.832" stroke="#1C1C1C" stroke-miterlimit="10" stroke-linecap="round" stroke-linejoin="round"/>
<path d="M15.168 0.5V4.49999" stroke="#1C1C1C" stroke-miterlimit="10" stroke-linecap="round" stroke-linejoin="round"/>
<path d="M36.5 5.83337L37.0333 6.90004C37.5667 7.83337 38.5 8.50004 39.5667 8.50004H40.5" stroke="#1C1C1C" stroke-miterlimit="10" stroke-linecap="round" stroke-linejoin="round"/>
</svg>
