<svg width="60" height="60" viewBox="0 0 60 60" fill="none" xmlns="http://www.w3.org/2000/svg">
<g clip-path="url(#clip0_13399_9287)">
<path d="M59.2163 48.4686H0.696662C0.313498 48.4686 0 48.1549 0 47.7716C0 47.3883 0.313498 47.0747 0.696662 47.0747H59.2163C59.5994 47.0747 59.9129 47.3883 59.9129 47.7716C59.9129 48.1549 59.5994 48.4686 59.2163 48.4686Z" fill="#1C1C1C"/>
<path d="M52.165 20.644H51.329C49.2913 20.644 47.6367 18.9888 47.6367 16.9503V15.2254C47.6367 13.1869 49.2913 11.5317 51.329 11.5317H52.165C54.2028 11.5317 55.8573 13.1869 55.8573 15.2254V16.9503C55.8573 18.9888 54.2028 20.644 52.165 20.644ZM51.3465 12.943C50.075 12.943 49.0475 13.971 49.0475 15.2428V16.9677C49.0475 18.2396 50.075 19.2676 51.3465 19.2676H52.1824C53.4538 19.2676 54.4814 18.2396 54.4814 16.9677V15.2428C54.4814 13.971 53.4538 12.943 52.1824 12.943H51.3465Z" fill="#1C1C1C"/>
<path d="M47.5129 46.709C47.1297 46.709 46.8162 46.3954 46.8162 46.0121V27.3346C46.8162 27.021 46.555 26.7596 46.2415 26.7596H39.9019C38.4737 26.7596 37.3242 25.5923 37.3242 24.181C37.3242 22.7523 38.4911 21.585 39.9019 21.585H54.8104C57.6667 21.585 60.0006 23.9197 60.0006 26.777V32.0736C60.0006 34.1644 58.3112 35.8545 56.2212 35.8545C55.838 35.8545 55.5245 35.5409 55.5245 35.1575C55.5245 34.7742 55.838 34.4606 56.2212 34.4606C57.5448 34.4606 58.6072 33.3804 58.6072 32.0736V26.777C58.6072 24.6863 56.9004 22.9788 54.8104 22.9788H39.9019C39.24 22.9788 38.7175 23.5189 38.7175 24.181C38.7175 24.8431 39.2574 25.3658 39.9019 25.3658H46.2415C47.3387 25.3658 48.2096 26.2543 48.2096 27.3346V46.0296C48.2096 46.3954 47.8961 46.709 47.5129 46.709Z" fill="#1C1C1C"/>
<path d="M56.2045 46.7087C55.8213 46.7087 55.5078 46.3951 55.5078 46.0118V28.2228C55.5078 27.8395 55.8213 27.5259 56.2045 27.5259C56.5876 27.5259 56.9011 27.8395 56.9011 28.2228V46.0118C56.9011 46.3951 56.5876 46.7087 56.2045 46.7087Z" fill="#1C1C1C"/>
<path d="M51.7435 46.7088C51.3604 46.7088 51.0469 46.3952 51.0469 46.0119V37.7882C51.0469 37.4049 51.3604 37.0913 51.7435 37.0913C52.1267 37.0913 52.4402 37.4049 52.4402 37.7882V46.0119C52.4402 46.3952 52.1267 46.7088 51.7435 46.7088Z" fill="#1C1C1C"/>
<path d="M31.8365 39.8786C30.0078 39.8786 28.5273 38.3976 28.5273 36.5682C28.5273 34.7388 30.0078 33.2578 31.8365 33.2578C33.6652 33.2578 35.1456 34.7388 35.1456 36.5682C35.1456 38.3976 33.6652 39.8786 31.8365 39.8786ZM31.8365 34.6691C30.7741 34.6691 29.9207 35.5228 29.9207 36.5856C29.9207 37.6484 30.7741 38.5022 31.8365 38.5022C32.8989 38.5022 33.7523 37.6484 33.7523 36.5856C33.7523 35.5228 32.8989 34.6691 31.8365 34.6691Z" fill="#1C1C1C"/>
<path d="M7.87164 39.8786C6.04291 39.8786 4.5625 38.3976 4.5625 36.5682C4.5625 34.7388 6.04291 33.2578 7.87164 33.2578C9.70038 33.2578 11.1808 34.7388 11.1808 36.5682C11.1634 38.3976 9.68296 39.8786 7.87164 39.8786ZM7.87164 34.6691C6.80923 34.6691 5.95582 35.5228 5.95582 36.5856C5.95582 37.6484 6.80923 38.5022 7.87164 38.5022C8.93405 38.5022 9.78746 37.6484 9.78746 36.5856C9.77005 35.5228 8.91664 34.6691 7.87164 34.6691Z" fill="#1C1C1C"/>
<path d="M26.2444 38.5372H13.4607C12.9904 38.5372 12.5898 38.1539 12.5898 37.6661V35.4708C12.5898 35.0003 12.973 34.5996 13.4607 34.5996H26.2444C26.7147 34.5996 27.1152 34.9829 27.1152 35.4708V37.6661C27.1152 38.1539 26.7147 38.5372 26.2444 38.5372ZM13.9832 37.1434H25.7219V35.9935H13.9832V37.1434Z" fill="#1C1C1C"/>
<path d="M20.0602 29.3206H5.13416C4.751 29.3206 4.4375 29.007 4.4375 28.6237C4.4375 28.2404 4.751 27.9268 5.13416 27.9268H20.0602C20.4433 27.9268 20.7568 28.2404 20.7568 28.6237C20.7568 29.007 20.4433 29.3206 20.0602 29.3206Z" fill="#1C1C1C"/>
<path d="M35.5472 43.6769H4.16262C2.68221 43.6769 1.48047 42.4573 1.48047 40.9763V36.0804C1.48047 33.6412 2.31647 31.2542 3.81429 29.3377L4.58062 28.3794C5.0857 27.7347 5.48627 27.0204 5.76493 26.2364C5.76493 26.2189 5.78236 26.1841 5.79978 26.1667L7.942 21.7064C8.778 19.964 10.5719 18.8315 12.4877 18.8315H27.2221C29.138 18.8315 30.9319 19.964 31.7678 21.7064L33.9101 26.1667C33.9275 26.1841 33.9275 26.2189 33.9449 26.2364C34.2236 27.0204 34.6242 27.7522 35.1292 28.3794L35.8956 29.3377C37.4108 31.2542 38.2294 33.6412 38.2294 36.0804V40.9763C38.2294 42.4573 37.0276 43.6769 35.5472 43.6769ZM20.0639 42.283H35.5472C36.2613 42.283 36.8361 41.6906 36.8361 40.9763V36.0804C36.8361 33.9548 36.1046 31.864 34.7983 30.2088L34.032 29.2506C33.4398 28.5014 32.9696 27.6476 32.6387 26.7416L30.5139 22.3162C29.9043 21.0443 28.6155 20.2254 27.2221 20.2254H12.4877C11.0944 20.2254 9.80559 21.0443 9.19601 22.3162L7.07118 26.7416C6.74026 27.665 6.28743 28.5014 5.67785 29.2506L4.91154 30.2088C3.58788 31.8814 2.87379 33.9548 2.87379 36.0804V40.9763C2.87379 41.7081 3.44854 42.283 4.16262 42.283H20.0639Z" fill="#1C1C1C"/>
<path d="M34.446 29.3206H19.642C19.2588 29.3206 18.9453 29.007 18.9453 28.6237C18.9453 28.2404 19.2588 27.9268 19.642 27.9268H34.446C34.8292 27.9268 35.1427 28.2404 35.1427 28.6237C35.1427 29.007 34.8292 29.3206 34.446 29.3206Z" fill="#1C1C1C"/>
<path d="M5.46619 46.7086C5.08303 46.7086 4.76953 46.395 4.76953 46.0117V42.9801C4.76953 42.5968 5.08303 42.2832 5.46619 42.2832C5.84936 42.2832 6.16286 42.5968 6.16286 42.9801V46.0117C6.16286 46.395 5.84936 46.7086 5.46619 46.7086Z" fill="#1C1C1C"/>
<path d="M12.8685 46.7086C12.4854 46.7086 12.1719 46.395 12.1719 46.0117V42.9801C12.1719 42.5968 12.4854 42.2832 12.8685 42.2832C13.2517 42.2832 13.5652 42.5968 13.5652 42.9801V46.0117C13.5652 46.395 13.2517 46.7086 12.8685 46.7086Z" fill="#1C1C1C"/>
<path d="M26.8373 46.7086C26.4541 46.7086 26.1406 46.395 26.1406 46.0117V42.9801C26.1406 42.5968 26.4541 42.2832 26.8373 42.2832C27.2205 42.2832 27.5339 42.5968 27.5339 42.9801V46.0117C27.5339 46.395 27.2205 46.7086 26.8373 46.7086Z" fill="#1C1C1C"/>
<path d="M34.2396 46.7086C33.8565 46.7086 33.543 46.395 33.543 46.0117V42.9801C33.543 42.5968 33.8565 42.2832 34.2396 42.2832C34.6228 42.2832 34.9363 42.5968 34.9363 42.9801V46.0117C34.9363 46.395 34.6228 46.7086 34.2396 46.7086Z" fill="#1C1C1C"/>
<path d="M3.70788 31.4115C3.5163 31.4115 3.32472 31.3418 3.18538 31.185L1.39147 29.1814C1.04314 28.7981 0.851562 28.3102 0.851562 27.8049C0.851562 26.6724 1.77465 25.749 2.90672 25.749H6.40744C6.79061 25.749 7.10411 26.0626 7.10411 26.4459C7.10411 26.8293 6.79061 27.1429 6.40744 27.1429H2.90672C2.54098 27.1429 2.24489 27.439 2.24489 27.8049C2.24489 27.9617 2.31455 28.1185 2.41905 28.2405L4.21296 30.2442C4.47421 30.5229 4.43937 30.976 4.16071 31.2199C4.03879 31.3418 3.86463 31.4115 3.70788 31.4115Z" fill="#1C1C1C"/>
<path d="M35.9996 31.4112C35.8254 31.4112 35.6687 31.3589 35.5293 31.237C35.2507 30.9756 35.2159 30.54 35.4771 30.2613L37.271 28.2576C37.3929 28.1357 37.4452 27.9789 37.4452 27.822C37.4452 27.4562 37.1491 27.16 36.7833 27.16H33.2826C32.8994 27.16 32.5859 26.8463 32.5859 26.463C32.5859 26.0797 32.8994 25.7661 33.2826 25.7661H36.7833C37.9154 25.7661 38.8385 26.6895 38.8385 27.822C38.8385 28.3273 38.6469 28.8151 38.2986 29.1985L36.5047 31.2021C36.3827 31.3241 36.1912 31.4112 35.9996 31.4112Z" fill="#1C1C1C"/>
</g>
<defs>
<clipPath id="clip0_13399_9287">
<rect width="60" height="60" fill="white"/>
</clipPath>
</defs>
</svg>
