<svg width="41" height="18" viewBox="0 0 41 18" fill="none" xmlns="http://www.w3.org/2000/svg">
<path d="M10.8235 17.2742C12.605 17.2742 14.0493 15.83 14.0493 14.0484C14.0493 12.2669 12.605 10.8226 10.8235 10.8226C9.0419 10.8226 7.59766 12.2669 7.59766 14.0484C7.59766 15.83 9.0419 17.2742 10.8235 17.2742Z" stroke="#1C1C1C" stroke-miterlimit="10" stroke-linecap="round" stroke-linejoin="round"/>
<path d="M33.4016 17.2742C35.1832 17.2742 36.6274 15.83 36.6274 14.0484C36.6274 12.2669 35.1832 10.8226 33.4016 10.8226C31.62 10.8226 30.1758 12.2669 30.1758 14.0484C30.1758 15.83 31.62 17.2742 33.4016 17.2742Z" stroke="#1C1C1C" stroke-miterlimit="10" stroke-linecap="round" stroke-linejoin="round"/>
<path d="M7.59677 14.0484H1.79032L0.5 12.7581V5.66129H13.4032V0.5H24.1129C24.7581 0.5 25.2742 0.758057 25.6613 1.01612L31.4677 5.66129L39.3387 6.82257C39.9839 6.9516 40.5 7.46773 40.5 8.1129V12.7581C40.5 13.5323 39.9839 14.0484 39.2097 14.0484H36.629" stroke="#1C1C1C" stroke-miterlimit="10" stroke-linecap="round" stroke-linejoin="round"/>
<path d="M30.1759 14.0483H14.0469" stroke="#1C1C1C" stroke-miterlimit="10" stroke-linecap="round" stroke-linejoin="round"/>
<path d="M21.1445 0.5V5.66129" stroke="#1C1C1C" stroke-miterlimit="10" stroke-linecap="round" stroke-linejoin="round"/>
<path d="M22.4349 8.24194H21.1445" stroke="#1C1C1C" stroke-miterlimit="10" stroke-linecap="round" stroke-linejoin="round"/>
<path d="M0.5 7.5968H4.37097L3.46774 9.01616C3.20968 9.27423 2.95161 9.53229 2.56452 9.53229H0.629033" stroke="#1C1C1C" stroke-miterlimit="10" stroke-linecap="round" stroke-linejoin="round"/>
<path d="M40.4986 10.1774H37.918V8.24194H40.4986" stroke="#1C1C1C" stroke-miterlimit="10" stroke-linecap="round" stroke-linejoin="round"/>
</svg>
