<svg width="60" height="60" viewBox="0 0 60 60" fill="none" xmlns="http://www.w3.org/2000/svg">
<path d="M14.7248 35.3738C12.5127 35.3738 10.7188 33.5791 10.7188 31.3488C10.7188 29.1186 12.5127 27.3413 14.7248 27.3413C16.9368 27.3413 18.7482 29.136 18.7482 31.3488C18.7482 33.5617 16.9368 35.3738 14.7248 35.3738ZM14.7248 28.7352C13.2791 28.7352 12.1121 29.9201 12.1121 31.3488C12.1121 32.7776 13.2965 33.9799 14.7248 33.9799C16.1704 33.9799 17.3548 32.795 17.3548 31.3488C17.3548 29.9026 16.1704 28.7352 14.7248 28.7352Z" fill="white"/>
<path d="M30.0468 33.6672H22.9579C21.8432 33.6672 20.9375 32.7611 20.9375 31.646V31.0884C20.9375 29.9558 21.8432 29.0498 22.9579 29.0498H31.5448C31.9279 29.0498 32.2414 29.3634 32.2414 29.7468C32.2414 30.1301 31.9279 30.4437 31.5448 30.4437H22.9579C22.6096 30.4437 22.3309 30.7399 22.3309 31.0884V31.646C22.3309 31.9945 22.6096 32.2732 22.9579 32.2732H30.0468C30.43 32.2732 30.7435 32.5869 30.7435 32.9702C30.7435 33.3535 30.43 33.6672 30.0468 33.6672Z" fill="white"/>
<path d="M30.246 21.9418H11.2436C10.8604 21.9418 10.5469 21.6281 10.5469 21.2448C10.5469 20.8615 10.8604 20.5479 11.2436 20.5479H30.246C30.6292 20.5479 30.9427 20.8615 30.9427 21.2448C30.9427 21.6281 30.6292 21.9418 30.246 21.9418Z" fill="white"/>
<path d="M30.2426 40.2186H10.0035C8.2269 40.2186 6.78125 38.755 6.78125 36.9603V30.7225C6.78125 28.1786 7.4954 25.7044 8.81913 23.5438C9.08039 23.1082 9.37646 22.6901 9.70739 22.2719L10.6653 21.0696C10.6828 21.0348 10.7176 20.9999 10.7524 20.9651C10.7699 20.9477 10.7698 20.9477 10.7873 20.9303C10.8047 20.8954 10.8221 20.8606 10.8395 20.8431C11.3969 20.0939 11.8672 19.2401 12.1981 18.3167C12.2155 18.2644 12.2329 18.2295 12.2504 18.1773L14.9849 12.5145C16.0473 10.319 18.1897 8.95996 20.6107 8.95996H39.3519C41.7381 8.95996 43.9327 10.3539 44.9603 12.5145L46.9285 16.5917L47.6949 18.1598C47.7123 18.2121 47.7297 18.2644 47.7471 18.3167C48.078 19.2401 48.5309 20.0939 49.0883 20.8605C49.0883 20.878 49.1056 20.878 49.1056 20.8954C49.1405 20.9651 49.1928 21.0174 49.2276 21.0696L50.2029 22.2893C50.5339 22.7075 50.83 23.1257 51.0913 23.5613C52.4324 25.7218 53.1291 28.196 53.1291 30.7399V36.9777C53.1291 38.0754 52.5892 39.1035 51.666 39.7133C51.3525 39.9224 50.9171 39.8353 50.7081 39.5216C50.4991 39.208 50.5861 38.7724 50.8996 38.5633C51.4222 38.2148 51.7357 37.6224 51.7357 36.9777V30.7399C51.7357 28.4574 51.1087 26.2271 49.9069 24.2931C49.663 23.8923 49.4017 23.509 49.1056 23.1431L48.1303 21.9234C48.078 21.8537 48.0084 21.7666 47.9387 21.6795C47.2942 20.7908 46.7717 19.7977 46.3885 18.7174L45.657 17.2189L43.6888 13.1243C42.8876 11.4342 41.1807 10.3539 39.3345 10.3539H20.5933C18.7296 10.3539 17.0576 11.4167 16.2215 13.1243L13.5218 18.7174V18.7348C13.1387 19.8151 12.6161 20.7909 11.9717 21.6446C11.9194 21.7317 11.8846 21.784 11.8323 21.8363C11.8149 21.8537 11.8149 21.8711 11.7975 21.8886C11.7801 21.906 11.7801 21.9234 11.7627 21.9408L10.7873 23.1605C10.5086 23.5264 10.2299 23.9097 10.0035 24.2931C8.80167 26.2271 8.15725 28.4574 8.15725 30.7399V36.9777C8.15725 38.0057 8.97587 38.8421 9.98609 38.8421H30.2077C30.5909 38.8421 30.9044 39.1557 30.9044 39.5391C30.9044 39.9224 30.6258 40.2186 30.2426 40.2186Z" fill="white"/>
<path d="M30.2398 40.2181H19.8764C19.4932 40.2181 19.1797 39.9045 19.1797 39.5212C19.1797 39.1379 19.4932 38.8242 19.8764 38.8242H30.2223C30.6055 38.8242 30.919 39.1379 30.919 39.5212C30.919 39.9045 30.6229 40.2181 30.2398 40.2181Z" fill="white"/>
<path d="M48.5406 21.9413H29.7123C29.3291 21.9413 29.0156 21.6277 29.0156 21.2443C29.0156 20.861 29.3291 20.5474 29.7123 20.5474H48.5406C48.9238 20.5474 49.2373 20.861 49.2373 21.2443C49.2373 21.6277 48.9238 21.9413 48.5406 21.9413Z" fill="white"/>
<path d="M17.2711 46.0552H14.6062C12.7774 46.0552 11.2969 44.5741 11.2969 42.7446V39.5212C11.2969 39.1379 11.6104 38.8242 11.9936 38.8242C12.3768 38.8242 12.6903 39.1379 12.6903 39.5212V42.7446C12.6903 43.8075 13.5437 44.6613 14.6062 44.6613H17.2711C18.3335 44.6613 19.187 43.8075 19.187 42.7446V39.5212C19.187 39.1379 19.5005 38.8242 19.8837 38.8242C20.2669 38.8242 20.5804 39.1379 20.5804 39.5212V42.7446C20.5804 44.5741 19.0999 46.0552 17.2711 46.0552Z" fill="white"/>
<path d="M9.43127 24.5895C9.23968 24.5895 9.04809 24.5198 8.90875 24.363L6.62705 21.8191C6.22644 21.366 6 20.791 6 20.1986C6 18.857 7.0973 17.7593 8.43844 17.7593H12.8973C13.2805 17.7593 13.594 18.0729 13.594 18.4562C13.594 18.8396 13.2805 19.1532 12.8973 19.1532H8.43844C7.86367 19.1532 7.3934 19.6236 7.3934 20.1986C7.3934 20.4426 7.49792 20.6865 7.67209 20.8782L9.95379 23.4221C10.2151 23.7009 10.1802 24.1539 9.90153 24.3978C9.76219 24.5372 9.58803 24.5895 9.43127 24.5895Z" fill="white"/>
<path d="M50.5221 24.5895C50.348 24.5895 50.1912 24.5372 50.0519 24.4153C49.7732 24.1539 49.7383 23.7183 49.9996 23.4395L52.2813 20.8956C52.4555 20.7039 52.56 20.46 52.56 20.1986C52.56 19.6236 52.0897 19.1532 51.5149 19.1532H47.0561C46.6729 19.1532 46.3594 18.8396 46.3594 18.4562C46.3594 18.0729 46.6729 17.7593 47.0561 17.7593H51.5149C52.8561 17.7593 53.9534 18.857 53.9534 20.1986C53.9534 20.791 53.727 21.366 53.3264 21.8191L51.0447 24.363C50.9053 24.5198 50.7137 24.5895 50.5221 24.5895Z" fill="white"/>
<path d="M40.7166 45.7252C40.4379 45.7252 40.1592 45.7078 39.8979 45.6904C34.5334 45.2548 30.5274 40.5155 30.9802 35.1489C31.4157 29.7823 36.1532 25.7748 41.5178 26.2278C46.8824 26.6634 50.8884 31.4027 50.4355 36.7693C50.2613 38.9125 49.4079 40.8814 47.9796 42.4669C47.3526 43.1813 46.6211 43.7912 45.8199 44.279C44.2871 45.2374 42.528 45.7252 40.7166 45.7252ZM40.6992 27.5869C36.3971 27.5869 32.722 30.8974 32.3562 35.2708C31.973 39.8708 35.4043 43.9305 40.0025 44.3139C41.7965 44.4707 43.5556 44.0351 45.0709 43.0942C45.7676 42.6586 46.3946 42.1359 46.9346 41.5435C48.1538 40.1844 48.8853 38.4943 49.0421 36.6473C49.4253 32.0474 45.9941 27.9876 41.3959 27.6043C41.152 27.5868 40.9256 27.5869 40.6992 27.5869Z" fill="white"/>
<path d="M51.37 51.0398C51.2829 51.0398 51.1958 51.0398 51.1087 51.0224C50.3772 50.9527 49.7153 50.5694 49.2799 49.9769L44.9082 44.0876C44.7862 43.9308 44.7514 43.7391 44.7862 43.5475C44.8211 43.3558 44.943 43.1816 45.0997 43.077C45.7964 42.6589 46.4235 42.1361 46.9634 41.5263C47.0853 41.3869 47.2595 41.2998 47.4511 41.2998C47.6427 41.2998 47.8169 41.3695 47.9562 41.4915L53.1988 46.527C53.7214 47.0323 54.0175 47.7467 54.0001 48.4611C53.9826 49.1929 53.6691 49.8898 53.1117 50.3777C52.6241 50.7959 51.997 51.0398 51.37 51.0398ZM46.4409 43.8611L50.3772 49.158C50.5862 49.4368 50.8823 49.611 51.2307 49.6459C51.579 49.6807 51.91 49.5762 52.1712 49.3497C52.4325 49.1232 52.5718 48.7921 52.5892 48.4436C52.5892 48.0952 52.4673 47.7815 52.206 47.5376L47.4685 42.9899C47.155 43.3036 46.8067 43.5823 46.4409 43.8611Z" fill="white"/>
<path d="M43.1126 42.5539C42.8165 42.5539 42.5552 42.3622 42.4507 42.0835C42.3288 41.7176 42.5204 41.3168 42.8862 41.1948C46.3696 40.0274 46.5264 34.6957 46.5264 34.6434C46.5264 34.2601 46.8399 33.9639 47.2231 33.9639H47.2405C47.6237 33.9639 47.9372 34.2949 47.9198 34.6783C47.9198 34.9396 47.7456 41.038 43.339 42.5191C43.2519 42.5365 43.1823 42.5539 43.1126 42.5539Z" fill="white"/>
</svg>
