<svg width="60" height="60" viewBox="0 0 60 60" fill="none" xmlns="http://www.w3.org/2000/svg">
<path d="M47.7289 47.9812C46.3227 47.9812 45.1875 46.8456 45.1875 45.4388C45.1875 44.0321 46.3227 42.8965 47.7289 42.8965C49.1352 42.8965 50.2703 44.0321 50.2703 45.4388C50.2873 46.8456 49.1352 47.9812 47.7289 47.9812ZM47.7289 44.2524C47.0681 44.2524 46.5429 44.7948 46.5429 45.4388C46.5429 46.0829 47.0851 46.6253 47.7289 46.6253C48.3727 46.6253 48.9149 46.0829 48.9149 45.4388C48.9149 44.7948 48.3897 44.2524 47.7289 44.2524Z" fill="white"/>
<path d="M30.5336 47.9812C29.1273 47.9812 27.9922 46.8456 27.9922 45.4388C27.9922 44.0321 29.1273 42.8965 30.5336 42.8965C31.9398 42.8965 33.075 44.0321 33.075 45.4388C33.0919 46.8456 31.9398 47.9812 30.5336 47.9812ZM30.5336 44.2524C29.8728 44.2524 29.3476 44.7948 29.3476 45.4388C29.3476 46.0829 29.8898 46.6253 30.5336 46.6253C31.1944 46.6253 31.7196 46.0829 31.7196 45.4388C31.7196 44.7948 31.1944 44.2524 30.5336 44.2524Z" fill="white"/>
<path d="M43.6954 47.0326H34.5802C34.1227 47.0326 33.75 46.6597 33.75 46.2021V44.6767C33.75 44.2191 34.1227 43.8462 34.5802 43.8462H43.6954C44.1529 43.8462 44.5256 44.2191 44.5256 44.6767V46.2021C44.5256 46.6597 44.1529 47.0326 43.6954 47.0326ZM35.1054 45.6767H43.1702V45.2021H35.1054V45.6767Z" fill="white"/>
<path d="M39.2996 40.4067H28.5918C28.219 40.4067 27.9141 40.1016 27.9141 39.7287C27.9141 39.3559 28.219 39.0508 28.5918 39.0508H39.2996C39.6723 39.0508 39.9773 39.3559 39.9773 39.7287C39.9773 40.1016 39.6723 40.4067 39.2996 40.4067Z" fill="white"/>
<path d="M49.6133 40.4067H38.9902C38.6175 40.4067 38.3125 40.1016 38.3125 39.7287C38.3125 39.3559 38.6175 39.0508 38.9902 39.0508H49.6133C49.9861 39.0508 50.291 39.3559 50.291 39.7287C50.291 40.1016 49.9861 40.4067 49.6133 40.4067Z" fill="white"/>
<path d="M31.9786 53.9995H30.4877C29.3017 53.9995 28.3359 53.0334 28.3359 51.847V50.0334C28.3359 49.6606 28.6409 49.3555 29.0136 49.3555C29.3864 49.3555 29.6914 49.6606 29.6914 50.0334V51.8639C29.6914 52.3046 30.0472 52.6605 30.4877 52.6605H31.9786C32.4191 52.6605 32.775 52.3046 32.775 51.8639V50.0504C32.775 49.6775 33.0799 49.3724 33.4527 49.3724C33.8254 49.3724 34.1304 49.6775 34.1304 50.0504V51.8639C34.1304 53.0504 33.1646 53.9995 31.9786 53.9995Z" fill="white"/>
<path d="M47.8067 54H46.3158C45.1298 54 44.1641 53.0339 44.1641 51.8475V50.0339C44.1641 49.661 44.469 49.356 44.8418 49.356C45.2145 49.356 45.5195 49.661 45.5195 50.0339V51.8644C45.5195 52.3051 45.8753 52.661 46.3158 52.661H47.8067C48.2473 52.661 48.6031 52.3051 48.6031 51.8644V50.0509C48.6031 49.678 48.9081 49.3729 49.2808 49.3729C49.6535 49.3729 49.9585 49.678 49.9585 50.0509V51.8644C49.9585 53.0509 48.9927 54 47.8067 54Z" fill="white"/>
<path d="M50.3912 50.711H27.8744C26.7223 50.711 25.7734 49.7618 25.7734 48.5923V45.0669C25.7734 43.2873 26.3834 41.5246 27.4847 40.1178L28.0269 39.4229C28.3827 38.9822 28.6537 38.4737 28.8401 37.9314C28.8401 37.9144 28.8571 37.8805 28.874 37.8636L30.4158 34.6602C31.0427 33.3382 32.3981 32.4907 33.8382 32.4907H44.4104C45.8505 32.4907 47.206 33.3382 47.8329 34.6602L49.3747 37.8636C49.3916 37.8805 49.3916 37.9144 49.4085 37.9314C49.5949 38.4737 49.866 38.9822 50.2218 39.4229L50.7639 40.1178C51.8652 41.5246 52.4752 43.2703 52.4752 45.0669V48.5923C52.4921 49.7618 51.5603 50.711 50.3912 50.711ZM39.2938 49.355H50.4082C50.8148 49.355 51.1537 49.0161 51.1537 48.5923V45.0669C51.1537 43.5754 50.6454 42.1178 49.7305 40.9653L49.1883 40.2703C48.7478 39.711 48.4089 39.1009 48.1717 38.4229L46.6469 35.2534C46.2403 34.406 45.3762 33.8636 44.4443 33.8636H33.8551C32.9233 33.8636 32.0592 34.406 31.6526 35.2534L30.1277 38.4229C29.8905 39.1009 29.5517 39.711 29.1112 40.2703L28.569 40.9653C27.6541 42.1347 27.1458 43.5924 27.1458 45.0669V48.5923C27.1458 49.0161 27.4847 49.355 27.8913 49.355H39.2938Z" fill="white"/>
<path d="M27.5554 41.9144C27.369 41.9144 27.1826 41.8466 27.0471 41.6941L25.7595 40.2534C25.4884 39.9483 25.3359 39.5585 25.3359 39.1517C25.3359 38.2365 26.0814 37.4907 26.9963 37.4907H29.5038C29.8765 37.4907 30.1815 37.7958 30.1815 38.1687C30.1815 38.5416 29.8765 38.8466 29.5038 38.8466H26.9963C26.8269 38.8466 26.6914 38.9822 26.6914 39.1517C26.6914 39.2195 26.7252 39.2873 26.7761 39.3551L28.0636 40.7958C28.3178 41.067 28.2839 41.5076 28.0129 41.7449C27.8773 41.8466 27.7248 41.9144 27.5554 41.9144Z" fill="white"/>
<path d="M50.7355 41.9154C50.5661 41.9154 50.4136 41.8646 50.278 41.7459C50.0069 41.4917 49.9731 41.068 50.2272 40.7968L51.5149 39.3561C51.5657 39.3052 51.5996 39.2205 51.5996 39.1527C51.5996 38.9832 51.464 38.8476 51.2946 38.8476H48.7871C48.4143 38.8476 48.1094 38.5425 48.1094 38.1697C48.1094 37.7968 48.4143 37.4917 48.7871 37.4917H51.2946C52.2095 37.4917 52.955 38.2375 52.955 39.1527C52.955 39.5595 52.8025 39.9493 52.5314 40.2544L51.2438 41.6781C51.1082 41.8307 50.9219 41.9154 50.7355 41.9154Z" fill="white"/>
<path d="M23.828 50.8987H9.5453C8.17294 50.8987 7.05469 49.7801 7.05469 48.4072V13.5091C7.05469 12.1362 8.17294 11.0176 9.5453 11.0176H12.019C12.3917 11.0176 12.6967 11.3227 12.6967 11.6955C12.6967 12.0684 12.3917 12.3735 12.019 12.3735H9.5453C8.91842 12.3735 8.4101 12.882 8.4101 13.5091V48.4072C8.4101 49.0513 8.90148 49.5428 9.5453 49.5428H23.828C24.2007 49.5428 24.5057 49.8479 24.5057 50.2208C24.5057 50.5937 24.2007 50.8987 23.828 50.8987Z" fill="white"/>
<path d="M39.1361 32.1012C38.7634 32.1012 38.4584 31.7962 38.4584 31.4233V13.5081C38.4584 12.881 37.9501 12.3725 37.3232 12.3725H34.8496C34.4768 12.3725 34.1719 12.0674 34.1719 11.6946C34.1719 11.3217 34.4768 11.0166 34.8496 11.0166H37.3232C38.6956 11.0166 39.8138 12.1352 39.8138 13.5081V31.4233C39.8138 31.7962 39.5089 32.1012 39.1361 32.1012Z" fill="white"/>
<path d="M32.6569 14.0339H14.2402C13.8675 14.0339 13.5625 13.7288 13.5625 13.3559V11.2712C13.5625 10.1186 14.4943 9.16948 15.6464 9.16948H18.3233V7.96609C18.3233 6.88135 19.2044 6 20.2887 6H26.5914C27.6758 6 28.5568 6.88135 28.5568 7.96609V9.18643H31.2337C32.3858 9.18643 33.3176 10.1186 33.3176 11.2881V13.3728C33.3346 13.7288 33.0296 14.0339 32.6569 14.0339ZM14.9179 12.6779H31.9792V11.2712C31.9792 10.8644 31.6573 10.5254 31.2507 10.5254H27.896C27.5232 10.5254 27.2183 10.2203 27.2183 9.84744V7.96609C27.2183 7.62711 26.9472 7.35593 26.6084 7.35593H20.3057C19.9668 7.35593 19.6957 7.62711 19.6957 7.96609V9.86439C19.6957 10.2373 19.3907 10.5424 19.018 10.5424H15.6634C15.2568 10.5424 14.9348 10.8813 14.9348 11.2881V12.6779H14.9179Z" fill="white"/>
<path d="M14.4616 22.9148C14.2921 22.9148 14.1396 22.864 14.0041 22.7453L12.0049 20.9487C11.7338 20.6945 11.6999 20.2708 11.9541 19.9996C12.2082 19.7284 12.6317 19.6945 12.9028 19.9487L14.4108 21.3047L17.4096 18.186C17.6637 17.9148 18.1043 17.9148 18.3754 18.1691C18.6464 18.4233 18.6465 18.864 18.3923 19.1352L14.9529 22.7114C14.8174 22.847 14.631 22.9148 14.4616 22.9148Z" fill="white"/>
<path d="M34.0433 19.5757H21.6074C21.2347 19.5757 20.9297 19.2706 20.9297 18.8977C20.9297 18.5248 21.2347 18.2197 21.6074 18.2197H34.0433C34.4161 18.2197 34.721 18.5248 34.721 18.8977C34.721 19.2706 34.4161 19.5757 34.0433 19.5757Z" fill="white"/>
<path d="M30.4176 22.9145H21.6074C21.2347 22.9145 20.9297 22.6094 20.9297 22.2366C20.9297 21.8637 21.2347 21.5586 21.6074 21.5586H30.4176C30.7903 21.5586 31.0953 21.8637 31.0953 22.2366C31.0953 22.6094 30.7903 22.9145 30.4176 22.9145Z" fill="white"/>
<path d="M14.4616 33.4231C14.2921 33.4231 14.1396 33.3723 14.0041 33.2536L12.0049 31.457C11.7338 31.2028 11.6999 30.7791 11.9541 30.5079C12.2082 30.2367 12.6317 30.2028 12.9028 30.457L14.4108 31.813L17.4096 28.6943C17.6637 28.4231 18.1043 28.4231 18.3754 28.6774C18.6464 28.9316 18.6465 29.3723 18.3923 29.6435L14.9529 33.2197C14.8174 33.3553 14.631 33.4231 14.4616 33.4231Z" fill="white"/>
<path d="M34.0433 30.0844H21.6074C21.2347 30.0844 20.9297 29.7794 20.9297 29.4065C20.9297 29.0336 21.2347 28.7285 21.6074 28.7285H34.0433C34.4161 28.7285 34.721 29.0336 34.721 29.4065C34.721 29.7794 34.4161 30.0844 34.0433 30.0844Z" fill="white"/>
<path d="M29.8924 33.4238H21.6074C21.2347 33.4238 20.9297 33.1187 20.9297 32.7458C20.9297 32.373 21.2347 32.0679 21.6074 32.0679H29.8924C30.2651 32.0679 30.5701 32.373 30.5701 32.7458C30.5701 33.1187 30.2651 33.4238 29.8924 33.4238Z" fill="white"/>
<path d="M14.4616 43.9319C14.2921 43.9319 14.1396 43.8811 14.0041 43.7624L12.0049 41.9658C11.7338 41.7116 11.6999 41.2879 11.9541 41.0167C12.2082 40.7455 12.6317 40.7116 12.9028 40.9658L14.4108 42.3217L17.4096 39.2031C17.6637 38.9319 18.1043 38.9319 18.3754 39.1862C18.6464 39.4404 18.6465 39.8811 18.3923 40.1523L14.9529 43.7285C14.8174 43.8641 14.631 43.9319 14.4616 43.9319Z" fill="white"/>
<path d="M24.0289 40.5937H21.623C21.2503 40.5937 20.9453 40.2886 20.9453 39.9158C20.9453 39.5429 21.2503 39.2378 21.623 39.2378H24.0289C24.4017 39.2378 24.7066 39.5429 24.7066 39.9158C24.7066 40.2886 24.4017 40.5937 24.0289 40.5937Z" fill="white"/>
<path d="M24.1826 43.9321H21.6074C21.2347 43.9321 20.9297 43.627 20.9297 43.2541C20.9297 42.8813 21.2347 42.5762 21.6074 42.5762H24.1826C24.5554 42.5762 24.8603 42.8813 24.8603 43.2541C24.8603 43.627 24.5554 43.9321 24.1826 43.9321Z" fill="white"/>
</svg>
