<svg width="60" height="60" viewBox="0 0 60 60" fill="none" xmlns="http://www.w3.org/2000/svg">
<path d="M48.0654 40.7367C47.8871 40.7367 47.7237 40.6921 47.5603 40.6178C47.2781 40.4841 47.0552 40.2463 46.9513 39.9491L42.0936 26.2474C41.8708 25.6381 42.1976 24.9545 42.8067 24.7316L47.5603 23.0375C48.1694 22.8146 48.8527 23.1415 49.0755 23.7508C49.1795 24.0629 49.0161 24.4047 48.719 24.5087C48.4071 24.6127 48.0654 24.4493 47.9614 24.152L43.2077 25.8462L48.0654 39.533L52.8191 37.8388C52.7151 37.5268 52.8636 37.1998 53.1756 37.0809C53.4875 36.9769 53.8292 37.1404 53.9332 37.4525C54.0372 37.7497 54.0224 38.0766 53.8887 38.359C53.755 38.6413 53.5173 38.8642 53.2202 38.9683L48.4665 40.6624C48.3328 40.7218 48.1991 40.7367 48.0654 40.7367Z" fill="white"/>
<path d="M11.9361 39.9345C11.8024 39.9345 11.6687 39.9047 11.535 39.8601L6.7813 38.166C6.48419 38.062 6.24651 37.8391 6.11281 37.5567C5.97911 37.2744 5.96425 36.9474 6.06824 36.6502C6.17222 36.3381 6.51387 36.1747 6.82583 36.2936C7.13779 36.3976 7.30122 36.7394 7.18238 37.0515L11.9361 38.7307L16.7788 25.0291L12.0252 23.3498C11.9212 23.6619 11.5795 23.8253 11.2676 23.7065C10.9556 23.6024 10.807 23.2606 10.911 22.9485C11.1339 22.3393 11.8024 22.0123 12.4263 22.2352L17.18 23.9294C17.789 24.1523 18.1158 24.821 17.893 25.4452L13.0353 39.1468C12.9313 39.444 12.7085 39.6818 12.4263 39.8156C12.2777 39.9047 12.1143 39.9345 11.9361 39.9345Z" fill="white"/>
<path d="M26.315 34.8526C26.1219 34.8526 25.9139 34.8229 25.7208 34.7783C24.77 34.5405 24.0124 34.1542 23.4776 33.634C22.6457 32.8464 22.5863 31.5238 23.3439 30.647L27.9045 25.3268C28.5432 24.5838 29.4791 24.1528 30.4744 24.1528H33.8169C34.723 24.1528 35.5995 24.346 36.4165 24.7027L39.6104 26.1293C40.368 26.4711 41.1999 26.6049 42.0169 26.5306L42.9677 26.4563C43.2945 26.4265 43.5767 26.6643 43.6065 26.9912C43.6362 27.3182 43.3985 27.6005 43.0716 27.6303L42.1209 27.7046C41.0959 27.7937 40.0709 27.6154 39.135 27.1993L35.9411 25.7727C35.2726 25.4754 34.5596 25.3268 33.8169 25.3268H30.4744C29.8357 25.3268 29.2266 25.6092 28.8106 26.0847L24.2501 31.4049C23.9084 31.8061 23.9233 32.4006 24.2946 32.7572C24.7849 33.2328 25.4979 33.4854 26.0179 33.6043C26.419 33.7083 26.8497 33.6043 27.1468 33.3219L30.0733 30.6916C30.3556 30.439 30.5487 30.0823 30.6081 29.7108L30.7121 29.1015C30.7715 28.7745 31.0686 28.5516 31.3955 28.6111C31.7223 28.6705 31.9451 28.9677 31.8857 29.2947L31.7817 29.904C31.6777 30.543 31.3509 31.1374 30.8755 31.5684L27.949 34.1987C27.4885 34.6297 26.9092 34.8526 26.315 34.8526Z" fill="white"/>
<path d="M32.36 51.6752C31.84 51.6752 31.3052 51.5117 30.8596 51.1699C30.5922 50.9767 30.5476 50.5903 30.7556 50.3377C30.9487 50.0702 31.335 50.0256 31.5875 50.2337C32.152 50.6646 32.9245 50.5755 33.385 50.0256C33.7267 49.6244 33.8158 49.0448 33.6375 48.5247C33.5632 48.3463 33.5781 48.1383 33.697 47.9599C33.7267 47.9154 33.7712 47.8708 33.8009 47.8411C33.8455 47.7965 33.9049 47.7668 33.9644 47.737C34.1723 47.6479 34.3952 47.6925 34.5586 47.8262C35.1231 48.2423 35.8807 48.1531 36.3412 47.6033C36.7274 47.1277 36.8908 46.4293 36.6977 45.9537C36.5937 45.716 36.668 45.4336 36.876 45.2701C37.0839 45.1067 37.3662 45.0918 37.589 45.2553C38.109 45.6268 38.9705 45.4633 39.4311 44.9283C39.7727 44.542 39.8619 43.9921 39.6688 43.5017C39.639 43.4274 39.6242 43.368 39.6093 43.3234C39.5796 43.2342 39.5796 43.2342 39.5499 43.2045C39.3419 42.9667 39.3568 42.6101 39.5796 42.3871C39.8024 42.1642 40.159 42.1642 40.3966 42.3723C40.4561 42.4317 40.7086 42.6398 40.7532 42.6695C41.3028 43.0559 42.0456 42.9667 42.4912 42.4614C42.9666 41.9116 42.922 41.0794 42.3724 40.6038L33.1027 32.4601C32.8502 32.2372 32.8353 31.8657 33.0433 31.6279C33.2661 31.3753 33.6375 31.3604 33.8752 31.5685L43.1449 39.7122C44.1847 40.6187 44.2887 42.2088 43.3677 43.2491C42.7438 43.9624 41.8079 44.2447 40.9314 44.0367C40.9314 44.646 40.7086 45.2256 40.3075 45.7011C39.6985 46.3996 38.7774 46.7414 37.9158 46.6225C37.8713 47.2466 37.6187 47.8708 37.2028 48.3612C36.6086 49.0745 35.7024 49.3717 34.8557 49.2231C34.826 49.7878 34.6031 50.3377 34.2466 50.7686C33.7861 51.3631 33.0879 51.6752 32.36 51.6752Z" fill="white"/>
<path d="M40.0127 43.397C39.879 43.397 39.7453 43.3524 39.6414 43.2633L36.9525 41.049C36.7 40.8409 36.6554 40.4694 36.8783 40.2168C37.0862 39.9642 37.4576 39.9196 37.7102 40.1425L40.399 42.3568C40.6515 42.5648 40.6961 42.9363 40.4732 43.189C40.3544 43.3227 40.191 43.397 40.0127 43.397Z" fill="white"/>
<path d="M37.2455 46.3249C37.0969 46.3249 36.9633 46.2803 36.8444 46.1763L33.9773 43.5608C33.7397 43.3379 33.7099 42.9664 33.9328 42.7138C34.1556 42.476 34.527 42.4462 34.7796 42.6692L37.6466 45.2847C37.8843 45.5076 37.914 45.8791 37.6912 46.1317C37.5723 46.2655 37.4089 46.3249 37.2455 46.3249Z" fill="white"/>
<path d="M34.1928 48.8816C34.0443 48.8816 33.8957 48.8221 33.7917 48.7181L30.9692 46.058C30.7315 45.8351 30.7167 45.4636 30.9395 45.211C31.1623 44.9732 31.5337 44.9583 31.7862 45.1813L34.6087 47.8413C34.8464 48.0643 34.8613 48.4358 34.6385 48.6884C34.5048 48.8073 34.3414 48.8816 34.1928 48.8816Z" fill="white"/>
<path d="M43.4268 41.9553C43.2336 41.9553 43.0554 41.8662 42.9365 41.7027C42.7434 41.4352 42.8177 41.0637 43.0851 40.8705L46.8286 38.2847C47.096 38.0915 47.4673 38.1658 47.6605 38.4333C47.8536 38.7008 47.7793 39.0723 47.5119 39.2655L43.7684 41.8513C43.6644 41.9107 43.5456 41.9553 43.4268 41.9553Z" fill="white"/>
<path d="M25.2064 52.6103C25.1915 52.6103 25.1618 52.6103 25.1469 52.6103C24.8944 52.5954 24.6716 52.4914 24.5082 52.2982L22.3244 49.8165C21.9828 49.4301 22.0274 48.8505 22.4136 48.5236L26.8405 44.63C27.0187 44.4666 27.2564 44.3923 27.5089 44.4071C27.7615 44.422 27.9843 44.526 28.1477 44.7192L30.3314 47.201C30.4948 47.3793 30.5691 47.6171 30.5543 47.8697C30.5394 48.1223 30.4354 48.3453 30.2423 48.5087L25.8154 52.4023C25.652 52.5211 25.4292 52.6103 25.2064 52.6103ZM23.394 49.222L25.2212 51.3026L29.247 47.7508L27.4198 45.6703L23.394 49.222Z" fill="white"/>
<path d="M17.8175 43.5461C17.8027 43.5461 17.773 43.5461 17.7581 43.5461C17.5056 43.5312 17.2827 43.4272 17.1193 43.234L14.9356 40.7522C14.7722 40.5739 14.6979 40.3361 14.7128 40.0835C14.7276 39.8309 14.8317 39.6079 15.0248 39.4445L19.4516 35.5509C19.6299 35.3875 19.8675 35.3132 20.1201 35.328C20.3726 35.3429 20.5955 35.4469 20.7589 35.6401L22.9426 38.1219C23.106 38.3002 23.1803 38.538 23.1654 38.7906C23.1506 39.0432 23.0466 39.2662 22.8535 39.4296L18.4266 43.3232C18.2483 43.4718 18.0404 43.5461 17.8175 43.5461ZM16.0052 40.1727L17.8324 42.2532L21.8582 38.7014L20.031 36.6209L16.0052 40.1727Z" fill="white"/>
<path d="M22.5423 49.7284C22.2898 49.7284 22.0372 49.6244 21.8441 49.4164L19.6604 46.9346C19.3187 46.5482 19.3633 45.9686 19.7495 45.6417L25.4985 40.589C25.6768 40.4256 25.9145 40.3513 26.167 40.3661C26.4195 40.381 26.6423 40.485 26.8057 40.6782L28.9895 43.16C29.1529 43.3383 29.2272 43.5761 29.2123 43.8287C29.1975 44.0813 29.0935 44.3042 28.9003 44.4677L23.1514 49.5204C22.9731 49.6541 22.7651 49.7284 22.5423 49.7284ZM20.73 46.3402L22.5572 48.4207L27.9051 43.7247L26.0778 41.6441L20.73 46.3402Z" fill="white"/>
<path d="M20.1048 46.6068C19.8523 46.6068 19.5997 46.5028 19.4066 46.2948L17.2229 43.813C16.8812 43.4266 16.9258 42.8471 17.312 42.5201L23.061 37.4674C23.2393 37.304 23.4769 37.2297 23.7295 37.2445C23.982 37.2594 24.2049 37.3634 24.3683 37.5566L26.552 40.0384C26.7154 40.2167 26.7897 40.4545 26.7748 40.7071C26.7599 40.9597 26.656 41.1826 26.4629 41.3461L20.7139 46.3988C20.5505 46.5325 20.3276 46.6068 20.1048 46.6068ZM18.3073 43.2334L20.1345 45.314L25.4824 40.6179L23.6552 38.5374L18.3073 43.2334Z" fill="white"/>
<path d="M20.7901 27.4069C18.6509 27.4069 16.9129 26.8273 16.8089 26.7828C16.4969 26.6787 16.3335 26.3369 16.4375 26.0249C16.5415 25.7128 16.8832 25.5493 17.1951 25.6533C17.2248 25.6682 20.8941 26.8719 23.8206 25.6682C24.1177 25.5493 24.4742 25.6831 24.593 25.9951C24.7119 26.2924 24.5782 26.649 24.2662 26.7679C23.1224 27.2583 21.9042 27.4069 20.7901 27.4069Z" fill="white"/>
<path d="M16.1223 40.1579C16.0332 40.1579 15.9441 40.143 15.8698 40.0984L12.5868 38.5083C12.2897 38.3597 12.1709 38.0031 12.3046 37.7207C12.4531 37.4235 12.8096 37.3046 13.0919 37.4384L16.3749 39.0285C16.672 39.1771 16.7908 39.5337 16.6571 39.8161C16.5532 40.039 16.3303 40.1579 16.1223 40.1579Z" fill="white"/>
<path d="M30.0456 22.2207C25.9604 22.2207 22.6328 18.8919 22.6328 14.8052C22.6328 10.7185 25.9604 7.38965 30.0456 7.38965C34.1308 7.38965 37.4583 10.7185 37.4583 14.8052C37.4583 18.8919 34.1308 22.2207 30.0456 22.2207ZM30.0456 8.56366C26.614 8.56366 23.8212 11.3575 23.8212 14.7903C23.8212 18.2232 26.614 21.017 30.0456 21.017C33.4771 21.017 36.2699 18.2232 36.2699 14.7903C36.2699 11.3575 33.4771 8.56366 30.0456 8.56366Z" fill="white"/>
<path d="M29.1975 17.2875C29.0341 17.2875 28.8855 17.2281 28.7815 17.1092L26.5087 14.8206C26.271 14.5829 26.2858 14.2113 26.5087 13.9736C26.7464 13.7358 27.1178 13.7507 27.3555 13.9736L29.2124 15.846L32.5548 12.5172C32.7925 12.2794 33.1638 12.2794 33.4015 12.5172C33.6392 12.755 33.6392 13.1265 33.4015 13.3643L29.6283 17.124C29.4946 17.2281 29.346 17.2875 29.1975 17.2875Z" fill="white"/>
</svg>
