<svg width="41" height="16" viewBox="0 0 41 16" fill="none" xmlns="http://www.w3.org/2000/svg">
<path d="M6.95237 14.7054C8.73393 14.7054 10.1782 13.2612 10.1782 11.4796C10.1782 9.69803 8.73393 8.25378 6.95237 8.25378C5.17081 8.25378 3.72656 9.69803 3.72656 11.4796C3.72656 13.2612 5.17081 14.7054 6.95237 14.7054Z" stroke="#1C1C1C" stroke-miterlimit="10" stroke-linecap="round" stroke-linejoin="round"/>
<path d="M30.1789 14.7054C31.9605 14.7054 33.4047 13.2612 33.4047 11.4796C33.4047 9.69803 31.9605 8.25378 30.1789 8.25378C28.3974 8.25378 26.9531 9.69803 26.9531 11.4796C26.9531 13.2612 28.3974 14.7054 30.1789 14.7054Z" stroke="#1C1C1C" stroke-miterlimit="10" stroke-linecap="round" stroke-linejoin="round"/>
<path d="M26.9539 12.1249H10.1797" stroke="#1C1C1C" stroke-miterlimit="10" stroke-linecap="round" stroke-linejoin="round"/>
<path d="M33.4032 12.1244H37.9194L39.8548 10.8341L39.2097 10.1889V8.25342L40.5 7.60826L40.2419 7.47922C37.0161 5.41471 32.629 4.38246 28.8871 4.38246C28.8871 4.38246 28.2419 3.47924 26.9516 2.57601C25.6613 1.67279 23.7258 0.640522 21.1452 0.51149C16.1129 0.253425 6.30645 4.38246 6.30645 4.38246H1.79032C1.01613 4.38246 0.5 5.02762 0.5 5.67278V10.8341L3.72581 11.4792" stroke="#1C1C1C" stroke-miterlimit="10" stroke-linecap="round" stroke-linejoin="round"/>
<path d="M35.3398 6.96472L37.2753 7.60988" stroke="#1C1C1C" stroke-miterlimit="10" stroke-linecap="round" stroke-linejoin="round"/>
<path d="M11.466 6.31817L6.30469 4.38269" stroke="#1C1C1C" stroke-miterlimit="10" stroke-linecap="round" stroke-linejoin="round"/>
<path d="M14.6953 7.60988L21.7921 9.41633C22.1792 9.54536 22.5663 9.41635 22.8243 9.15829L25.534 6.96472" stroke="#1C1C1C" stroke-miterlimit="10" stroke-linecap="round" stroke-linejoin="round"/>
<path d="M28.8881 4.38263H20.501C17.5333 4.38263 14.5655 3.73747 11.7268 2.57618L11.4688 2.44714" stroke="#1C1C1C" stroke-miterlimit="10" stroke-linecap="round" stroke-linejoin="round"/>
<path d="M0.5 8.25372H1.01612C2.17741 8.25372 3.33871 7.47953 3.72581 6.31824H0.5" stroke="#1C1C1C" stroke-miterlimit="10" stroke-linecap="round" stroke-linejoin="round"/>
</svg>
