<svg width="60" height="60" viewBox="0 0 60 60" fill="none" xmlns="http://www.w3.org/2000/svg">
<g clip-path="url(#clip0_13399_21744)">
<path d="M59.2163 48.4686H0.696662C0.313498 48.4686 0 48.1549 0 47.7716C0 47.3883 0.313498 47.0747 0.696662 47.0747H59.2163C59.5994 47.0747 59.9129 47.3883 59.9129 47.7716C59.9129 48.1549 59.5994 48.4686 59.2163 48.4686Z" fill="white"/>
<path d="M52.1611 20.644H51.3251C49.2874 20.644 47.6328 18.9888 47.6328 16.9503V15.2254C47.6328 13.1869 49.2874 11.5317 51.3251 11.5317H52.1611C54.1989 11.5317 55.8534 13.1869 55.8534 15.2254V16.9503C55.8534 18.9888 54.1989 20.644 52.1611 20.644ZM51.3425 12.943C50.0711 12.943 49.0435 13.971 49.0435 15.2428V16.9677C49.0435 18.2396 50.0711 19.2676 51.3425 19.2676H52.1785C53.4499 19.2676 54.4775 18.2396 54.4775 16.9677V15.2428C54.4775 13.971 53.4499 12.943 52.1785 12.943H51.3425Z" fill="white"/>
<path d="M47.5168 46.709C47.1336 46.709 46.8201 46.3954 46.8201 46.0121V27.3346C46.8201 27.021 46.5589 26.7596 46.2454 26.7596H39.9058C38.4776 26.7596 37.3281 25.5923 37.3281 24.181C37.3281 22.7523 38.495 21.585 39.9058 21.585H54.8143C57.6707 21.585 60.0045 23.9197 60.0045 26.777V32.0736C60.0045 34.1644 58.3151 35.8545 56.2251 35.8545C55.8419 35.8545 55.5284 35.5409 55.5284 35.1575C55.5284 34.7742 55.8419 34.4606 56.2251 34.4606C57.5487 34.4606 58.6111 33.3804 58.6111 32.0736V26.777C58.6111 24.6863 56.9043 22.9788 54.8143 22.9788H39.9058C39.2439 22.9788 38.7214 23.5189 38.7214 24.181C38.7214 24.8431 39.2613 25.3658 39.9058 25.3658H46.2454C47.3426 25.3658 48.2135 26.2543 48.2135 27.3346V46.0296C48.2135 46.3954 47.9 46.709 47.5168 46.709Z" fill="white"/>
<path d="M56.2045 46.7087C55.8213 46.7087 55.5078 46.3951 55.5078 46.0118V28.2228C55.5078 27.8395 55.8213 27.5259 56.2045 27.5259C56.5876 27.5259 56.9011 27.8395 56.9011 28.2228V46.0118C56.9011 46.3951 56.5876 46.7087 56.2045 46.7087Z" fill="white"/>
<path d="M51.7435 46.7088C51.3604 46.7088 51.0469 46.3952 51.0469 46.0119V37.7882C51.0469 37.4049 51.3604 37.0913 51.7435 37.0913C52.1267 37.0913 52.4402 37.4049 52.4402 37.7882V46.0119C52.4402 46.3952 52.1267 46.7088 51.7435 46.7088Z" fill="white"/>
<path d="M31.8326 39.8786C30.0038 39.8786 28.5234 38.3976 28.5234 36.5682C28.5234 34.7388 30.0038 33.2578 31.8326 33.2578C33.6613 33.2578 35.1417 34.7388 35.1417 36.5682C35.1417 38.3976 33.6613 39.8786 31.8326 39.8786ZM31.8326 34.6691C30.7702 34.6691 29.9168 35.5228 29.9168 36.5856C29.9168 37.6484 30.7702 38.5022 31.8326 38.5022C32.895 38.5022 33.7484 37.6484 33.7484 36.5856C33.7484 35.5228 32.895 34.6691 31.8326 34.6691Z" fill="white"/>
<path d="M7.87164 39.8786C6.04291 39.8786 4.5625 38.3976 4.5625 36.5682C4.5625 34.7388 6.04291 33.2578 7.87164 33.2578C9.70038 33.2578 11.1808 34.7388 11.1808 36.5682C11.1634 38.3976 9.68296 39.8786 7.87164 39.8786ZM7.87164 34.6691C6.80923 34.6691 5.95582 35.5228 5.95582 36.5856C5.95582 37.6484 6.80923 38.5022 7.87164 38.5022C8.93405 38.5022 9.78746 37.6484 9.78746 36.5856C9.77005 35.5228 8.91664 34.6691 7.87164 34.6691Z" fill="white"/>
<path d="M26.2483 38.5372H13.4646C12.9943 38.5372 12.5938 38.1539 12.5938 37.6661V35.4708C12.5938 35.0003 12.9769 34.5996 13.4646 34.5996H26.2483C26.7186 34.5996 27.1192 34.9829 27.1192 35.4708V37.6661C27.1192 38.1539 26.7186 38.5372 26.2483 38.5372ZM13.9871 37.1434H25.7258V35.9935H13.9871V37.1434Z" fill="white"/>
<path d="M20.0602 29.3206H5.13416C4.751 29.3206 4.4375 29.007 4.4375 28.6237C4.4375 28.2404 4.751 27.9268 5.13416 27.9268H20.0602C20.4433 27.9268 20.7568 28.2404 20.7568 28.6237C20.7568 29.007 20.4433 29.3206 20.0602 29.3206Z" fill="white"/>
<path d="M35.5511 43.6769H4.16653C2.68612 43.6769 1.48438 42.4573 1.48438 40.9763V36.0804C1.48438 33.6412 2.32037 31.2542 3.8182 29.3377L4.58453 28.3794C5.08961 27.7347 5.49018 27.0204 5.76884 26.2364C5.76884 26.2189 5.78627 26.1841 5.80369 26.1667L7.94591 21.7064C8.7819 19.964 10.5758 18.8315 12.4916 18.8315H27.226C29.1419 18.8315 30.9358 19.964 31.7718 21.7064L33.914 26.1667C33.9314 26.1841 33.9314 26.2189 33.9488 26.2364C34.2275 27.0204 34.6281 27.7522 35.1332 28.3794L35.8995 29.3377C37.4147 31.2542 38.2333 33.6412 38.2333 36.0804V40.9763C38.2333 42.4573 37.0315 43.6769 35.5511 43.6769ZM20.0678 42.283H35.5511C36.2652 42.283 36.84 41.6906 36.84 40.9763V36.0804C36.84 33.9548 36.1085 31.864 34.8022 30.2088L34.0359 29.2506C33.4437 28.5014 32.9735 27.6476 32.6426 26.7416L30.5178 22.3162C29.9082 21.0443 28.6194 20.2254 27.226 20.2254H12.4916C11.0983 20.2254 9.80949 21.0443 9.19991 22.3162L7.07508 26.7416C6.74417 27.665 6.29134 28.5014 5.68176 29.2506L4.91545 30.2088C3.59179 31.8814 2.8777 33.9548 2.8777 36.0804V40.9763C2.8777 41.7081 3.45245 42.283 4.16653 42.283H20.0678Z" fill="white"/>
<path d="M34.446 29.3206H19.642C19.2588 29.3206 18.9453 29.007 18.9453 28.6237C18.9453 28.2404 19.2588 27.9268 19.642 27.9268H34.446C34.8292 27.9268 35.1427 28.2404 35.1427 28.6237C35.1427 29.007 34.8292 29.3206 34.446 29.3206Z" fill="white"/>
<path d="M5.46229 46.7086C5.07912 46.7086 4.76562 46.395 4.76562 46.0117V42.9801C4.76562 42.5968 5.07912 42.2832 5.46229 42.2832C5.84545 42.2832 6.15895 42.5968 6.15895 42.9801V46.0117C6.15895 46.395 5.84545 46.7086 5.46229 46.7086Z" fill="white"/>
<path d="M12.8685 46.7086C12.4854 46.7086 12.1719 46.395 12.1719 46.0117V42.9801C12.1719 42.5968 12.4854 42.2832 12.8685 42.2832C13.2517 42.2832 13.5652 42.5968 13.5652 42.9801V46.0117C13.5652 46.395 13.2517 46.7086 12.8685 46.7086Z" fill="white"/>
<path d="M26.8373 46.7086C26.4541 46.7086 26.1406 46.395 26.1406 46.0117V42.9801C26.1406 42.5968 26.4541 42.2832 26.8373 42.2832C27.2205 42.2832 27.5339 42.5968 27.5339 42.9801V46.0117C27.5339 46.395 27.2205 46.7086 26.8373 46.7086Z" fill="white"/>
<path d="M34.2357 46.7086C33.8526 46.7086 33.5391 46.395 33.5391 46.0117V42.9801C33.5391 42.5968 33.8526 42.2832 34.2357 42.2832C34.6189 42.2832 34.9324 42.5968 34.9324 42.9801V46.0117C34.9324 46.395 34.6189 46.7086 34.2357 46.7086Z" fill="white"/>
<path d="M3.70788 31.4115C3.5163 31.4115 3.32472 31.3418 3.18538 31.185L1.39147 29.1814C1.04314 28.7981 0.851562 28.3102 0.851562 27.8049C0.851562 26.6724 1.77465 25.749 2.90672 25.749H6.40744C6.79061 25.749 7.10411 26.0626 7.10411 26.4459C7.10411 26.8293 6.79061 27.1429 6.40744 27.1429H2.90672C2.54098 27.1429 2.24489 27.439 2.24489 27.8049C2.24489 27.9617 2.31455 28.1185 2.41905 28.2405L4.21296 30.2442C4.47421 30.5229 4.43937 30.976 4.16071 31.2199C4.03879 31.3418 3.86463 31.4115 3.70788 31.4115Z" fill="white"/>
<path d="M35.9996 31.4112C35.8254 31.4112 35.6687 31.3589 35.5293 31.237C35.2507 30.9756 35.2159 30.54 35.4771 30.2613L37.271 28.2576C37.3929 28.1357 37.4452 27.9789 37.4452 27.822C37.4452 27.4562 37.1491 27.16 36.7833 27.16H33.2826C32.8994 27.16 32.5859 26.8463 32.5859 26.463C32.5859 26.0797 32.8994 25.7661 33.2826 25.7661H36.7833C37.9154 25.7661 38.8385 26.6895 38.8385 27.822C38.8385 28.3273 38.6469 28.8151 38.2986 29.1985L36.5047 31.2021C36.3827 31.3241 36.1912 31.4112 35.9996 31.4112Z" fill="white"/>
</g>
<defs>
<clipPath id="clip0_13399_21744">
<rect width="60" height="60" fill="white"/>
</clipPath>
</defs>
</svg>
