<svg width="13" height="17" viewBox="0 0 13 17" fill="none" xmlns="http://www.w3.org/2000/svg">
<path fill-rule="evenodd" clip-rule="evenodd" d="M6.40781 3.71076C7.30791 3.78688 8.20801 3.25405 8.77057 2.5785C9.32376 1.88392 9.68943 0.951477 9.59567 0C8.7987 0.0380591 7.81422 0.532827 7.25165 1.2274C6.73597 1.82684 6.29529 2.79734 6.40781 3.71076ZM7.48524 4.36638C8.06968 4.13349 8.79323 3.84517 9.5862 3.89149C10.0925 3.92955 11.5552 4.08178 12.4928 5.48997C12.4885 5.49324 12.479 5.49952 12.4648 5.50884C12.2329 5.66192 10.7593 6.63438 10.777 8.55372C10.7946 10.8404 12.6301 11.6931 12.8703 11.8047C12.8859 11.812 12.8948 11.8161 12.896 11.8173C12.8949 11.8204 12.8931 11.8265 12.8903 11.8355C12.8424 11.9928 12.5267 13.0293 11.8083 14.0913C11.1426 15.0808 10.4582 16.0513 9.37055 16.0704C8.85873 16.0797 8.51395 15.9284 8.15493 15.771C7.77735 15.6054 7.38401 15.4329 6.76401 15.4329C6.12175 15.4329 5.71042 15.61 5.31447 15.7805C4.97054 15.9286 4.63821 16.0717 4.17622 16.0894C3.1261 16.1275 2.32914 15.0428 1.66344 14.0532C0.30391 12.0552 -0.736832 8.42051 0.669576 5.9657C1.35403 4.7383 2.60104 3.9676 3.94182 3.94858C4.52677 3.93778 5.08457 4.16266 5.57247 4.35935C5.94482 4.50946 6.27645 4.64315 6.54836 4.64315C6.79066 4.64315 7.10915 4.51624 7.48524 4.36638Z" fill="#1C1C1C"/>
</svg>
