<svg width="20" height="20" viewBox="0 0 20 20" fill="none" xmlns="http://www.w3.org/2000/svg">
<g clip-path="url(#clip0_14901_19161)">
<path d="M3 8.75V12.75" stroke="#9FA1A4" stroke-linecap="round" stroke-linejoin="round"/>
<path d="M8.25 4H12.25" stroke="#9FA1A4" stroke-linecap="round" stroke-linejoin="round"/>
<path d="M16 13L13.6462 15.3538C13.5526 15.4473 13.4256 15.4999 13.2931 15.5H8.45687C8.32444 15.4999 8.19745 15.4473 8.10375 15.3538L5.64625 12.8962C5.55266 12.8026 5.50006 12.6756 5.5 12.5431V7C5.5 6.86739 5.55268 6.74021 5.64645 6.64645C5.74021 6.55268 5.86739 6.5 6 6.5H13.2931C13.4256 6.50006 13.5526 6.55266 13.6462 6.64625L16 9H17C17.1326 9 17.2598 9.05268 17.3536 9.14645C17.4473 9.24021 17.5 9.36739 17.5 9.5V12.5C17.5 12.6326 17.4473 12.7598 17.3536 12.8536C17.2598 12.9473 17.1326 13 17 13H16Z" stroke="#9FA1A4" stroke-linecap="round" stroke-linejoin="round"/>
<path d="M3 10.75H5.5" stroke="#9FA1A4" stroke-linecap="round" stroke-linejoin="round"/>
<path d="M10.25 4V6.5" stroke="#9FA1A4" stroke-linecap="round" stroke-linejoin="round"/>
</g>
<defs>
<clipPath id="clip0_14901_19161">
<rect width="16" height="16" fill="white" transform="translate(2 2)"/>
</clipPath>
</defs>
</svg>
