<svg width="28" height="28" viewBox="0 0 28 28" fill="none" xmlns="http://www.w3.org/2000/svg">
<path d="M25.1562 5.25V9.625C25.1562 9.79905 25.0871 9.96597 24.964 10.089C24.841 10.2121 24.674 10.2812 24.5 10.2812C24.326 10.2812 24.159 10.2121 24.036 10.089C23.9129 9.96597 23.8438 9.79905 23.8438 9.625V5.90625H20.125C19.951 5.90625 19.784 5.83711 19.661 5.71404C19.5379 5.59097 19.4688 5.42405 19.4688 5.25C19.4688 5.07595 19.5379 4.90903 19.661 4.78596C19.784 4.66289 19.951 4.59375 20.125 4.59375H24.5C24.674 4.59375 24.841 4.66289 24.964 4.78596C25.0871 4.90903 25.1562 5.07595 25.1562 5.25ZM7.875 22.0938H4.15625V18.375C4.15625 18.201 4.08711 18.034 3.96404 17.911C3.84097 17.7879 3.67405 17.7188 3.5 17.7188C3.32595 17.7188 3.15903 17.7879 3.03596 17.911C2.91289 18.034 2.84375 18.201 2.84375 18.375V22.75C2.84375 22.924 2.91289 23.091 3.03596 23.214C3.15903 23.3371 3.32595 23.4062 3.5 23.4062H7.875C8.04905 23.4062 8.21597 23.3371 8.33904 23.214C8.46211 23.091 8.53125 22.924 8.53125 22.75C8.53125 22.576 8.46211 22.409 8.33904 22.286C8.21597 22.1629 8.04905 22.0938 7.875 22.0938ZM24.5 17.7188C24.326 17.7188 24.159 17.7879 24.036 17.911C23.9129 18.034 23.8438 18.201 23.8438 18.375V22.0938H20.125C19.951 22.0938 19.784 22.1629 19.661 22.286C19.5379 22.409 19.4688 22.576 19.4688 22.75C19.4688 22.924 19.5379 23.091 19.661 23.214C19.784 23.3371 19.951 23.4062 20.125 23.4062H24.5C24.674 23.4062 24.841 23.3371 24.964 23.214C25.0871 23.091 25.1562 22.924 25.1562 22.75V18.375C25.1562 18.201 25.0871 18.034 24.964 17.911C24.841 17.7879 24.674 17.7188 24.5 17.7188ZM3.5 10.2812C3.67405 10.2812 3.84097 10.2121 3.96404 10.089C4.08711 9.96597 4.15625 9.79905 4.15625 9.625V5.90625H7.875C8.04905 5.90625 8.21597 5.83711 8.33904 5.71404C8.46211 5.59097 8.53125 5.42405 8.53125 5.25C8.53125 5.07595 8.46211 4.90903 8.33904 4.78596C8.21597 4.66289 8.04905 4.59375 7.875 4.59375H3.5C3.32595 4.59375 3.15903 4.66289 3.03596 4.78596C2.91289 4.90903 2.84375 5.07595 2.84375 5.25V9.625C2.84375 9.79905 2.91289 9.96597 3.03596 10.089C3.15903 10.2121 3.32595 10.2812 3.5 10.2812ZM8.75 8.96875C8.57595 8.96875 8.40903 9.03789 8.28596 9.16096C8.16289 9.28403 8.09375 9.45095 8.09375 9.625V18.375C8.09375 18.549 8.16289 18.716 8.28596 18.839C8.40903 18.9621 8.57595 19.0312 8.75 19.0312C8.92405 19.0312 9.09097 18.9621 9.21404 18.839C9.33711 18.716 9.40625 18.549 9.40625 18.375V9.625C9.40625 9.45095 9.33711 9.28403 9.21404 9.16096C9.09097 9.03789 8.92405 8.96875 8.75 8.96875ZM19.9062 18.375V9.625C19.9062 9.45095 19.8371 9.28403 19.714 9.16096C19.591 9.03789 19.424 8.96875 19.25 8.96875C19.076 8.96875 18.909 9.03789 18.786 9.16096C18.6629 9.28403 18.5938 9.45095 18.5938 9.625V18.375C18.5938 18.549 18.6629 18.716 18.786 18.839C18.909 18.9621 19.076 19.0312 19.25 19.0312C19.424 19.0312 19.591 18.9621 19.714 18.839C19.8371 18.716 19.9062 18.549 19.9062 18.375ZM15.75 8.96875C15.576 8.96875 15.409 9.03789 15.286 9.16096C15.1629 9.28403 15.0938 9.45095 15.0938 9.625V18.375C15.0938 18.549 15.1629 18.716 15.286 18.839C15.409 18.9621 15.576 19.0312 15.75 19.0312C15.924 19.0312 16.091 18.9621 16.214 18.839C16.3371 18.716 16.4062 18.549 16.4062 18.375V9.625C16.4062 9.45095 16.3371 9.28403 16.214 9.16096C16.091 9.03789 15.924 8.96875 15.75 8.96875ZM12.25 8.96875C12.076 8.96875 11.909 9.03789 11.786 9.16096C11.6629 9.28403 11.5938 9.45095 11.5938 9.625V18.375C11.5938 18.549 11.6629 18.716 11.786 18.839C11.909 18.9621 12.076 19.0312 12.25 19.0312C12.424 19.0312 12.591 18.9621 12.714 18.839C12.8371 18.716 12.9062 18.549 12.9062 18.375V9.625C12.9062 9.45095 12.8371 9.28403 12.714 9.16096C12.591 9.03789 12.424 8.96875 12.25 8.96875Z" fill="#1C1C1C"/>
</svg>
