<svg width="20" height="20" viewBox="0 0 20 20" fill="none" xmlns="http://www.w3.org/2000/svg">
<path d="M10.9375 9.99996C10.9375 10.1854 10.8825 10.3666 10.7795 10.5208C10.6765 10.675 10.5301 10.7951 10.3588 10.8661C10.1875 10.9371 9.99896 10.9556 9.8171 10.9194C9.63525 10.8833 9.4682 10.794 9.33709 10.6629C9.20598 10.5318 9.11669 10.3647 9.08051 10.1829C9.04434 10.001 9.06291 9.8125 9.13386 9.6412C9.20482 9.46989 9.32498 9.32347 9.47915 9.22046C9.63332 9.11745 9.81458 9.06246 10 9.06246C10.2486 9.06246 10.4871 9.16124 10.6629 9.33705C10.8387 9.51287 10.9375 9.75132 10.9375 9.99996ZM6.5625 9.06246C6.37708 9.06246 6.19582 9.11745 6.04165 9.22046C5.88748 9.32347 5.76732 9.46989 5.69636 9.6412C5.62541 9.8125 5.60684 10.001 5.64301 10.1829C5.67919 10.3647 5.76848 10.5318 5.89959 10.6629C6.0307 10.794 6.19774 10.8833 6.3796 10.9194C6.56146 10.9556 6.74996 10.9371 6.92127 10.8661C7.09257 10.7951 7.23899 10.675 7.342 10.5208C7.44502 10.3666 7.5 10.1854 7.5 9.99996C7.5 9.75132 7.40123 9.51287 7.22541 9.33705C7.0496 9.16124 6.81114 9.06246 6.5625 9.06246ZM13.4375 9.06246C13.2521 9.06246 13.0708 9.11745 12.9167 9.22046C12.7625 9.32347 12.6423 9.46989 12.5714 9.6412C12.5004 9.8125 12.4818 10.001 12.518 10.1829C12.5542 10.3647 12.6435 10.5318 12.7746 10.6629C12.9057 10.794 13.0727 10.8833 13.2546 10.9194C13.4365 10.9556 13.625 10.9371 13.7963 10.8661C13.9676 10.7951 14.114 10.675 14.217 10.5208C14.32 10.3666 14.375 10.1854 14.375 9.99996C14.375 9.75132 14.2762 9.51287 14.1004 9.33705C13.9246 9.16124 13.6861 9.06246 13.4375 9.06246ZM18.125 9.99996C18.1253 11.4027 17.7624 12.7817 17.0717 14.0026C16.381 15.2235 15.3859 16.2448 14.1834 16.967C12.9808 17.6893 11.6118 18.0879 10.2095 18.124C8.80719 18.1602 7.41942 17.8327 6.18125 17.1734L3.52109 18.0601C3.30085 18.1336 3.0645 18.1442 2.83854 18.0909C2.61257 18.0376 2.40593 17.9224 2.24176 17.7582C2.07759 17.594 1.96239 17.3874 1.90906 17.1614C1.85573 16.9355 1.86639 16.6991 1.93984 16.4789L2.82656 13.8187C2.24699 12.729 1.92328 11.5217 1.88 10.2882C1.83672 9.05477 2.075 7.82767 2.57677 6.70007C3.07854 5.57246 3.8306 4.57398 4.77587 3.78043C5.72114 2.98687 6.83477 2.41909 8.03224 2.12018C9.22971 1.82127 10.4795 1.79909 11.6868 2.05533C12.8942 2.31157 14.0272 2.83948 15.0001 3.599C15.9729 4.35852 16.7599 5.32969 17.3014 6.43879C17.8428 7.54788 18.1245 8.76576 18.125 9.99996ZM16.875 9.99996C16.8747 8.94537 16.6318 7.90499 16.1651 6.95929C15.6983 6.0136 15.0203 5.18796 14.1834 4.54624C13.3466 3.90452 12.3733 3.46393 11.3389 3.25855C10.3045 3.05317 9.23671 3.08851 8.21815 3.36184C7.1996 3.63516 6.25757 4.13915 5.46496 4.8348C4.67235 5.53045 4.0504 6.39912 3.64724 7.37361C3.24407 8.34809 3.07048 9.40226 3.13992 10.4546C3.20935 11.5069 3.51994 12.5291 4.04766 13.4422C4.09195 13.5188 4.11945 13.604 4.12834 13.6921C4.13723 13.7802 4.1273 13.8691 4.09922 13.9531L3.125 16.875L6.04688 15.9007C6.11052 15.879 6.17729 15.868 6.24453 15.8679C6.3543 15.8681 6.46208 15.8972 6.55703 15.9523C7.60219 16.557 8.78817 16.8758 9.99566 16.8765C11.2031 16.8773 12.3895 16.56 13.4354 15.9567C14.4814 15.3533 15.3499 14.4851 15.9537 13.4394C16.5575 12.3937 16.8753 11.2074 16.875 9.99996Z" fill="white"/>
</svg>
