<svg width="20" height="20" viewBox="0 0 20 20" fill="none" xmlns="http://www.w3.org/2000/svg">
<path d="M18.1657 6.28815L8.16569 16.2882C8.07859 16.3756 7.9751 16.4449 7.86114 16.4922C7.74719 16.5395 7.62501 16.5639 7.50163 16.5639C7.37824 16.5639 7.25606 16.5395 7.14211 16.4922C7.02815 16.4449 6.92466 16.3756 6.83756 16.2882L2.46256 11.9132C2.37536 11.8259 2.30618 11.7224 2.25899 11.6085C2.21179 11.4945 2.1875 11.3724 2.1875 11.2491C2.1875 11.1258 2.21179 11.0036 2.25899 10.8897C2.30618 10.7758 2.37536 10.6722 2.46256 10.585C2.54977 10.4978 2.6533 10.4286 2.76724 10.3814C2.88118 10.3343 3.0033 10.31 3.12663 10.31C3.24995 10.31 3.37207 10.3343 3.48601 10.3814C3.59995 10.4286 3.70348 10.4978 3.79069 10.585L7.50241 14.2967L16.8391 4.96159C17.0152 4.78547 17.2541 4.68652 17.5032 4.68652C17.7523 4.68652 17.9911 4.78547 18.1673 4.96159C18.3434 5.13771 18.4423 5.37658 18.4423 5.62565C18.4423 5.87472 18.3434 6.11359 18.1673 6.28971L18.1657 6.28815Z" fill="#98BC2A"/>
</svg>
