<svg width="20" height="22" viewBox="0 0 20 22" fill="none" xmlns="http://www.w3.org/2000/svg">
<path d="M18.1637 8.28913L8.16374 18.2891C8.07664 18.3765 7.97315 18.4459 7.85919 18.4932C7.74524 18.5405 7.62306 18.5649 7.49967 18.5649C7.37629 18.5649 7.25411 18.5405 7.14016 18.4932C7.0262 18.4459 6.92271 18.3765 6.83561 18.2891L2.46061 13.9141C2.3734 13.8269 2.30423 13.7234 2.25703 13.6095C2.20984 13.4955 2.18555 13.3734 2.18555 13.2501C2.18555 13.1267 2.20984 13.0046 2.25703 12.8907C2.30423 12.7767 2.3734 12.6732 2.46061 12.586C2.54782 12.4988 2.65134 12.4296 2.76528 12.3824C2.87923 12.3352 3.00135 12.3109 3.12467 12.3109C3.248 12.3109 3.37012 12.3352 3.48406 12.3824C3.598 12.4296 3.70153 12.4988 3.78874 12.586L7.50045 16.2977L16.8372 6.96256C17.0133 6.78644 17.2522 6.6875 17.5012 6.6875C17.7503 6.6875 17.9892 6.78644 18.1653 6.96256C18.3414 7.13868 18.4404 7.37755 18.4404 7.62663C18.4404 7.8757 18.3414 8.11457 18.1653 8.29069L18.1637 8.28913Z" fill="#98BC2A"/>
</svg>
