<svg width="15" height="15" viewBox="0 0 15 15" fill="none" xmlns="http://www.w3.org/2000/svg">
<path d="M13.5938 0H1.09375C0.803669 0 0.52547 0.115234 0.320352 0.320352C0.115234 0.52547 0 0.803669 0 1.09375V13.5938C0 13.8838 0.115234 14.162 0.320352 14.3671C0.52547 14.5723 0.803669 14.6875 1.09375 14.6875H13.5938C13.8838 14.6875 14.162 14.5723 14.3671 14.3671C14.5723 14.162 14.6875 13.8838 14.6875 13.5938V1.09375C14.6875 0.803669 14.5723 0.52547 14.3671 0.320352C14.162 0.115234 13.8838 0 13.5938 0ZM13.75 13.5938C13.75 13.6352 13.7335 13.6749 13.7042 13.7042C13.6749 13.7335 13.6352 13.75 13.5938 13.75H1.09375C1.05231 13.75 1.01257 13.7335 0.983264 13.7042C0.953962 13.6749 0.9375 13.6352 0.9375 13.5938V1.09375C0.9375 1.05231 0.953962 1.01257 0.983264 0.983264C1.01257 0.953962 1.05231 0.9375 1.09375 0.9375H13.5938C13.6352 0.9375 13.6749 0.953962 13.7042 0.983264C13.7335 1.01257 13.75 1.05231 13.75 1.09375V13.5938Z" fill="#9FA1A4"/>
</svg>
