<svg width="15" height="15" viewBox="0 0 15 15" fill="none" xmlns="http://www.w3.org/2000/svg">
<path d="M11.0672 5.18281C11.1253 5.24086 11.1714 5.30979 11.2029 5.38566C11.2343 5.46154 11.2505 5.54287 11.2505 5.625C11.2505 5.70713 11.2343 5.78846 11.2029 5.86434C11.1714 5.94021 11.1253 6.00914 11.0672 6.06719L6.69219 10.4422C6.63414 10.5003 6.56521 10.5464 6.48934 10.5779C6.41346 10.6093 6.33213 10.6255 6.25 10.6255C6.16787 10.6255 6.08654 10.6093 6.01066 10.5779C5.93479 10.5464 5.86586 10.5003 5.80781 10.4422L3.93281 8.56719C3.81554 8.44991 3.74965 8.29085 3.74965 8.125C3.74965 7.95915 3.81554 7.80009 3.93281 7.68281C4.05009 7.56554 4.20915 7.49965 4.375 7.49965C4.54085 7.49965 4.69991 7.56554 4.81719 7.68281L6.25 9.11641L10.1828 5.18281C10.2409 5.1247 10.3098 5.0786 10.3857 5.04715C10.4615 5.0157 10.5429 4.99951 10.625 4.99951C10.7071 4.99951 10.7885 5.0157 10.8643 5.04715C10.9402 5.0786 11.0091 5.1247 11.0672 5.18281ZM15 1.25V13.75C15 14.0815 14.8683 14.3995 14.6339 14.6339C14.3995 14.8683 14.0815 15 13.75 15H1.25C0.918479 15 0.600537 14.8683 0.366116 14.6339C0.131696 14.3995 0 14.0815 0 13.75V1.25C0 0.918479 0.131696 0.600537 0.366116 0.366116C0.600537 0.131696 0.918479 0 1.25 0H13.75C14.0815 0 14.3995 0.131696 14.6339 0.366116C14.8683 0.600537 15 0.918479 15 1.25ZM13.75 13.75V1.25H1.25V13.75H13.75Z" fill="#1C1C1C"/>
</svg>
