<svg width="40" height="40" viewBox="0 0 40 40" fill="none" xmlns="http://www.w3.org/2000/svg">
<rect width="40" height="40" rx="20" fill="#E7E7E7"/>
<path d="M21.4118 20L27.6952 13.7167C27.7905 13.6245 27.8666 13.5144 27.9189 13.3926C27.9713 13.2707 27.9988 13.1397 28 13.0071C28.0011 12.8746 27.9759 12.7431 27.9256 12.6204C27.8754 12.4977 27.8013 12.3862 27.7076 12.2924C27.6138 12.1987 27.5023 12.1246 27.3796 12.0744C27.2569 12.0241 27.1254 11.9989 26.9929 12C26.8603 12.0012 26.7293 12.0287 26.6074 12.0811C26.4856 12.1334 26.3755 12.2095 26.2833 12.3048L20 18.5882L13.7167 12.3048C13.5283 12.1229 13.2761 12.0223 13.0143 12.0246C12.7525 12.0269 12.5021 12.1319 12.317 12.317C12.1319 12.5021 12.0269 12.7525 12.0246 13.0143C12.0223 13.2761 12.1229 13.5283 12.3048 13.7167L18.5882 20L12.3048 26.2833C12.2095 26.3755 12.1334 26.4856 12.0811 26.6074C12.0287 26.7293 12.0012 26.8603 12 26.9929C11.9989 27.1254 12.0241 27.2569 12.0744 27.3796C12.1246 27.5023 12.1987 27.6138 12.2924 27.7076C12.3862 27.8013 12.4977 27.8754 12.6204 27.9256C12.7431 27.9759 12.8746 28.0011 13.0071 28C13.1397 27.9988 13.2707 27.9713 13.3926 27.9189C13.5144 27.8666 13.6245 27.7905 13.7167 27.6952L20 21.4118L26.2833 27.6952C26.4226 27.8358 26.6006 27.9317 26.7945 27.9708C26.9885 28.0098 27.1898 27.9902 27.3726 27.9145C27.5554 27.8388 27.7115 27.7104 27.8211 27.5456C27.9306 27.3808 27.9886 27.1871 27.9877 26.9893C27.9878 26.8581 27.9619 26.7283 27.9117 26.6072C27.8615 26.4861 27.7879 26.376 27.6952 26.2833L21.4118 20Z" fill="#1C1C1C"/>
</svg>
