<svg width="40" height="40" viewBox="0 0 40 40" fill="none" xmlns="http://www.w3.org/2000/svg">
<path d="M38.6316 10.8248L28.4411 0.235781C28.296 0.0851562 28.0959 0 27.8868 0H12.6985C10.9988 0 9.61586 1.38234 9.61586 3.08141V13.8462H3.46062C2.18891 13.8462 1.1543 14.8805 1.1543 16.1519V27.6944C1.1543 28.9657 2.18891 30 3.46062 30H9.61586V36.924C9.61586 38.6201 10.9988 40 12.6985 40H35.764C37.4637 40 38.8466 38.6209 38.8466 36.9257V11.3582C38.8466 11.1593 38.7695 10.9681 38.6316 10.8248ZM28.0774 2.07664L36.443 10.7692H28.0774V2.07664ZM3.46062 28.4616C3.03719 28.4616 2.69281 28.1174 2.69281 27.6944V16.1519C2.69281 15.7288 3.03727 15.3846 3.46062 15.3846H24.2327C24.6561 15.3846 25.0005 15.7288 25.0005 16.1519V27.6944C25.0005 28.1174 24.656 28.4616 24.2327 28.4616H3.46062ZM37.3081 36.9257C37.3081 37.7726 36.6154 38.4616 35.7639 38.4616H12.6985C11.847 38.4616 11.1543 37.7719 11.1543 36.9241V30H24.2327C25.5044 30 26.539 28.9657 26.539 27.6944V16.1519C26.539 14.8805 25.5044 13.8462 24.2327 13.8462H11.1543V3.08141C11.1543 2.23055 11.847 1.53844 12.6985 1.53844H26.5389V11.5384C26.5389 11.9633 26.8834 12.3077 27.3081 12.3077H37.3081V36.9257Z" fill="#1C1C1C"/>
<path d="M4.71289 26.0008V18.5508H7.14289C7.92956 18.5508 8.61289 18.7108 9.19289 19.0308C9.77956 19.3441 10.2329 19.7808 10.5529 20.3408C10.8729 20.8941 11.0329 21.5374 11.0329 22.2708C11.0329 22.9974 10.8729 23.6441 10.5529 24.2108C10.2329 24.7708 9.77956 25.2108 9.19289 25.5308C8.61289 25.8441 7.92956 26.0008 7.14289 26.0008H4.71289ZM6.07289 24.8008H7.17289C7.67956 24.8008 8.11622 24.6974 8.48289 24.4908C8.85622 24.2774 9.14622 23.9841 9.35289 23.6108C9.55956 23.2308 9.66289 22.7841 9.66289 22.2708C9.66289 21.7508 9.55956 21.3041 9.35289 20.9308C9.14622 20.5574 8.85622 20.2674 8.48289 20.0608C8.11622 19.8541 7.67956 19.7508 7.17289 19.7508H6.07289V24.8008Z" fill="#1C1C1C"/>
<path d="M14.6652 26.1208C14.1319 26.1208 13.6452 25.9974 13.2052 25.7508C12.7719 25.5041 12.4252 25.1674 12.1652 24.7408C11.9119 24.3141 11.7852 23.8274 11.7852 23.2808C11.7852 22.7341 11.9119 22.2474 12.1652 21.8208C12.4252 21.3941 12.7719 21.0574 13.2052 20.8108C13.6386 20.5641 14.1252 20.4408 14.6652 20.4408C15.1986 20.4408 15.6819 20.5641 16.1152 20.8108C16.5486 21.0574 16.8919 21.3941 17.1452 21.8208C17.4052 22.2408 17.5352 22.7274 17.5352 23.2808C17.5352 23.8274 17.4052 24.3141 17.1452 24.7408C16.8852 25.1674 16.5386 25.5041 16.1052 25.7508C15.6719 25.9974 15.1919 26.1208 14.6652 26.1208ZM14.6652 24.9208C14.9586 24.9208 15.2152 24.8508 15.4352 24.7108C15.6619 24.5708 15.8386 24.3774 15.9652 24.1308C16.0986 23.8774 16.1652 23.5941 16.1652 23.2808C16.1652 22.9608 16.0986 22.6808 15.9652 22.4408C15.8386 22.1941 15.6619 22.0008 15.4352 21.8608C15.2152 21.7141 14.9586 21.6408 14.6652 21.6408C14.3652 21.6408 14.1019 21.7141 13.8752 21.8608C13.6486 22.0008 13.4686 22.1941 13.3352 22.4408C13.2086 22.6808 13.1452 22.9608 13.1452 23.2808C13.1452 23.5941 13.2086 23.8774 13.3352 24.1308C13.4686 24.3774 13.6486 24.5708 13.8752 24.7108C14.1019 24.8508 14.3652 24.9208 14.6652 24.9208Z" fill="#1C1C1C"/>
<path d="M21.1487 26.1208C20.6087 26.1208 20.122 25.9974 19.6887 25.7508C19.262 25.4974 18.9253 25.1574 18.6787 24.7308C18.432 24.2974 18.3087 23.8108 18.3087 23.2708C18.3087 22.7308 18.432 22.2474 18.6787 21.8208C18.9253 21.3941 19.262 21.0574 19.6887 20.8108C20.122 20.5641 20.6087 20.4408 21.1487 20.4408C21.5353 20.4408 21.8953 20.5108 22.2287 20.6508C22.562 20.7841 22.8487 20.9708 23.0887 21.2108C23.3353 21.4441 23.512 21.7241 23.6187 22.0508L22.4687 22.5508C22.3687 22.2774 22.1987 22.0574 21.9587 21.8908C21.7253 21.7241 21.4553 21.6408 21.1487 21.6408C20.862 21.6408 20.6053 21.7108 20.3787 21.8508C20.1587 21.9908 19.9853 22.1841 19.8587 22.4308C19.732 22.6774 19.6687 22.9608 19.6687 23.2808C19.6687 23.6008 19.732 23.8841 19.8587 24.1308C19.9853 24.3774 20.1587 24.5708 20.3787 24.7108C20.6053 24.8508 20.862 24.9208 21.1487 24.9208C21.462 24.9208 21.7353 24.8374 21.9687 24.6708C22.202 24.5041 22.3687 24.2808 22.4687 24.0008L23.6187 24.5208C23.512 24.8274 23.3387 25.1041 23.0987 25.3508C22.8587 25.5908 22.572 25.7808 22.2387 25.9208C21.9053 26.0541 21.542 26.1208 21.1487 26.1208Z" fill="#1C1C1C"/>
</svg>
