<svg width="28" height="28" viewBox="0 0 28 28" fill="none" xmlns="http://www.w3.org/2000/svg">
<path d="M25.0729 11.3092C25.0235 11.2084 24.9468 11.1234 24.8516 11.064C24.7564 11.0046 24.6464 10.973 24.5341 10.973H22.389C22.2299 10.973 22.0773 11.0362 21.9647 11.1487C21.8522 11.2612 21.789 11.4139 21.789 11.573V12.844H20.9353V11.5701C20.9353 11.4115 20.8725 11.2593 20.7606 11.1469C20.6487 11.0344 20.4968 10.9709 20.3382 10.9701L19.0161 10.9639L18.1917 9.09453C18.1447 8.98809 18.0678 8.8976 17.9704 8.83407C17.873 8.77054 17.7591 8.73671 17.6428 8.73669H14.4208V7.19999H16.1143C16.1931 7.19999 16.2711 7.18447 16.3439 7.15432C16.4167 7.12416 16.4828 7.07997 16.5385 7.02425C16.5942 6.96854 16.6384 6.9024 16.6686 6.8296C16.6987 6.75681 16.7143 6.67879 16.7143 6.59999C16.7143 6.5212 16.6987 6.44318 16.6686 6.37039C16.6384 6.29759 16.5942 6.23145 16.5385 6.17573C16.4828 6.12002 16.4167 6.07582 16.3439 6.04567C16.2711 6.01552 16.1931 6 16.1143 6H8.99473C8.91594 6 8.83792 6.01552 8.76512 6.04567C8.69233 6.07582 8.62618 6.12002 8.57047 6.17573C8.51476 6.23145 8.47056 6.29759 8.44041 6.37039C8.41025 6.44318 8.39474 6.5212 8.39474 6.59999C8.39474 6.67879 8.41025 6.75681 8.44041 6.8296C8.47056 6.9024 8.51476 6.96854 8.57047 7.02425C8.62618 7.07997 8.69233 7.12416 8.76512 7.15432C8.83792 7.18447 8.91594 7.19999 8.99473 7.19999H11.0645V8.73669H8.24186C8.13555 8.73669 8.03116 8.76494 7.93936 8.81854C7.84756 8.87213 7.77164 8.94916 7.71938 9.04173L7.11579 10.1114H6.70467C5.61724 10.1114 4.73261 10.996 4.73261 12.0835V13.3917H3.34735C3.29623 13.3917 3.24751 13.4001 3.19999 13.4121V10.1923C3.19999 10.0332 3.13677 9.88054 3.02425 9.76802C2.91173 9.6555 2.75912 9.59228 2.59999 9.59228C2.44087 9.59228 2.28825 9.6555 2.17573 9.76802C2.06321 9.88054 2 10.0332 2 10.1923V17.5854C2 17.7445 2.06321 17.8971 2.17573 18.0097C2.28825 18.1222 2.44087 18.1854 2.59999 18.1854C2.75912 18.1854 2.91173 18.1222 3.02425 18.0097C3.13677 17.8971 3.19999 17.7445 3.19999 17.5854V14.571C3.24727 14.583 3.29623 14.5914 3.34735 14.5914H4.73237V17.5C4.73237 18.6016 5.62852 19.4975 6.73011 19.4975H8.65513L10.921 21.763C10.9767 21.8188 11.0428 21.863 11.1156 21.8931C11.1884 21.9233 11.2665 21.9388 11.3453 21.9387H20.3356C20.4947 21.9387 20.6473 21.8755 20.7598 21.763C20.8724 21.6505 20.9356 21.4979 20.9356 21.3387V19.6105L21.7892 19.6088V20.7419C21.7892 20.9008 21.8523 21.0533 21.9646 21.1658C22.077 21.2783 22.2293 21.3416 22.3883 21.3418L24.579 21.3457H24.5799C24.6917 21.3457 24.8013 21.3144 24.8963 21.2555C24.9913 21.1966 25.0679 21.1123 25.1175 21.0121C25.1535 20.9391 26 19.1953 26 16.0785C25.9998 13.235 25.1108 11.3863 25.0729 11.3092ZM12.2645 7.19999H13.2208V8.73669H12.2645V7.19999ZM24.1765 20.145L22.989 20.1428V19.0079C22.989 18.8487 22.9258 18.6961 22.8133 18.5836C22.7007 18.4711 22.5481 18.4079 22.389 18.4079H22.388L20.3344 18.4115C20.1754 18.4117 20.023 18.4751 19.9107 18.5875C19.7984 18.7 19.7353 18.8525 19.7353 19.0115V20.7387H11.5937L9.32785 18.4732C9.27214 18.4174 9.20599 18.3732 9.13318 18.3431C9.06037 18.3129 8.98233 18.2974 8.90353 18.2975H6.73011C6.51864 18.2973 6.31587 18.2132 6.16631 18.0637C6.01675 17.9142 5.93261 17.7114 5.93236 17.5V12.0835C5.93255 11.8788 6.01396 11.6825 6.15871 11.5377C6.30346 11.393 6.49972 11.3116 6.70443 11.3114H7.46595C7.57225 11.3114 7.67664 11.2831 7.76844 11.2295C7.86025 11.1759 7.93616 11.0989 7.98842 11.0063L8.59201 9.93668H17.2518L18.0753 11.8039C18.122 11.9099 18.1984 12.0002 18.2953 12.0637C18.3922 12.1273 18.5054 12.1614 18.6213 12.1619L19.7356 12.1672V13.444C19.7356 13.6031 19.7988 13.7557 19.9113 13.8683C20.0238 13.9808 20.1764 14.044 20.3356 14.044H22.3892C22.5484 14.044 22.701 13.9808 22.8135 13.8683C22.926 13.7557 22.9892 13.6031 22.9892 13.444V12.173H24.135C24.3651 12.7816 24.7998 14.1815 24.7998 16.0787C24.7998 18.1444 24.3942 19.5431 24.1765 20.145Z" fill="#1C1C1C"/>
</svg>
