<svg width="20" height="20" viewBox="0 0 20 20" fill="none" xmlns="http://www.w3.org/2000/svg">
<path d="M12.1073 7.89063L7.89063 12.1073C7.34896 11.5656 7.01562 10.824 7.01562 9.99896C7.01562 8.34896 8.34896 7.01562 9.99896 7.01562C10.824 7.01562 11.5656 7.34896 12.1073 7.89063Z" stroke="#9FA1A4" stroke-width="1.5" stroke-linecap="round" stroke-linejoin="round"/>
<path d="M14.8479 4.80937C13.3896 3.70937 11.7229 3.10938 9.99792 3.10938C7.05625 3.10938 4.31458 4.84271 2.40625 7.84271C1.65625 9.01771 1.65625 10.9927 2.40625 12.1677C3.06458 13.201 3.83125 14.0927 4.66458 14.8094" stroke="#9FA1A4" stroke-width="1.5" stroke-linecap="round" stroke-linejoin="round"/>
<path d="M7.01562 16.276C7.96563 16.676 8.97396 16.8927 9.99896 16.8927C12.9406 16.8927 15.6823 15.1594 17.5906 12.1594C18.3406 10.9844 18.3406 9.00937 17.5906 7.83437C17.3156 7.40104 17.0156 6.99271 16.7073 6.60938" stroke="#9FA1A4" stroke-width="1.5" stroke-linecap="round" stroke-linejoin="round"/>
<path d="M12.9281 10.582C12.7115 11.757 11.7531 12.7154 10.5781 12.932" stroke="#9FA1A4" stroke-width="1.5" stroke-linecap="round" stroke-linejoin="round"/>
<path d="M7.89688 12.1094L1.67188 18.3344" stroke="#9FA1A4" stroke-width="1.5" stroke-linecap="round" stroke-linejoin="round"/>
<path d="M18.3344 1.66797L12.1094 7.89297" stroke="#9FA1A4" stroke-width="1.5" stroke-linecap="round" stroke-linejoin="round"/>
</svg>
