<svg width="24" height="24" viewBox="0 0 24 24" fill="none" xmlns="http://www.w3.org/2000/svg">
<g clip-path="url(#clip0_14922_26564)">
<path d="M12 24C18.6274 24 24 18.6274 24 12C24 5.37258 18.6274 0 12 0C5.37258 0 0 5.37258 0 12C0 18.6274 5.37258 24 12 24Z" fill="#3B5998"/>
<path d="M15.0143 12.4706H12.8731V20.3152H9.62888V12.4706H8.08594V9.71376H9.62888V7.92974C9.62888 6.65397 10.2349 4.65625 12.9019 4.65625L15.305 4.6663V7.34233H13.5614C13.2754 7.34233 12.8733 7.48523 12.8733 8.09381V9.71632H15.2977L15.0143 12.4706Z" fill="white"/>
</g>
<defs>
<clipPath id="clip0_14922_26564">
<rect width="24" height="24" fill="white"/>
</clipPath>
</defs>
</svg>
