<svg width="20" height="20" viewBox="0 0 20 20" fill="none" xmlns="http://www.w3.org/2000/svg">
<g clip-path="url(#clip0_16977_825)">
<path d="M8.125 8.125C9.16053 8.125 10 7.28553 10 6.25C10 5.21447 9.16053 4.375 8.125 4.375C7.08947 4.375 6.25 5.21447 6.25 6.25C6.25 7.28553 7.08947 8.125 8.125 8.125Z" stroke="#98BC2A" stroke-width="1.5" stroke-linecap="round" stroke-linejoin="round"/>
<path d="M13.125 15.625C14.1605 15.625 15 14.7855 15 13.75C15 12.7145 14.1605 11.875 13.125 11.875C12.0895 11.875 11.25 12.7145 11.25 13.75C11.25 14.7855 12.0895 15.625 13.125 15.625Z" stroke="#98BC2A" stroke-width="1.5" stroke-linecap="round" stroke-linejoin="round"/>
<path d="M10 6.25H16.875" stroke="#98BC2A" stroke-width="1.5" stroke-linecap="round" stroke-linejoin="round"/>
<path d="M3.125 6.25H6.25" stroke="#98BC2A" stroke-width="1.5" stroke-linecap="round" stroke-linejoin="round"/>
<path d="M15 13.75H16.875" stroke="#98BC2A" stroke-width="1.5" stroke-linecap="round" stroke-linejoin="round"/>
<path d="M3.125 13.75H11.25" stroke="#98BC2A" stroke-width="1.5" stroke-linecap="round" stroke-linejoin="round"/>
</g>
<defs>
<clipPath id="clip0_16977_825">
<rect width="20" height="20" fill="white"/>
</clipPath>
</defs>
</svg>
