<svg width="28" height="28" viewBox="0 0 28 28" fill="none" xmlns="http://www.w3.org/2000/svg">
<path d="M26.2019 7.77328L24.0888 5.66125C23.9643 5.54533 23.7998 5.48222 23.6298 5.48522C23.4598 5.48822 23.2976 5.55709 23.1773 5.67733C23.0571 5.79757 22.9882 5.95978 22.9852 6.12979C22.9822 6.29981 23.0453 6.46435 23.1612 6.58875L25.2733 8.70187C25.3752 8.80316 25.456 8.92367 25.511 9.0564C25.566 9.18914 25.5941 9.33147 25.5938 9.47516V18.375C25.5938 18.6651 25.4785 18.9433 25.2734 19.1484C25.0683 19.3535 24.7901 19.4688 24.5 19.4688C24.2099 19.4688 23.9317 19.3535 23.7266 19.1484C23.5215 18.9433 23.4062 18.6651 23.4062 18.375V14C23.4062 13.3618 23.1527 12.7498 22.7015 12.2985C22.2502 11.8473 21.6382 11.5938 21 11.5938H19.0312V6.125C19.0312 5.48682 18.7777 4.87478 18.3265 4.42352C17.8752 3.97226 17.2632 3.71875 16.625 3.71875H7.875C7.23682 3.71875 6.62478 3.97226 6.17352 4.42352C5.72226 4.87478 5.46875 5.48682 5.46875 6.125V22.9688H3.5C3.32595 22.9688 3.15903 23.0379 3.03596 23.161C2.91289 23.284 2.84375 23.451 2.84375 23.625C2.84375 23.799 2.91289 23.966 3.03596 24.089C3.15903 24.2121 3.32595 24.2812 3.5 24.2812H21C21.174 24.2812 21.341 24.2121 21.464 24.089C21.5871 23.966 21.6562 23.799 21.6562 23.625C21.6562 23.451 21.5871 23.284 21.464 23.161C21.341 23.0379 21.174 22.9688 21 22.9688H19.0312V12.9062H21C21.2901 12.9062 21.5683 13.0215 21.7734 13.2266C21.9785 13.4317 22.0938 13.7099 22.0938 14V18.375C22.0938 19.0132 22.3473 19.6252 22.7985 20.0765C23.2498 20.5277 23.8618 20.7812 24.5 20.7812C25.1382 20.7812 25.7502 20.5277 26.2015 20.0765C26.6527 19.6252 26.9062 19.0132 26.9062 18.375V9.47516C26.9071 9.15902 26.8453 8.84585 26.7244 8.55374C26.6035 8.26163 26.4259 7.99637 26.2019 7.77328ZM6.78125 22.9688V6.125C6.78125 5.83492 6.89648 5.55672 7.1016 5.3516C7.30672 5.14648 7.58492 5.03125 7.875 5.03125H16.625C16.9151 5.03125 17.1933 5.14648 17.3984 5.3516C17.6035 5.55672 17.7188 5.83492 17.7188 6.125V22.9688H6.78125ZM15.5312 12.25C15.5312 12.424 15.4621 12.591 15.339 12.714C15.216 12.8371 15.049 12.9062 14.875 12.9062H9.625C9.45095 12.9062 9.28403 12.8371 9.16096 12.714C9.03789 12.591 8.96875 12.424 8.96875 12.25C8.96875 12.076 9.03789 11.909 9.16096 11.786C9.28403 11.6629 9.45095 11.5938 9.625 11.5938H14.875C15.049 11.5938 15.216 11.6629 15.339 11.786C15.4621 11.909 15.5312 12.076 15.5312 12.25Z" fill="#1C1C1C"/>
</svg>
