<svg width="24" height="24" viewBox="0 0 24 24" fill="none" xmlns="http://www.w3.org/2000/svg">
<g clip-path="url(#clip0_14922_26570)">
<path d="M23.0955 9.91453L13.3061 9.91406C12.8738 9.91406 12.5234 10.2644 12.5234 10.6967V13.824C12.5234 14.2561 12.8738 14.6066 13.3061 14.6066H18.8188C18.2152 16.1732 17.0885 17.4852 15.651 18.3188L18.0017 22.388C21.7724 20.2072 24.0017 16.3808 24.0017 12.0975C24.0017 11.4876 23.9567 11.0516 23.8668 10.5607C23.7985 10.1877 23.4747 9.91453 23.0955 9.91453Z" fill="#167EE6"/>
<path d="M11.9964 19.3037C9.29852 19.3037 6.94333 17.8297 5.67841 15.6484L1.60938 17.9938C3.68008 21.5826 7.55917 23.9994 11.9964 23.9994C14.1731 23.9994 16.227 23.4133 17.9964 22.3919V22.3863L15.6457 18.3171C14.5705 18.9408 13.3263 19.3037 11.9964 19.3037Z" fill="#12B347"/>
<path d="M18 22.3912V22.3856L15.6494 18.3164C14.5741 18.94 13.33 19.303 12 19.303V23.9986C14.1767 23.9986 16.2308 23.4126 18 22.3912Z" fill="#0F993E"/>
<path d="M4.69566 11.9983C4.69566 10.6685 5.05856 9.42442 5.68205 8.34925L1.61302 6.00391C0.586031 7.76767 0 9.81602 0 11.9983C0 14.1806 0.586031 16.229 1.61302 17.9928L5.68205 15.6474C5.05856 14.5722 4.69566 13.3281 4.69566 11.9983Z" fill="#FFD500"/>
<path d="M11.9964 4.69566C13.7556 4.69566 15.3716 5.32078 16.6338 6.36061C16.9452 6.61711 17.3978 6.59859 17.683 6.31336L19.8988 4.09758C20.2224 3.77395 20.1993 3.24422 19.8536 2.94431C17.7389 1.10967 14.9873 0 11.9964 0C7.55917 0 3.68008 2.41673 1.60938 6.00558L5.67841 8.35092C6.94333 6.16969 9.29852 4.69566 11.9964 4.69566Z" fill="#FF4B26"/>
<path d="M16.6374 6.36061C16.9488 6.61711 17.4015 6.59859 17.6866 6.31336L19.9024 4.09758C20.226 3.77395 20.2029 3.24422 19.8573 2.94431C17.7425 1.10963 14.991 0 12 0V4.69566C13.7592 4.69566 15.3752 5.32078 16.6374 6.36061Z" fill="#D93F21"/>
</g>
<defs>
<clipPath id="clip0_14922_26570">
<rect width="24" height="24" fill="white"/>
</clipPath>
</defs>
</svg>
