<svg width="24" height="24" viewBox="0 0 24 24" fill="none" xmlns="http://www.w3.org/2000/svg">
<g clip-path="url(#clip0_13439_91509)">
<path d="M11.25 11.25C11.4489 11.25 11.6397 11.329 11.7803 11.4697C11.921 11.6103 12 11.8011 12 12V15.75C12 15.9489 12.079 16.1397 12.2197 16.2803C12.3603 16.421 12.5511 16.5 12.75 16.5" stroke="#98BC2A" stroke-width="1.5" stroke-linecap="round" stroke-linejoin="round"/>
<path d="M11.625 8.8125C12.1428 8.8125 12.5625 8.39277 12.5625 7.875C12.5625 7.35723 12.1428 6.9375 11.625 6.9375C11.1072 6.9375 10.6875 7.35723 10.6875 7.875C10.6875 8.39277 11.1072 8.8125 11.625 8.8125Z" fill="#98BC2A"/>
<path d="M12 21C16.9706 21 21 16.9706 21 12C21 7.02944 16.9706 3 12 3C7.02944 3 3 7.02944 3 12C3 16.9706 7.02944 21 12 21Z" stroke="#98BC2A" stroke-width="1.5" stroke-linecap="round" stroke-linejoin="round"/>
</g>
<defs>
<clipPath id="clip0_13439_91509">
<rect width="24" height="24" fill="white"/>
</clipPath>
</defs>
</svg>
