<svg width="24" height="24" viewBox="0 0 24 24" fill="none" xmlns="http://www.w3.org/2000/svg">
<g clip-path="url(#clip0_16996_2037)">
<path d="M9 14.25C9 15.4922 10.3434 16.5 12 16.5C13.6566 16.5 15 15.4922 15 14.25C15 11.25 9.16687 12.375 9.16687 9.75C9.16687 8.50781 10.3434 7.5 12 7.5C13.2422 7.5 14.2153 8.0625 14.625 8.87438" stroke="#9FA1A4" stroke-width="1.5" stroke-linecap="round" stroke-linejoin="round"/>
<path d="M20.0634 13.7521C20.7293 14.6182 21.0574 15.697 20.9865 16.7871C20.9155 17.8773 20.4504 18.9045 19.6779 19.677C18.9054 20.4495 17.8783 20.9146 16.7881 20.9855C15.6979 21.0564 14.6192 20.7283 13.7531 20.0624C12.4034 20.3542 11.002 20.3028 9.67726 19.9129C8.35253 19.523 7.14676 18.807 6.1703 17.8306C5.19384 16.8541 4.47789 15.6483 4.08797 14.3236C3.69806 12.9989 3.64664 11.5975 3.93841 10.2477C3.27252 9.38166 2.94443 8.30291 3.01536 7.21273C3.08629 6.12256 3.55138 5.09541 4.32388 4.32291C5.09639 3.55041 6.12353 3.08531 7.21371 3.01438C8.30389 2.94345 9.38264 3.27154 10.2487 3.93743C11.5985 3.64566 12.9998 3.69708 14.3246 4.087C15.6493 4.47691 16.8551 5.19286 17.8315 6.16932C18.808 7.14578 19.5239 8.35155 19.9138 9.67628C20.3038 11.001 20.3552 12.4024 20.0634 13.7521Z" stroke="#9FA1A4" stroke-width="1.5" stroke-linecap="round" stroke-linejoin="round"/>
</g> 
</svg>
