<svg width="24" height="24" viewBox="0 0 24 24" fill="none" xmlns="http://www.w3.org/2000/svg">
<g clip-path="url(#clip0_16996_2055)">
<path d="M7.49927 12.6439L15.9611 20.0624C16.0586 20.1484 16.1768 20.2076 16.304 20.2341C16.4313 20.2607 16.5632 20.2537 16.687 20.2139C16.8107 20.1742 16.922 20.1029 17.0099 20.0071C17.0978 19.9113 17.1593 19.7944 17.1883 19.6677L20.9993 3.11425C21.003 3.09765 21.0021 3.08035 20.9968 3.06421C20.9914 3.04807 20.9818 3.03369 20.9688 3.02261C20.9559 3.01153 20.9403 3.00417 20.9235 3.00132C20.9067 2.99848 20.8895 3.00024 20.8736 3.00644L1.87427 10.4418C1.75632 10.4871 1.65628 10.5696 1.58916 10.6767C1.52205 10.7838 1.49148 10.9097 1.50205 11.0357C1.51261 11.1616 1.56374 11.2807 1.64776 11.3751C1.73178 11.4695 1.84415 11.5341 1.96802 11.5593L7.49927 12.6439Z" stroke="#4B4B4B" stroke-width="1.5" stroke-linecap="round" stroke-linejoin="round"/>
<path d="M7.5 12.6454L20.9447 3.00977" stroke="#4B4B4B" stroke-width="1.5" stroke-linecap="round" stroke-linejoin="round"/>
<path d="M11.6597 16.2923L8.79 19.2698C8.68631 19.3774 8.55285 19.4516 8.40673 19.4828C8.26061 19.514 8.10849 19.5009 7.96989 19.4451C7.83128 19.3893 7.7125 19.2934 7.62878 19.1696C7.54507 19.0458 7.50022 18.8999 7.5 18.7505V12.6445" stroke="#4B4B4B" stroke-width="1.5" stroke-linecap="round" stroke-linejoin="round"/>
</g>
<defs>
<clipPath id="clip0_16996_2055">
<rect width="24" height="24" fill="white"/>
</clipPath>
</defs>
</svg>
