<svg width="28" height="28" viewBox="0 0 28 28" fill="none" xmlns="http://www.w3.org/2000/svg">
<path d="M14 7.21875C13.178 7.21875 12.3744 7.46251 11.6909 7.9192C11.0074 8.3759 10.4747 9.02502 10.1601 9.78447C9.84555 10.5439 9.76324 11.3796 9.92361 12.1858C10.084 12.9921 10.4798 13.7326 11.0611 14.3139C11.6423 14.8952 12.3829 15.291 13.1892 15.4514C13.9954 15.6118 14.8311 15.5295 15.5905 15.2149C16.35 14.9003 16.9991 14.3676 17.4558 13.6841C17.9125 13.0006 18.1562 12.197 18.1562 11.375C18.1562 10.2727 17.7184 9.21554 16.9389 8.43609C16.1595 7.65664 15.1023 7.21875 14 7.21875ZM14 14.2187C13.4376 14.2187 12.8877 14.052 12.4201 13.7395C11.9524 13.427 11.588 12.9829 11.3727 12.4633C11.1575 11.9436 11.1012 11.3718 11.2109 10.8202C11.3206 10.2686 11.5915 9.76187 11.9892 9.36416C12.3869 8.96646 12.8936 8.69562 13.4452 8.58589C13.9968 8.47616 14.5686 8.53248 15.0883 8.74772C15.6079 8.96295 16.052 9.32744 16.3645 9.7951C16.677 10.2627 16.8438 10.8126 16.8438 11.375C16.8438 12.1292 16.5441 12.8525 16.0108 13.3858C15.4775 13.9191 14.7542 14.2187 14 14.2187ZM14 1.96875C11.5062 1.97164 9.11536 2.96359 7.35197 4.72697C5.58859 6.49036 4.59664 8.8812 4.59375 11.375C4.59375 14.7558 6.16219 18.3466 9.12953 21.7591C10.4688 23.3069 11.9762 24.7008 13.6237 25.9153C13.734 25.9925 13.8654 26.0339 14 26.0339C14.1346 26.0339 14.266 25.9925 14.3763 25.9153C16.0238 24.7008 17.5312 23.3069 18.8705 21.7591C21.8378 18.3466 23.4062 14.7591 23.4062 11.375C23.4034 8.8812 22.4114 6.49036 20.648 4.72697C18.8846 2.96359 16.4938 1.97164 14 1.96875ZM14 24.5558C12.3594 23.2892 5.90625 17.8959 5.90625 11.375C5.90625 9.2284 6.75898 7.16973 8.27685 5.65185C9.79473 4.13398 11.8534 3.28125 14 3.28125C16.1466 3.28125 18.2053 4.13398 19.7231 5.65185C21.241 7.16973 22.0938 9.2284 22.0938 11.375C22.0938 17.8959 15.6406 23.2892 14 24.5558Z" fill="#1C1C1C"/>
</svg>
