<svg width="20" height="20" viewBox="0 0 20 20" fill="none" xmlns="http://www.w3.org/2000/svg">
<path d="M4.38365 5.09677C3.88587 5.09677 3.4592 5.27455 3.10365 5.63011C2.74809 5.98566 2.57031 6.42122 2.57031 6.93677C2.57031 7.45233 2.74809 7.88789 3.10365 8.24344C3.4592 8.599 3.88587 8.77677 4.38365 8.77677C4.88142 8.77677 5.30809 8.599 5.66365 8.24344C6.0192 7.88789 6.19698 7.45233 6.19698 6.93677C6.19698 6.42122 6.0192 5.98566 5.66365 5.63011C5.30809 5.27455 4.88142 5.09677 4.38365 5.09677ZM4.38365 6.11011C4.59698 6.11011 4.79253 6.19011 4.97031 6.35011C5.14809 6.51011 5.23698 6.70566 5.23698 6.93677C5.23698 7.16788 5.14809 7.36344 4.97031 7.52344C4.79253 7.68344 4.59698 7.76344 4.38365 7.76344C4.17031 7.76344 3.97476 7.68344 3.79698 7.52344C3.6192 7.36344 3.53031 7.16788 3.53031 6.93677C3.53031 6.70566 3.6192 6.51011 3.79698 6.35011C3.97476 6.19011 4.17031 6.11011 4.38365 6.11011ZM4.38365 14.4301C3.88587 14.4301 3.4592 14.6079 3.10365 14.9634C2.74809 15.319 2.57031 15.7546 2.57031 16.2701C2.57031 16.7857 2.74809 17.2212 3.10365 17.5768C3.4592 17.9323 3.88587 18.1101 4.38365 18.1101C4.88142 18.1101 5.30809 17.9323 5.66365 17.5768C6.0192 17.2212 6.19698 16.7857 6.19698 16.2701C6.19698 15.7546 6.0192 15.319 5.66365 14.9634C5.30809 14.6079 4.88142 14.4301 4.38365 14.4301ZM4.38365 15.4434C4.59698 15.4434 4.79253 15.5234 4.97031 15.6834C5.14809 15.8434 5.23698 16.039 5.23698 16.2701C5.23698 16.5012 5.14809 16.6968 4.97031 16.8568C4.79253 17.0168 4.59698 17.0968 4.38365 17.0968C4.17031 17.0968 3.97476 17.0168 3.79698 16.8568C3.6192 16.6968 3.53031 16.5012 3.53031 16.2701C3.53031 16.039 3.6192 15.8434 3.79698 15.6834C3.97476 15.5234 4.17031 15.4434 4.38365 15.4434ZM9.71698 5.09677C9.2192 5.09677 8.79253 5.27455 8.43698 5.63011C8.08142 5.98566 7.90365 6.42122 7.90365 6.93677C7.90365 7.45233 8.08142 7.88789 8.43698 8.24344C8.79253 8.599 9.2192 8.77677 9.71698 8.77677C10.2148 8.77677 10.6414 8.599 10.997 8.24344C11.3525 7.88789 11.5303 7.45233 11.5303 6.93677C11.5303 6.42122 11.3525 5.98566 10.997 5.63011C10.6414 5.27455 10.2148 5.09677 9.71698 5.09677ZM9.71698 6.11011C9.93031 6.11011 10.1259 6.19011 10.3036 6.35011C10.4814 6.51011 10.5703 6.70566 10.5703 6.93677C10.5703 7.16788 10.4814 7.36344 10.3036 7.52344C10.1259 7.68344 9.93031 7.76344 9.71698 7.76344C9.50365 7.76344 9.30809 7.68344 9.13031 7.52344C8.95253 7.36344 8.86365 7.16788 8.86365 6.93677C8.86365 6.70566 8.95253 6.51011 9.13031 6.35011C9.30809 6.19011 9.50365 6.11011 9.71698 6.11011ZM9.71698 14.4301C9.2192 14.4301 8.79253 14.6079 8.43698 14.9634C8.08142 15.319 7.90365 15.7546 7.90365 16.2701C7.90365 16.7857 8.08142 17.2212 8.43698 17.5768C8.79253 17.9323 9.2192 18.1101 9.71698 18.1101C10.2148 18.1101 10.6414 17.9323 10.997 17.5768C11.3525 17.2212 11.5303 16.7857 11.5303 16.2701C11.5303 15.7546 11.3525 15.319 10.997 14.9634C10.6414 14.6079 10.2148 14.4301 9.71698 14.4301ZM9.71698 15.4434C9.93031 15.4434 10.1259 15.5234 10.3036 15.6834C10.4814 15.8434 10.5703 16.039 10.5703 16.2701C10.5703 16.5012 10.4814 16.6968 10.3036 16.8568C10.1259 17.0168 9.93031 17.0968 9.71698 17.0968C9.50365 17.0968 9.30809 17.0168 9.13031 16.8568C8.95253 16.6968 8.86365 16.5012 8.86365 16.2701C8.86365 16.039 8.95253 15.8434 9.13031 15.6834C9.30809 15.5234 9.50365 15.4434 9.71698 15.4434ZM15.0503 5.09677C14.5525 5.09677 14.1259 5.27455 13.7703 5.63011C13.4148 5.98566 13.237 6.42122 13.237 6.93677C13.237 7.45233 13.4148 7.88789 13.7703 8.24344C14.1259 8.599 14.5525 8.77677 15.0503 8.77677C15.5481 8.77677 15.9748 8.599 16.3303 8.24344C16.6859 7.88789 16.8636 7.45233 16.8636 6.93677C16.8636 6.42122 16.6859 5.98566 16.3303 5.63011C15.9748 5.27455 15.5481 5.09677 15.0503 5.09677ZM15.0503 6.11011C15.2636 6.11011 15.4592 6.19011 15.637 6.35011C15.8148 6.51011 15.9036 6.70566 15.9036 6.93677C15.9036 7.16788 15.8148 7.36344 15.637 7.52344C15.4592 7.68344 15.2636 7.76344 15.0503 7.76344C14.837 7.76344 14.6414 7.68344 14.4636 7.52344C14.2859 7.36344 14.197 7.16788 14.197 6.93677C14.197 6.70566 14.2859 6.51011 14.4636 6.35011C14.6414 6.19011 14.837 6.11011 15.0503 6.11011ZM15.0503 14.4301C14.5525 14.4301 14.1259 14.6079 13.7703 14.9634C13.4148 15.319 13.237 15.7546 13.237 16.2701C13.237 16.7857 13.4148 17.2212 13.7703 17.5768C14.1259 17.9323 14.5525 18.1101 15.0503 18.1101C15.5481 18.1101 15.9748 17.9323 16.3303 17.5768C16.6859 17.2212 16.8636 16.7857 16.8636 16.2701C16.8636 15.7546 16.6859 15.319 16.3303 14.9634C15.9748 14.6079 15.5481 14.4301 15.0503 14.4301ZM15.0503 15.4434C15.2636 15.4434 15.4592 15.5234 15.637 15.6834C15.8148 15.8434 15.9036 16.039 15.9036 16.2701C15.9036 16.5012 15.8148 16.6968 15.637 16.8568C15.4592 17.0168 15.2636 17.0968 15.0503 17.0968C14.837 17.0968 14.6414 17.0168 14.4636 16.8568C14.2859 16.6968 14.197 16.5012 14.197 16.2701C14.197 16.039 14.2859 15.8434 14.4636 15.6834C14.6414 15.5234 14.837 15.4434 15.0503 15.4434ZM3.90365 8.24344V14.9101C3.90365 15.0523 3.94809 15.1768 4.03698 15.2834C4.12587 15.3901 4.24142 15.4434 4.38365 15.4434C4.52587 15.4434 4.64142 15.3901 4.73031 15.2834C4.8192 15.1768 4.86365 15.0701 4.86365 14.9634V8.24344C4.86365 8.13677 4.8192 8.03011 4.73031 7.92344C4.64142 7.81677 4.52587 7.76344 4.38365 7.76344C4.24142 7.76344 4.12587 7.81677 4.03698 7.92344C3.94809 8.03011 3.90365 8.13677 3.90365 8.24344ZM9.23698 8.24344V14.9101C9.23698 15.0523 9.28142 15.1768 9.37031 15.2834C9.4592 15.3901 9.57476 15.4434 9.71698 15.4434C9.8592 15.4434 9.97476 15.3901 10.0636 15.2834C10.1525 15.1768 10.197 15.0701 10.197 14.9634V8.24344C10.197 8.13677 10.1525 8.03011 10.0636 7.92344C9.97476 7.81677 9.8592 7.76344 9.71698 7.76344C9.57476 7.76344 9.4592 7.81677 9.37031 7.92344C9.28142 8.03011 9.23698 8.13677 9.23698 8.24344ZM14.5703 8.24344V10.9101C14.5703 10.9812 14.5525 11.0346 14.517 11.0701C14.4814 11.1057 14.4459 11.1234 14.4103 11.1234H4.38365C4.24142 11.1234 4.12587 11.1679 4.03698 11.2568C3.94809 11.3457 3.90365 11.4612 3.90365 11.6034C3.90365 11.7457 3.94809 11.8612 4.03698 11.9501C4.12587 12.039 4.24142 12.0834 4.38365 12.0834H14.4103C14.7303 12.0834 14.997 11.9768 15.2103 11.7634C15.4236 11.5501 15.5303 11.2657 15.5303 10.9101V8.29677C15.5303 8.15455 15.4859 8.03011 15.397 7.92344C15.3081 7.81677 15.1925 7.76344 15.0503 7.76344C14.9081 7.76344 14.7925 7.81677 14.7036 7.92344C14.6148 8.03011 14.5703 8.13677 14.5703 8.24344Z" fill="#9FA1A4"/>
</svg>
