<svg width="20" height="20" viewBox="0 0 20 20" fill="none" xmlns="http://www.w3.org/2000/svg">
<path d="M4.38365 5.0969C3.88587 5.0969 3.4592 5.27467 3.10365 5.63023C2.74809 5.98578 2.57031 6.42134 2.57031 6.9369C2.57031 7.45245 2.74809 7.88801 3.10365 8.24356C3.4592 8.59912 3.88587 8.7769 4.38365 8.7769C4.88142 8.7769 5.30809 8.59912 5.66365 8.24356C6.0192 7.88801 6.19698 7.45245 6.19698 6.9369C6.19698 6.42134 6.0192 5.98578 5.66365 5.63023C5.30809 5.27467 4.88142 5.0969 4.38365 5.0969ZM4.38365 6.11023C4.59698 6.11023 4.79253 6.19023 4.97031 6.35023C5.14809 6.51023 5.23698 6.70578 5.23698 6.9369C5.23698 7.16801 5.14809 7.36356 4.97031 7.52356C4.79253 7.68356 4.59698 7.76356 4.38365 7.76356C4.17031 7.76356 3.97476 7.68356 3.79698 7.52356C3.6192 7.36356 3.53031 7.16801 3.53031 6.9369C3.53031 6.70578 3.6192 6.51023 3.79698 6.35023C3.97476 6.19023 4.17031 6.11023 4.38365 6.11023ZM4.38365 14.4302C3.88587 14.4302 3.4592 14.608 3.10365 14.9636C2.74809 15.3191 2.57031 15.7547 2.57031 16.2702C2.57031 16.7858 2.74809 17.2213 3.10365 17.5769C3.4592 17.9325 3.88587 18.1102 4.38365 18.1102C4.88142 18.1102 5.30809 17.9325 5.66365 17.5769C6.0192 17.2213 6.19698 16.7858 6.19698 16.2702C6.19698 15.7547 6.0192 15.3191 5.66365 14.9636C5.30809 14.608 4.88142 14.4302 4.38365 14.4302ZM4.38365 15.4436C4.59698 15.4436 4.79253 15.5236 4.97031 15.6836C5.14809 15.8436 5.23698 16.0391 5.23698 16.2702C5.23698 16.5013 5.14809 16.6969 4.97031 16.8569C4.79253 17.0169 4.59698 17.0969 4.38365 17.0969C4.17031 17.0969 3.97476 17.0169 3.79698 16.8569C3.6192 16.6969 3.53031 16.5013 3.53031 16.2702C3.53031 16.0391 3.6192 15.8436 3.79698 15.6836C3.97476 15.5236 4.17031 15.4436 4.38365 15.4436ZM9.71698 5.0969C9.2192 5.0969 8.79253 5.27467 8.43698 5.63023C8.08142 5.98578 7.90365 6.42134 7.90365 6.9369C7.90365 7.45245 8.08142 7.88801 8.43698 8.24356C8.79253 8.59912 9.2192 8.7769 9.71698 8.7769C10.2148 8.7769 10.6414 8.59912 10.997 8.24356C11.3525 7.88801 11.5303 7.45245 11.5303 6.9369C11.5303 6.42134 11.3525 5.98578 10.997 5.63023C10.6414 5.27467 10.2148 5.0969 9.71698 5.0969ZM9.71698 6.11023C9.93031 6.11023 10.1259 6.19023 10.3036 6.35023C10.4814 6.51023 10.5703 6.70578 10.5703 6.9369C10.5703 7.16801 10.4814 7.36356 10.3036 7.52356C10.1259 7.68356 9.93031 7.76356 9.71698 7.76356C9.50365 7.76356 9.30809 7.68356 9.13031 7.52356C8.95253 7.36356 8.86365 7.16801 8.86365 6.9369C8.86365 6.70578 8.95253 6.51023 9.13031 6.35023C9.30809 6.19023 9.50365 6.11023 9.71698 6.11023ZM9.71698 14.4302C9.2192 14.4302 8.79253 14.608 8.43698 14.9636C8.08142 15.3191 7.90365 15.7547 7.90365 16.2702C7.90365 16.7858 8.08142 17.2213 8.43698 17.5769C8.79253 17.9325 9.2192 18.1102 9.71698 18.1102C10.2148 18.1102 10.6414 17.9325 10.997 17.5769C11.3525 17.2213 11.5303 16.7858 11.5303 16.2702C11.5303 15.7547 11.3525 15.3191 10.997 14.9636C10.6414 14.608 10.2148 14.4302 9.71698 14.4302ZM9.71698 15.4436C9.93031 15.4436 10.1259 15.5236 10.3036 15.6836C10.4814 15.8436 10.5703 16.0391 10.5703 16.2702C10.5703 16.5013 10.4814 16.6969 10.3036 16.8569C10.1259 17.0169 9.93031 17.0969 9.71698 17.0969C9.50365 17.0969 9.30809 17.0169 9.13031 16.8569C8.95253 16.6969 8.86365 16.5013 8.86365 16.2702C8.86365 16.0391 8.95253 15.8436 9.13031 15.6836C9.30809 15.5236 9.50365 15.4436 9.71698 15.4436ZM15.0503 5.0969C14.5525 5.0969 14.1259 5.27467 13.7703 5.63023C13.4148 5.98578 13.237 6.42134 13.237 6.9369C13.237 7.45245 13.4148 7.88801 13.7703 8.24356C14.1259 8.59912 14.5525 8.7769 15.0503 8.7769C15.5481 8.7769 15.9748 8.59912 16.3303 8.24356C16.6859 7.88801 16.8636 7.45245 16.8636 6.9369C16.8636 6.42134 16.6859 5.98578 16.3303 5.63023C15.9748 5.27467 15.5481 5.0969 15.0503 5.0969ZM15.0503 6.11023C15.2636 6.11023 15.4592 6.19023 15.637 6.35023C15.8148 6.51023 15.9036 6.70578 15.9036 6.9369C15.9036 7.16801 15.8148 7.36356 15.637 7.52356C15.4592 7.68356 15.2636 7.76356 15.0503 7.76356C14.837 7.76356 14.6414 7.68356 14.4636 7.52356C14.2859 7.36356 14.197 7.16801 14.197 6.9369C14.197 6.70578 14.2859 6.51023 14.4636 6.35023C14.6414 6.19023 14.837 6.11023 15.0503 6.11023ZM15.0503 14.4302C14.5525 14.4302 14.1259 14.608 13.7703 14.9636C13.4148 15.3191 13.237 15.7547 13.237 16.2702C13.237 16.7858 13.4148 17.2213 13.7703 17.5769C14.1259 17.9325 14.5525 18.1102 15.0503 18.1102C15.5481 18.1102 15.9748 17.9325 16.3303 17.5769C16.6859 17.2213 16.8636 16.7858 16.8636 16.2702C16.8636 15.7547 16.6859 15.3191 16.3303 14.9636C15.9748 14.608 15.5481 14.4302 15.0503 14.4302ZM15.0503 15.4436C15.2636 15.4436 15.4592 15.5236 15.637 15.6836C15.8148 15.8436 15.9036 16.0391 15.9036 16.2702C15.9036 16.5013 15.8148 16.6969 15.637 16.8569C15.4592 17.0169 15.2636 17.0969 15.0503 17.0969C14.837 17.0969 14.6414 17.0169 14.4636 16.8569C14.2859 16.6969 14.197 16.5013 14.197 16.2702C14.197 16.0391 14.2859 15.8436 14.4636 15.6836C14.6414 15.5236 14.837 15.4436 15.0503 15.4436ZM3.90365 8.24356V14.9102C3.90365 15.0525 3.94809 15.1769 4.03698 15.2836C4.12587 15.3902 4.24142 15.4436 4.38365 15.4436C4.52587 15.4436 4.64142 15.3902 4.73031 15.2836C4.8192 15.1769 4.86365 15.0702 4.86365 14.9636V8.24356C4.86365 8.1369 4.8192 8.03023 4.73031 7.92356C4.64142 7.8169 4.52587 7.76356 4.38365 7.76356C4.24142 7.76356 4.12587 7.8169 4.03698 7.92356C3.94809 8.03023 3.90365 8.1369 3.90365 8.24356ZM9.23698 8.24356V14.9102C9.23698 15.0525 9.28142 15.1769 9.37031 15.2836C9.4592 15.3902 9.57476 15.4436 9.71698 15.4436C9.8592 15.4436 9.97476 15.3902 10.0636 15.2836C10.1525 15.1769 10.197 15.0702 10.197 14.9636V8.24356C10.197 8.1369 10.1525 8.03023 10.0636 7.92356C9.97476 7.8169 9.8592 7.76356 9.71698 7.76356C9.57476 7.76356 9.4592 7.8169 9.37031 7.92356C9.28142 8.03023 9.23698 8.1369 9.23698 8.24356ZM14.5703 8.24356V10.9102C14.5703 10.9813 14.5525 11.0347 14.517 11.0702C14.4814 11.1058 14.4459 11.1236 14.4103 11.1236H4.38365C4.24142 11.1236 4.12587 11.168 4.03698 11.2569C3.94809 11.3458 3.90365 11.4613 3.90365 11.6036C3.90365 11.7458 3.94809 11.8613 4.03698 11.9502C4.12587 12.0391 4.24142 12.0836 4.38365 12.0836H14.4103C14.7303 12.0836 14.997 11.9769 15.2103 11.7636C15.4236 11.5502 15.5303 11.2658 15.5303 10.9102V8.2969C15.5303 8.15467 15.4859 8.03023 15.397 7.92356C15.3081 7.8169 15.1925 7.76356 15.0503 7.76356C14.9081 7.76356 14.7925 7.8169 14.7036 7.92356C14.6148 8.03023 14.5703 8.1369 14.5703 8.24356Z" fill="#4B4B4B"/>
</svg>
