<svg width="28" height="28" viewBox="0 0 28 28" fill="none" xmlns="http://www.w3.org/2000/svg">
<path d="M22.493 8.10255C21.3789 6.9862 20.0549 6.10142 18.5972 5.49921C17.1396 4.897 15.5771 4.58929 14 4.5938H13.9573C7.34672 4.61677 1.96875 10.0691 1.96875 16.7486V19.25C1.96875 19.6562 2.13008 20.0456 2.41724 20.3328C2.70441 20.62 3.09389 20.7813 3.5 20.7813H24.5C24.9061 20.7813 25.2956 20.62 25.5828 20.3328C25.8699 20.0456 26.0312 19.6562 26.0312 19.25V16.625C26.0356 15.0409 25.725 13.4717 25.1176 12.0086C24.5101 10.5456 23.618 9.21782 22.493 8.10255ZM24.7188 19.25C24.7188 19.3081 24.6957 19.3637 24.6547 19.4047C24.6137 19.4458 24.558 19.4688 24.5 19.4688H12.6634L18.9055 10.8861C19.0035 10.7453 19.0424 10.5716 19.0138 10.4024C18.9853 10.2332 18.8916 10.0818 18.7529 9.98085C18.6141 9.87987 18.4414 9.83725 18.2716 9.86213C18.1018 9.88701 17.9485 9.97741 17.8445 10.114L11.0403 19.4688H3.5C3.44198 19.4688 3.38634 19.4458 3.34532 19.4047C3.3043 19.3637 3.28125 19.3081 3.28125 19.25V16.7486C3.28173 16.3419 3.30436 15.9355 3.34906 15.5313H6.125C6.29905 15.5313 6.46597 15.4622 6.58904 15.3391C6.71211 15.216 6.78125 15.0491 6.78125 14.875C6.78125 14.701 6.71211 14.5341 6.58904 14.411C6.46597 14.2879 6.29905 14.2188 6.125 14.2188H3.57766C4.65937 9.6688 8.58922 6.21911 13.3438 5.92708V8.75005C13.3438 8.9241 13.4129 9.09102 13.536 9.21409C13.659 9.33716 13.826 9.4063 14 9.4063C14.174 9.4063 14.341 9.33716 14.464 9.21409C14.5871 9.09102 14.6562 8.9241 14.6562 8.75005V5.92708C16.9642 6.06875 19.1646 6.9526 20.9293 8.44686C22.694 9.94111 23.9284 11.9657 24.4486 14.2188H21.875C21.701 14.2188 21.534 14.2879 21.411 14.411C21.2879 14.5341 21.2188 14.701 21.2188 14.875C21.2188 15.0491 21.2879 15.216 21.411 15.3391C21.534 15.4622 21.701 15.5313 21.875 15.5313H24.6641C24.7002 15.8922 24.7188 16.2576 24.7188 16.625V19.25Z" fill="#1C1C1C"/>
</svg>
