<svg width="28" height="28" viewBox="0 0 28 28" fill="none" xmlns="http://www.w3.org/2000/svg">
<path d="M21.8061 6.04954C19.7287 3.99328 16.923 2.84105 14 2.84375H13.8906C10.9508 2.87258 8.14118 4.06068 6.07257 6.14976C4.00397 8.23885 2.84361 11.06 2.84375 14C2.84375 18.6036 5.69516 22.47 10.2812 24.0909C10.6363 24.217 11.0103 24.2813 11.387 24.2813C12.2547 24.2763 13.0852 23.9287 13.6975 23.3141C14.3099 22.6994 14.6545 21.8676 14.6562 21C14.6562 20.4779 14.8637 19.9771 15.2329 19.6079C15.6021 19.2387 16.1029 19.0313 16.625 19.0313H21.6792C22.4233 19.035 23.1463 18.7842 23.7282 18.3204C24.3101 17.8567 24.716 17.2079 24.8784 16.4817C25.0703 15.6356 25.1635 14.7702 25.1562 13.9027C25.1453 12.4371 24.8435 10.9883 24.2684 9.64026C23.6933 8.29221 22.8564 7.07172 21.8061 6.04954ZM23.5987 16.1875C23.5016 16.6235 23.2583 17.0131 22.9091 17.2917C22.5599 17.5703 22.1259 17.721 21.6792 17.7188H16.625C15.7548 17.7188 14.9202 18.0645 14.3048 18.6798C13.6894 19.2952 13.3437 20.1298 13.3437 21C13.3443 21.3152 13.2691 21.626 13.1245 21.9061C12.9799 22.1862 12.7702 22.4276 12.513 22.6098C12.2557 22.792 11.9585 22.9098 11.6463 22.9532C11.334 22.9966 11.016 22.9645 10.7187 22.8594C6.67187 21.4222 4.15625 18.0305 4.15625 14C4.15611 11.4068 5.17924 8.9183 7.00336 7.07514C8.82748 5.23197 11.3052 4.18305 13.8983 4.15625H14C16.5931 4.16581 19.0784 5.19432 20.92 7.0199C22.7615 8.84549 23.8116 11.3218 23.8437 13.9147C23.8502 14.6792 23.768 15.4419 23.5987 16.1875ZM15.0937 8.3125C15.0937 8.52883 15.0296 8.74029 14.9094 8.92016C14.7892 9.10003 14.6184 9.24021 14.4186 9.323C14.2187 9.40578 13.9988 9.42744 13.7866 9.38524C13.5745 9.34304 13.3796 9.23887 13.2266 9.0859C13.0736 8.93294 12.9695 8.73805 12.9273 8.52588C12.8851 8.31372 12.9067 8.0938 12.9895 7.89394C13.0723 7.69409 13.2125 7.52327 13.3923 7.40308C13.5722 7.2829 13.7837 7.21875 14 7.21875C14.2901 7.21875 14.5683 7.33399 14.7734 7.53911C14.9785 7.74422 15.0937 8.02242 15.0937 8.3125ZM10.2812 10.9375C10.2812 11.1538 10.2171 11.3653 10.0969 11.5452C9.97674 11.725 9.80592 11.8652 9.60606 11.948C9.4062 12.0308 9.18629 12.0524 8.97412 12.0102C8.76195 11.968 8.56706 11.8639 8.4141 11.7109C8.26114 11.5579 8.15697 11.3631 8.11476 11.1509C8.07256 10.9387 8.09422 10.7188 8.17701 10.5189C8.25979 10.3191 8.39998 10.1483 8.57984 10.0281C8.75971 9.9079 8.97118 9.84375 9.1875 9.84375C9.47758 9.84375 9.75578 9.95899 9.9609 10.1641C10.166 10.3692 10.2812 10.6474 10.2812 10.9375ZM10.2812 17.0625C10.2812 17.2788 10.2171 17.4903 10.0969 17.6702C9.97674 17.85 9.80592 17.9902 9.60606 18.073C9.4062 18.1558 9.18629 18.1774 8.97412 18.1352C8.76195 18.093 8.56706 17.9889 8.4141 17.8359C8.26114 17.6829 8.15697 17.4881 8.11476 17.2759C8.07256 17.0637 8.09422 16.8438 8.17701 16.6439C8.25979 16.4441 8.39998 16.2733 8.57984 16.1531C8.75971 16.0329 8.97118 15.9688 9.1875 15.9688C9.47758 15.9688 9.75578 16.084 9.9609 16.2891C10.166 16.4942 10.2812 16.7724 10.2812 17.0625ZM19.9062 10.9375C19.9062 11.1538 19.8421 11.3653 19.7219 11.5452C19.6017 11.725 19.4309 11.8652 19.2311 11.948C19.0312 12.0308 18.8113 12.0524 18.5991 12.0102C18.387 11.968 18.1921 11.8639 18.0391 11.7109C17.8861 11.5579 17.782 11.3631 17.7398 11.1509C17.6976 10.9387 17.7192 10.7188 17.802 10.5189C17.8848 10.3191 18.025 10.1483 18.2048 10.0281C18.3847 9.9079 18.5962 9.84375 18.8125 9.84375C19.1026 9.84375 19.3808 9.95899 19.5859 10.1641C19.791 10.3692 19.9062 10.6474 19.9062 10.9375Z" fill="#9FA1A4"/>
</svg>
