<svg width="60" height="15" viewBox="0 0 60 15" fill="none" xmlns="http://www.w3.org/2000/svg">
<path d="M22.4048 3.27148H19.0889C18.862 3.27148 18.669 3.43633 18.6336 3.66033L17.2925 12.1631C17.2659 12.3309 17.3958 12.4822 17.566 12.4822H19.149C19.3759 12.4822 19.5689 12.3173 19.6043 12.0928L19.966 9.79948C20.0009 9.575 20.1944 9.41015 20.4208 9.41015H21.4705C23.6547 9.41015 24.9153 8.35318 25.2445 6.25864C25.3929 5.34227 25.2508 4.62227 24.8218 4.11803C24.3505 3.56433 23.5146 3.27148 22.4048 3.27148ZM22.7873 6.37694C22.606 7.56676 21.6969 7.56676 20.8179 7.56676H20.3175L20.6685 5.3447C20.6894 5.21039 20.8058 5.11148 20.9415 5.11148H21.1708C21.7696 5.11148 22.3345 5.11148 22.6264 5.45282C22.8004 5.65645 22.8538 5.959 22.7873 6.37694Z" fill="#253B80"/>
<path d="M32.315 6.33879H30.7271C30.5918 6.33879 30.475 6.4377 30.4541 6.572L30.3838 7.01612L30.2728 6.85515C29.929 6.35624 29.1625 6.18945 28.3974 6.18945C26.6427 6.18945 25.1441 7.51842 24.8522 9.38266C24.7004 10.3126 24.9162 11.2018 25.4437 11.8219C25.9276 12.3921 26.6199 12.6297 27.4437 12.6297C28.8575 12.6297 29.6415 11.7206 29.6415 11.7206L29.5707 12.1618C29.5441 12.3305 29.674 12.4818 29.8432 12.4818H31.2735C31.5009 12.4818 31.6929 12.317 31.7288 12.0925L32.587 6.65782C32.6141 6.49054 32.4847 6.33879 32.315 6.33879ZM30.1016 9.42921C29.9484 10.3364 29.2284 10.9453 28.3101 10.9453C27.849 10.9453 27.4806 10.7975 27.2439 10.5172C27.0093 10.2389 26.9201 9.84279 26.9947 9.40157C27.1378 8.50218 27.8699 7.87333 28.7741 7.87333C29.225 7.87333 29.5916 8.02315 29.833 8.30582C30.075 8.59139 30.171 8.98994 30.1016 9.42921Z" fill="#253B80"/>
<path d="M40.7731 6.33984H39.1775C39.0252 6.33984 38.8822 6.41548 38.7959 6.54203L36.5952 9.78372L35.6623 6.66857C35.6037 6.47366 35.4238 6.33984 35.2201 6.33984H33.6521C33.4616 6.33984 33.3292 6.52603 33.3898 6.70542L35.1474 11.8632L33.4951 14.1958C33.3651 14.3796 33.496 14.6322 33.7205 14.6322H35.3142C35.4655 14.6322 35.6071 14.5585 35.6929 14.4344L41 6.77378C41.1271 6.59051 40.9966 6.33984 40.7731 6.33984Z" fill="#253B80"/>
<path d="M46.0532 3.27148H42.7369C42.5104 3.27148 42.3175 3.43633 42.2821 3.66033L40.941 12.1631C40.9143 12.3309 41.0443 12.4822 41.2135 12.4822H42.9153C43.0733 12.4822 43.2086 12.3668 43.2333 12.2097L43.614 9.79948C43.6489 9.575 43.8423 9.41015 44.0687 9.41015H45.118C47.3027 9.41015 48.5628 8.35318 48.8925 6.25864C49.0413 5.34227 48.8983 4.62227 48.4692 4.11803C47.9984 3.56433 47.163 3.27148 46.0532 3.27148ZM46.4358 6.37694C46.2549 7.56676 45.3458 7.56676 44.4663 7.56676H43.9664L44.318 5.3447C44.3388 5.21039 44.4542 5.11148 44.5904 5.11148H44.8198C45.4181 5.11148 45.9834 5.11148 46.2753 5.45282C46.4493 5.65645 46.5022 5.959 46.4358 6.37694Z" fill="#179BD7"/>
<path d="M55.9692 6.33879H54.3822C54.246 6.33879 54.1301 6.4377 54.1098 6.572L54.0395 7.01612L53.9279 6.85515C53.5842 6.35624 52.8181 6.18945 52.053 6.18945C50.2984 6.18945 48.8002 7.51842 48.5083 9.38266C48.357 10.3126 48.5718 11.2018 49.0993 11.8219C49.5842 12.3921 50.2756 12.6297 51.0993 12.6297C52.5132 12.6297 53.2972 11.7206 53.2972 11.7206L53.2264 12.1618C53.1997 12.3305 53.3296 12.4818 53.4998 12.4818H54.9296C55.1561 12.4818 55.349 12.317 55.3844 12.0925L56.2431 6.65782C56.2693 6.49054 56.1393 6.33879 55.9692 6.33879ZM53.7558 9.42921C53.6036 10.3364 52.8826 10.9453 51.9643 10.9453C51.5042 10.9453 51.1347 10.7975 50.8981 10.5172C50.6635 10.2389 50.5752 9.84279 50.6489 9.40157C50.7929 8.50218 51.5241 7.87333 52.4283 7.87333C52.8792 7.87333 53.2458 8.02315 53.4872 8.30582C53.7301 8.59139 53.8261 8.98994 53.7558 9.42921Z" fill="#179BD7"/>
<path d="M57.841 3.50518L56.48 12.1636C56.4534 12.3314 56.5833 12.4826 56.7525 12.4826H58.1208C58.3482 12.4826 58.5411 12.3178 58.576 12.0933L59.9181 3.591C59.9448 3.42324 59.8148 3.27148 59.6456 3.27148H58.1135C57.9782 3.27197 57.8619 3.37088 57.841 3.50518Z" fill="#179BD7"/>
<path d="M3.52411 14.1349L3.77769 12.5242L3.21284 12.5111H0.515625L2.39005 0.626033C2.39587 0.590154 2.41478 0.5567 2.44241 0.532942C2.47005 0.509185 2.50544 0.496094 2.54229 0.496094H7.09017C8.59999 0.496094 9.64193 0.810275 10.1859 1.4304C10.441 1.72131 10.6034 2.02531 10.6819 2.35985C10.7644 2.71088 10.7658 3.13028 10.6853 3.64179L10.6795 3.67912V4.00688L10.9345 4.15137C11.1493 4.26531 11.32 4.39573 11.4509 4.54506C11.6691 4.79379 11.8102 5.10991 11.8698 5.4847C11.9314 5.87015 11.911 6.32882 11.8102 6.84809C11.6938 7.44543 11.5057 7.96567 11.2516 8.39137C11.0179 8.78361 10.7202 9.10894 10.3668 9.36106C10.0293 9.60058 9.62835 9.7824 9.17502 9.89876C8.73575 10.0132 8.2349 10.0709 7.68556 10.0709H7.33162C7.07853 10.0709 6.83272 10.162 6.63975 10.3254C6.44629 10.4922 6.31829 10.7201 6.27902 10.9693L6.25235 11.1143L5.80435 13.9531L5.78399 14.0573C5.77866 14.0903 5.76944 14.1068 5.75587 14.1179C5.74375 14.1281 5.72629 14.1349 5.70932 14.1349H3.52411Z" fill="#253B80"/>
<path d="M11.1744 3.7168C11.1608 3.80358 11.1453 3.89231 11.1278 3.98346C10.5281 7.06274 8.4762 8.12649 5.8556 8.12649H4.52129C4.20081 8.12649 3.93075 8.35922 3.88081 8.67534L3.19766 13.0079L3.0042 14.2361C2.97172 14.4436 3.13172 14.6307 3.34117 14.6307H5.70772C5.98796 14.6307 6.22602 14.4271 6.27014 14.1507L6.29341 14.0305L6.73899 11.2029L6.7676 11.0477C6.81123 10.7704 7.04978 10.5667 7.33002 10.5667H7.68396C9.97681 10.5667 11.7717 9.63583 12.2963 6.94201C12.5155 5.81668 12.402 4.87704 11.8221 4.21619C11.6466 4.01692 11.4289 3.85158 11.1744 3.7168Z" fill="#179BD7"/>
<path d="M10.549 3.46723C10.4574 3.44056 10.3628 3.41632 10.2658 3.3945C10.1684 3.37317 10.0685 3.35426 9.96572 3.33777C9.60596 3.27959 9.21178 3.25195 8.78948 3.25195H5.22487C5.13712 3.25195 5.05372 3.27183 4.97905 3.30771C4.81469 3.38674 4.69251 3.54238 4.66293 3.73292L3.90463 8.53583L3.88281 8.67595C3.93275 8.35983 4.20281 8.1271 4.5233 8.1271H5.8576C8.47821 8.1271 10.5301 7.06286 11.1298 3.98407C11.1478 3.89292 11.1628 3.8042 11.1764 3.71741C11.0246 3.63692 10.8603 3.56807 10.6833 3.50941C10.6397 3.49486 10.5946 3.4808 10.549 3.46723Z" fill="#222D65"/>
<path d="M4.66133 3.73285C4.6909 3.5423 4.81308 3.38667 4.97745 3.30812C5.0526 3.27224 5.13551 3.25236 5.22327 3.25236H8.78787C9.21018 3.25236 9.60436 3.28 9.96412 3.33818C10.0669 3.35467 10.1668 3.37358 10.2642 3.39491C10.3612 3.41673 10.4558 3.44097 10.5474 3.46764C10.593 3.48121 10.6381 3.49527 10.6822 3.50933C10.8591 3.568 11.0235 3.63733 11.1753 3.71733C11.3537 2.57939 11.1738 1.80461 10.5585 1.10303C9.88024 0.330667 8.65599 0 7.08945 0H2.54157C2.22157 0 1.9486 0.232727 1.89915 0.549333L0.00484307 12.5566C-0.0324903 12.7942 0.150782 13.0085 0.390298 13.0085H3.19806L3.90302 8.53576L4.66133 3.73285Z" fill="#253B80"/>
</svg>
