<svg width="38" height="40" viewBox="0 0 38 40" fill="none" xmlns="http://www.w3.org/2000/svg">
<path d="M37.4773 10.8248L27.2868 0.235781C27.1417 0.0851562 26.9416 0 26.7325 0H11.5442C9.84445 0 8.46156 1.38234 8.46156 3.08141V13.8462H2.30633C1.03461 13.8462 0 14.8805 0 16.1519V27.6944C0 28.9657 1.03461 30 2.30633 30H8.46156V36.924C8.46156 38.6201 9.84445 40 11.5442 40H34.6097C36.3095 40 37.6923 38.6209 37.6923 36.9257V11.3582C37.6923 11.1593 37.6152 10.9681 37.4773 10.8248ZM26.9231 2.07664L35.2887 10.7692H26.9231V2.07664ZM2.30633 28.4616C1.88289 28.4616 1.53852 28.1174 1.53852 27.6944V16.1519C1.53852 15.7288 1.88297 15.3846 2.30633 15.3846H23.0784C23.5018 15.3846 23.8462 15.7288 23.8462 16.1519V27.6944C23.8462 28.1174 23.5017 28.4616 23.0784 28.4616H2.30633ZM36.1538 36.9257C36.1538 37.7726 35.4611 38.4616 34.6096 38.4616H11.5442C10.6927 38.4616 10 37.7719 10 36.9241V30H23.0784C24.3501 30 25.3847 28.9657 25.3847 27.6944V16.1519C25.3847 14.8805 24.3501 13.8462 23.0784 13.8462H10V3.08141C10 2.23055 10.6927 1.53844 11.5442 1.53844H25.3846V11.5384C25.3846 11.9633 25.7291 12.3077 26.1538 12.3077H36.1538V36.9257Z" fill="#1C1C1C"/>
<path d="M9.19609 19.5233C8.9407 19.1913 8.62367 18.9756 8.24508 18.8765C7.99867 18.8104 7.46984 18.7773 6.65852 18.7773H4.51758V25.3849H5.85172V22.8924H6.72164C7.32562 22.8924 7.78687 22.8609 8.10539 22.7977C8.33977 22.7466 8.57039 22.6423 8.79727 22.4845C9.02414 22.3267 9.21117 22.1096 9.35844 21.8332C9.5057 21.5568 9.5793 21.2157 9.5793 20.8101C9.57922 20.2842 9.45148 19.8553 9.19609 19.5233ZM8.05352 21.342C7.95289 21.4892 7.81391 21.5973 7.63656 21.6665C7.45922 21.7356 7.10773 21.7702 6.58187 21.7702H5.85172V19.8952H6.49625C6.97703 19.8952 7.29703 19.9102 7.45625 19.9402C7.67258 19.9793 7.85141 20.077 7.99258 20.2332C8.13383 20.3895 8.20445 20.5878 8.20445 20.8281C8.20453 21.0234 8.15414 21.1947 8.05352 21.342Z" fill="#1C1C1C"/>
<path d="M15.993 20.5825C15.8488 20.1603 15.6384 19.8035 15.362 19.512C15.0855 19.2205 14.7534 19.0177 14.3659 18.9035C14.0774 18.8194 13.6582 18.7773 13.1084 18.7773H10.6699V25.3849H13.1805C13.6733 25.3849 14.0669 25.3384 14.3613 25.2452C14.755 25.119 15.0675 24.9432 15.2988 24.7178C15.6053 24.4203 15.8412 24.0312 16.0065 23.5505C16.1417 23.1568 16.2093 22.688 16.2093 22.1442C16.2093 21.5252 16.1372 21.0047 15.993 20.5825ZM14.6948 23.2959C14.6047 23.5919 14.4883 23.8045 14.3455 23.9336C14.2028 24.0628 14.0233 24.1545 13.807 24.2085C13.6417 24.2506 13.3727 24.2716 13.0002 24.2716H12.0041V19.8952H12.6035C13.1473 19.8952 13.5125 19.9162 13.6988 19.9583C13.9481 20.0123 14.154 20.116 14.3163 20.2693C14.4785 20.4226 14.6047 20.6359 14.6948 20.9093C14.785 21.1827 14.8301 21.5748 14.8301 22.0857C14.8301 22.5965 14.785 22.9998 14.6948 23.2959Z" fill="#1C1C1C"/>
<path d="M21.8794 19.8952V18.7773H17.3496V25.3849H18.6838V22.577H21.4422V21.4591H18.6838V19.8952H21.8794Z" fill="#1C1C1C"/>
</svg>
