<svg width="20" height="20" viewBox="0 0 20 20" fill="none" xmlns="http://www.w3.org/2000/svg">
<path d="M11.2711 3.58825C11.2923 3.50893 11.329 3.43457 11.3789 3.36941C11.4289 3.30426 11.4912 3.24958 11.5623 3.20852C11.6334 3.16746 11.7119 3.1408 11.7933 3.13009C11.8747 3.11937 11.9574 3.1248 12.0367 3.14606C13.1954 3.44836 14.2525 4.05406 15.0992 4.90077C15.9459 5.74749 16.5516 6.8046 16.8539 7.96325C16.8752 8.04255 16.8806 8.12527 16.8699 8.20668C16.8592 8.28808 16.8325 8.36658 16.7915 8.43768C16.7504 8.50878 16.6957 8.57109 16.6306 8.62105C16.5654 8.67102 16.491 8.70765 16.4117 8.72887C16.3589 8.74274 16.3046 8.74983 16.25 8.74996C16.1123 8.74996 15.9784 8.70446 15.8692 8.62054C15.76 8.53663 15.6816 8.41898 15.6461 8.2859C15.3995 7.34006 14.9052 6.47708 14.2141 5.78592C13.5229 5.09476 12.6599 4.60042 11.7141 4.35387C11.6347 4.33274 11.5602 4.29616 11.495 4.24623C11.4298 4.19631 11.375 4.134 11.3339 4.0629C11.2927 3.99179 11.266 3.91326 11.2552 3.83182C11.2445 3.75037 11.2499 3.6676 11.2711 3.58825ZM11.0891 6.85387C12.1664 7.14137 12.8586 7.83356 13.1461 8.9109C13.1816 9.04398 13.26 9.16163 13.3692 9.24554C13.4784 9.32946 13.6123 9.37496 13.75 9.37496C13.8046 9.37483 13.8589 9.36774 13.9117 9.35387C13.991 9.33265 14.0654 9.29602 14.1306 9.24605C14.1957 9.19609 14.2504 9.13378 14.2915 9.06268C14.3325 8.99158 14.3592 8.91308 14.3699 8.83168C14.3806 8.75027 14.3752 8.66755 14.3539 8.58825C13.9539 7.09137 12.9086 6.04606 11.4117 5.64606C11.2516 5.60327 11.081 5.62586 10.9374 5.70886C10.7939 5.79186 10.6893 5.92847 10.6465 6.08864C10.6037 6.2488 10.6263 6.4194 10.7093 6.56291C10.7923 6.70642 10.9289 6.81108 11.0891 6.85387ZM17.4906 14.3031C17.3513 15.3617 16.8314 16.3334 16.0281 17.0367C15.2247 17.7401 14.1927 18.1269 13.125 18.125C6.92188 18.125 1.87501 13.0781 1.87501 6.87496C1.87309 5.80722 2.25992 4.77529 2.96324 3.97191C3.66655 3.16853 4.63826 2.64864 5.69688 2.50934C5.96458 2.47665 6.23567 2.53142 6.46968 2.66546C6.7037 2.79951 6.88809 3.00564 6.99532 3.25309L8.64532 6.93668V6.94606C8.72742 7.13547 8.76133 7.34228 8.74401 7.54799C8.7267 7.75371 8.6587 7.95193 8.5461 8.12496C8.53204 8.14606 8.51719 8.16559 8.50157 8.18512L6.87501 10.1132C7.46016 11.3023 8.70391 12.5351 9.9086 13.1218L11.8102 11.5039C11.8288 11.4882 11.8484 11.4736 11.8688 11.4601C12.0416 11.3448 12.2405 11.2744 12.4475 11.2553C12.6544 11.2362 12.8628 11.269 13.0539 11.3507L13.0641 11.3554L16.7445 13.0047C16.9924 13.1115 17.1991 13.2957 17.3335 13.5298C17.468 13.7638 17.5231 14.0351 17.4906 14.3031ZM16.25 14.1468C16.25 14.1468 16.2445 14.1468 16.2414 14.1468L12.5695 12.5023L10.6672 14.1203C10.6487 14.1359 10.6294 14.1505 10.6094 14.164C10.4295 14.284 10.2216 14.3553 10.0059 14.3709C9.79023 14.3865 9.5742 14.3459 9.37891 14.2531C7.91563 13.5461 6.45704 12.0984 5.74923 10.6507C5.6555 10.4569 5.61344 10.2421 5.62713 10.0272C5.64082 9.8123 5.70978 9.60459 5.82735 9.42418C5.8406 9.403 5.85549 9.38289 5.87188 9.36403L7.50001 7.43356L5.85938 3.76168C5.85907 3.75857 5.85907 3.75543 5.85938 3.75231C5.10177 3.85114 4.40616 4.22275 3.90283 4.79755C3.3995 5.37236 3.12296 6.11093 3.12501 6.87496C3.1279 9.52624 4.1824 12.0681 6.05714 13.9428C7.93187 15.8176 10.4737 16.8721 13.125 16.875C13.8886 16.8776 14.6269 16.602 15.2021 16.0998C15.7772 15.5975 16.1497 14.903 16.25 14.1461V14.1468Z" fill="white"/>
</svg>
