<svg width="52" height="52" viewBox="0 0 52 52" fill="none" xmlns="http://www.w3.org/2000/svg">
<rect x="1" y="1" width="50" height="50" rx="25" fill="white"/>
<rect x="1" y="1" width="50" height="50" rx="25" stroke="#1C1C1C" stroke-width="2"/>
<path d="M29.275 14.8053C29.3004 14.71 29.3443 14.6207 29.4043 14.5425C29.4642 14.4642 29.5389 14.3986 29.6243 14.3492C29.7096 14.2999 29.8038 14.2678 29.9015 14.2549C29.9993 14.242 30.0986 14.2485 30.1938 14.274C32.0053 14.7466 33.658 15.6935 34.9818 17.0173C36.3056 18.341 37.2525 19.9938 37.725 21.8053C37.7505 21.9005 37.757 21.9998 37.7441 22.0975C37.7312 22.1952 37.6992 22.2894 37.6498 22.3748C37.6005 22.4601 37.5348 22.5349 37.4566 22.5948C37.3783 22.6547 37.289 22.6986 37.1938 22.724C37.1306 22.7409 37.0654 22.7493 37 22.749C36.8348 22.7491 36.6741 22.6947 36.543 22.5941C36.4119 22.4935 36.3177 22.3524 36.275 22.1928C35.8693 20.6368 35.0561 19.2171 33.919 18.08C32.782 16.943 31.3623 16.1297 29.8063 15.724C29.711 15.6986 29.6217 15.6547 29.5435 15.5948C29.4652 15.5349 29.3995 15.4601 29.3502 15.3748C29.3009 15.2894 29.2688 15.1952 29.2559 15.0975C29.243 14.9998 29.2495 14.9005 29.275 14.8053ZM28.8063 19.724C30.625 20.209 31.79 21.374 32.275 23.1928C32.3177 23.3524 32.4119 23.4935 32.543 23.5941C32.6741 23.6947 32.8348 23.7491 33 23.749C33.0654 23.7493 33.1306 23.7409 33.1938 23.724C33.289 23.6986 33.3783 23.6547 33.4566 23.5948C33.5348 23.5349 33.6005 23.4601 33.6498 23.3748C33.6992 23.2894 33.7312 23.1952 33.7441 23.0975C33.757 22.9998 33.7505 22.9005 33.725 22.8053C33.1 20.4665 31.5325 18.899 29.1938 18.274C29.0986 18.2486 28.9993 18.2421 28.9016 18.2551C28.8039 18.268 28.7097 18.3 28.6244 18.3494C28.4521 18.449 28.3264 18.613 28.275 18.8053C28.2236 18.9976 28.2507 19.2024 28.3504 19.3747C28.45 19.547 28.614 19.6726 28.8063 19.724ZM38.7363 31.849C38.5221 33.4831 37.7202 34.9832 36.4805 36.069C35.2408 37.1549 33.648 37.7521 32 37.749C22.2125 37.749 14.25 29.7865 14.25 19.999C14.2469 18.3516 14.8435 16.7593 15.9286 15.5197C17.0137 14.28 18.5129 13.4778 20.1463 13.2628C20.5223 13.2171 20.9029 13.2946 21.2311 13.4837C21.5593 13.6728 21.8173 13.9633 21.9663 14.3115L24.6038 20.199C24.7202 20.4656 24.7684 20.7569 24.744 21.0468C24.7195 21.3366 24.6232 21.6158 24.4638 21.859C24.4477 21.8838 24.4302 21.9076 24.4113 21.9303L21.7775 25.0628C21.7615 25.0953 21.7532 25.131 21.7532 25.1672C21.7532 25.2034 21.7615 25.2391 21.7775 25.2715C22.735 27.2315 24.79 29.2715 26.7775 30.2278C26.8107 30.2429 26.8469 30.2501 26.8834 30.2488C26.9198 30.2475 26.9555 30.2377 26.9875 30.2203L30.0738 27.5953C30.0958 27.5761 30.1192 27.5586 30.1438 27.5428C30.3859 27.3813 30.6646 27.2828 30.9544 27.2562C31.2443 27.2296 31.5362 27.2756 31.8038 27.3903L37.7088 30.0365C38.0524 30.1888 38.3378 30.4477 38.5228 30.7748C38.7079 31.1019 38.7827 31.4798 38.7363 31.8528V31.849ZM37.25 31.664C37.2542 31.6118 37.2419 31.5595 37.2147 31.5146C37.1876 31.4698 37.147 31.4346 37.0988 31.414L31.1925 28.7678C31.1602 28.7553 31.1257 28.75 31.0911 28.7522C31.0566 28.7543 31.023 28.7639 30.9925 28.7803L27.9075 31.4053C27.885 31.424 27.8613 31.4415 27.8375 31.4578C27.5859 31.6256 27.295 31.7253 26.9934 31.7472C26.6917 31.7691 26.3895 31.7125 26.1163 31.5828C23.8213 30.474 21.5338 28.2078 20.425 25.934C20.2946 25.6624 20.2366 25.3616 20.2565 25.061C20.2764 24.7603 20.3736 24.4699 20.5388 24.2178C20.5549 24.1927 20.5728 24.1689 20.5925 24.1465L23.225 21.014C23.2401 20.9813 23.2478 20.9457 23.2478 20.9097C23.2478 20.8736 23.2401 20.838 23.225 20.8053L20.5925 14.9128C20.5751 14.8655 20.5439 14.8246 20.5028 14.7953C20.4618 14.7661 20.4129 14.75 20.3625 14.749H20.3338C19.0624 14.9181 17.8961 15.5442 17.0526 16.5103C16.2091 17.4764 15.7461 18.7165 15.75 19.999C15.75 28.959 23.04 36.249 32 36.249C33.2827 36.2529 34.523 35.7897 35.4891 34.9459C36.4552 34.1022 37.0812 32.9356 37.25 31.664Z" fill="#1C1C1C"/>
</svg>
