<svg width="16" height="16" viewBox="0 0 16 16" fill="none" xmlns="http://www.w3.org/2000/svg">
<g clip-path="url(#clip0_13399_19527)">
<path d="M10 8L7 6V10L10 8Z" stroke="white" stroke-linecap="round" stroke-linejoin="round"/>
<path d="M1.5 8.00006C1.5 9.86943 1.69187 10.9657 1.83812 11.5294C1.8768 11.6828 1.95129 11.8248 2.05548 11.9437C2.15967 12.0627 2.2906 12.1553 2.4375 12.2138C4.5325 13.0219 8 13.0001 8 13.0001C8 13.0001 11.4675 13.0219 13.5625 12.2138C13.7099 12.1556 13.8413 12.0632 13.9459 11.9442C14.0506 11.8252 14.1254 11.683 14.1644 11.5294C14.3106 10.9669 14.5025 9.86943 14.5025 8.00006C14.5025 6.13068 14.3106 5.03443 14.1644 4.47068C14.1259 4.31651 14.0512 4.17373 13.9466 4.05417C13.8419 3.93461 13.7102 3.84172 13.5625 3.78318C11.4675 2.97818 8 3.00006 8 3.00006C8 3.00006 4.5325 2.97818 2.4375 3.78631C2.28977 3.84484 2.15812 3.93774 2.05345 4.05729C1.94878 4.17685 1.87411 4.31964 1.83563 4.47381C1.69188 5.03381 1.5 6.13068 1.5 8.00006Z" stroke="white" stroke-linecap="round" stroke-linejoin="round"/>
</g>
<defs>
<clipPath id="clip0_13399_19527">
<rect width="16" height="16" fill="white"/>
</clipPath>
</defs>
</svg>
