<svg width="24" height="24" viewBox="0 0 24 24" fill="none" xmlns="http://www.w3.org/2000/svg">
<path d="M12 2.4375C10.1087 2.4375 8.25991 2.99833 6.68736 4.04907C5.11482 5.09981 3.88917 6.59327 3.16541 8.34059C2.44164 10.0879 2.25227 12.0106 2.62125 13.8656C2.99022 15.7205 3.90096 17.4244 5.2383 18.7617C6.57564 20.099 8.27951 21.0098 10.1345 21.3788C11.9894 21.7477 13.9121 21.5584 15.6594 20.8346C17.4067 20.1108 18.9002 18.8852 19.9509 17.3126C21.0017 15.7401 21.5625 13.8913 21.5625 12C21.5595 9.46478 20.5511 7.03425 18.7584 5.24158C16.9658 3.44891 14.5352 2.44048 12 2.4375ZM12 20.4375C10.3312 20.4375 8.69992 19.9426 7.31238 19.0155C5.92484 18.0884 4.84338 16.7706 4.20477 15.2289C3.56616 13.6871 3.39907 11.9906 3.72463 10.3539C4.05019 8.71721 4.85379 7.21379 6.03379 6.03379C7.2138 4.85378 8.71722 4.05019 10.3539 3.72462C11.9906 3.39906 13.6871 3.56615 15.2289 4.20477C16.7706 4.84338 18.0884 5.92484 19.0155 7.31238C19.9427 8.69992 20.4375 10.3312 20.4375 12C20.435 14.237 19.5453 16.3817 17.9635 17.9635C16.3817 19.5453 14.237 20.435 12 20.4375ZM16.4231 11.5228L10.4231 7.77281C10.338 7.71959 10.2401 7.69013 10.1397 7.6875C10.0393 7.68488 9.94007 7.70917 9.85224 7.75787C9.76441 7.80657 9.69122 7.87789 9.64027 7.96443C9.58932 8.05097 9.56247 8.14957 9.5625 8.25V15.75C9.56247 15.8504 9.58932 15.949 9.64027 16.0356C9.69122 16.1221 9.76441 16.1934 9.85224 16.2421C9.94007 16.2908 10.0393 16.3151 10.1397 16.3125C10.2401 16.3099 10.338 16.2804 10.4231 16.2272L16.4231 12.4772C16.5041 12.4266 16.5709 12.3563 16.6172 12.2728C16.6635 12.1894 16.6878 12.0955 16.6878 12C16.6878 11.9045 16.6635 11.8106 16.6172 11.7272C16.5709 11.6437 16.5041 11.5734 16.4231 11.5228ZM10.6875 14.7347V9.26531L15.0638 12L10.6875 14.7347Z" fill="white"/>
</svg>
