<svg width="28" height="28" viewBox="0 0 28 28" fill="none" xmlns="http://www.w3.org/2000/svg">
<path d="M11.375 4.59375H6.125C5.71889 4.59375 5.32941 4.75508 5.04224 5.04224C4.75508 5.32941 4.59375 5.71889 4.59375 6.125V11.375C4.59375 11.5761 4.63336 11.7752 4.71031 11.961C4.78726 12.1468 4.90005 12.3156 5.04224 12.4578C5.18443 12.5999 5.35324 12.7127 5.53902 12.7897C5.7248 12.8666 5.92391 12.9062 6.125 12.9062H11.375C11.5761 12.9062 11.7752 12.8666 11.961 12.7897C12.1468 12.7127 12.3156 12.5999 12.4578 12.4578C12.5999 12.3156 12.7127 12.1468 12.7897 11.961C12.8666 11.7752 12.9062 11.5761 12.9062 11.375V6.125C12.9062 5.92391 12.8666 5.7248 12.7897 5.53902C12.7127 5.35324 12.5999 5.18443 12.4578 5.04224C12.3156 4.90005 12.1468 4.78726 11.961 4.71031C11.7752 4.63336 11.5761 4.59375 11.375 4.59375ZM11.5938 11.375C11.5938 11.433 11.5707 11.4887 11.5297 11.5297C11.4887 11.5707 11.433 11.5938 11.375 11.5938H6.125C6.06698 11.5938 6.01134 11.5707 5.97032 11.5297C5.9293 11.4887 5.90625 11.433 5.90625 11.375V6.125C5.90625 6.06698 5.9293 6.01134 5.97032 5.97032C6.01134 5.9293 6.06698 5.90625 6.125 5.90625H11.375C11.433 5.90625 11.4887 5.9293 11.5297 5.97032C11.5707 6.01134 11.5938 6.06698 11.5938 6.125V11.375ZM11.375 15.0938H6.125C5.71889 15.0938 5.32941 15.2551 5.04224 15.5422C4.75508 15.8294 4.59375 16.2189 4.59375 16.625V21.875C4.59375 22.2811 4.75508 22.6706 5.04224 22.9578C5.32941 23.2449 5.71889 23.4062 6.125 23.4062H11.375C11.5761 23.4062 11.7752 23.3666 11.961 23.2897C12.1468 23.2127 12.3156 23.0999 12.4578 22.9578C12.5999 22.8156 12.7127 22.6468 12.7897 22.461C12.8666 22.2752 12.9062 22.0761 12.9062 21.875V16.625C12.9062 16.4239 12.8666 16.2248 12.7897 16.039C12.7127 15.8532 12.5999 15.6844 12.4578 15.5422C12.3156 15.4001 12.1468 15.2873 11.961 15.2103C11.7752 15.1334 11.5761 15.0938 11.375 15.0938ZM11.5938 21.875C11.5938 21.933 11.5707 21.9887 11.5297 22.0297C11.4887 22.0707 11.433 22.0938 11.375 22.0938H6.125C6.06698 22.0938 6.01134 22.0707 5.97032 22.0297C5.9293 21.9887 5.90625 21.933 5.90625 21.875V16.625C5.90625 16.567 5.9293 16.5113 5.97032 16.4703C6.01134 16.4293 6.06698 16.4062 6.125 16.4062H11.375C11.433 16.4062 11.4887 16.4293 11.5297 16.4703C11.5707 16.5113 11.5938 16.567 11.5938 16.625V21.875ZM21.875 4.59375H16.625C16.2189 4.59375 15.8294 4.75508 15.5422 5.04224C15.2551 5.32941 15.0938 5.71889 15.0938 6.125V11.375C15.0938 11.5761 15.1334 11.7752 15.2103 11.961C15.2873 12.1468 15.4001 12.3156 15.5422 12.4578C15.6844 12.5999 15.8532 12.7127 16.039 12.7897C16.2248 12.8666 16.4239 12.9062 16.625 12.9062H21.875C22.0761 12.9062 22.2752 12.8666 22.461 12.7897C22.6468 12.7127 22.8156 12.5999 22.9578 12.4578C23.0999 12.3156 23.2127 12.1468 23.2897 11.961C23.3666 11.7752 23.4062 11.5761 23.4062 11.375V6.125C23.4062 5.71889 23.2449 5.32941 22.9578 5.04224C22.6706 4.75508 22.2811 4.59375 21.875 4.59375ZM22.0938 11.375C22.0938 11.433 22.0707 11.4887 22.0297 11.5297C21.9887 11.5707 21.933 11.5938 21.875 11.5938H16.625C16.567 11.5938 16.5113 11.5707 16.4703 11.5297C16.4293 11.4887 16.4062 11.433 16.4062 11.375V6.125C16.4062 6.06698 16.4293 6.01134 16.4703 5.97032C16.5113 5.9293 16.567 5.90625 16.625 5.90625H21.875C21.933 5.90625 21.9887 5.9293 22.0297 5.97032C22.0707 6.01134 22.0938 6.06698 22.0938 6.125V11.375ZM15.0938 19.25V15.75C15.0938 15.576 15.1629 15.409 15.286 15.286C15.409 15.1629 15.576 15.0938 15.75 15.0938C15.924 15.0938 16.091 15.1629 16.214 15.286C16.3371 15.409 16.4062 15.576 16.4062 15.75V19.25C16.4062 19.424 16.3371 19.591 16.214 19.714C16.091 19.8371 15.924 19.9062 15.75 19.9062C15.576 19.9062 15.409 19.8371 15.286 19.714C15.1629 19.591 15.0938 19.424 15.0938 19.25ZM23.4062 17.5C23.4062 17.674 23.3371 17.841 23.214 17.964C23.091 18.0871 22.924 18.1562 22.75 18.1562H19.9062V22.75C19.9062 22.924 19.8371 23.091 19.714 23.214C19.591 23.3371 19.424 23.4062 19.25 23.4062H15.75C15.576 23.4062 15.409 23.3371 15.286 23.214C15.1629 23.091 15.0938 22.924 15.0938 22.75C15.0938 22.576 15.1629 22.409 15.286 22.286C15.409 22.1629 15.576 22.0938 15.75 22.0938H18.5938V15.75C18.5938 15.576 18.6629 15.409 18.786 15.286C18.909 15.1629 19.076 15.0938 19.25 15.0938C19.424 15.0938 19.591 15.1629 19.714 15.286C19.8371 15.409 19.9062 15.576 19.9062 15.75V16.8438H22.75C22.924 16.8438 23.091 16.9129 23.214 17.036C23.3371 17.159 23.4062 17.326 23.4062 17.5ZM23.4062 21V22.75C23.4062 22.924 23.3371 23.091 23.214 23.214C23.091 23.3371 22.924 23.4062 22.75 23.4062C22.576 23.4062 22.409 23.3371 22.286 23.214C22.1629 23.091 22.0938 22.924 22.0938 22.75V21C22.0938 20.826 22.1629 20.659 22.286 20.536C22.409 20.4129 22.576 20.3438 22.75 20.3438C22.924 20.3438 23.091 20.4129 23.214 20.536C23.3371 20.659 23.4062 20.826 23.4062 21Z" fill="#9FA1A4"/>
</svg>
