<svg width="40" height="32" viewBox="0 0 40 32" fill="none" xmlns="http://www.w3.org/2000/svg">
<path d="M9.50653 14.5395C8.08185 14.5443 6.6824 14.9157 5.44283 15.618C7.18801 11.1007 10.0825 7.11749 13.8399 4.06243C14.0548 3.88539 14.2328 3.66774 14.3637 3.4219C14.4946 3.17607 14.5757 2.90687 14.6026 2.62967C14.6294 2.35247 14.6013 2.0727 14.5201 1.80633C14.4388 1.53997 14.3058 1.29222 14.1288 1.07725C13.9517 0.862267 13.7341 0.684263 13.4882 0.553399C13.2424 0.422536 12.9732 0.341375 12.696 0.314549C12.4188 0.287723 12.139 0.315759 11.8727 0.397055C11.6063 0.478351 11.3585 0.611315 11.1436 0.788356C3.43987 7.04761 0.0117188 15.7143 0.0117188 21.0876C0.0249923 22.9875 0.591172 24.8424 1.64113 26.4259C2.69108 28.0094 4.17938 29.2529 5.92431 30.0046C7.0536 30.5517 8.29028 30.8411 9.54505 30.852C10.6495 30.9057 11.7533 30.7345 12.7896 30.3489C13.8259 29.9632 14.7731 29.3711 15.5738 28.6084C16.3744 27.8458 17.0118 26.9284 17.4473 25.9121C17.8829 24.8957 18.1074 23.8015 18.1074 22.6958C18.1074 21.59 17.8829 20.4958 17.4473 19.4794C17.0118 18.4631 16.3744 17.5457 15.5738 16.7831C14.7731 16.0204 13.8259 15.4283 12.7896 15.0426C11.7533 14.657 10.6495 14.4858 9.54505 14.5395H9.50653Z" fill="#98BC2A"/>
<path d="M30.9636 14.5407C29.5387 14.5438 28.1388 14.9153 26.8999 15.6192C28.6443 11.1067 31.5312 7.1248 35.2776 4.06367C35.5121 3.89465 35.7096 3.67942 35.8578 3.43125C36.006 3.18307 36.1018 2.90719 36.1394 2.62059C36.177 2.33398 36.1555 2.04271 36.0763 1.76471C35.9971 1.48671 35.8619 1.22786 35.6789 1.00408C35.496 0.780302 35.2691 0.596335 35.0124 0.463501C34.7557 0.330667 34.4745 0.251778 34.1861 0.231686C33.8978 0.211595 33.6083 0.250726 33.3357 0.346673C33.063 0.442621 32.8128 0.593354 32.6006 0.789595C24.8969 7.04886 21.4688 15.7155 21.4688 21.0889C21.4779 22.9673 22.0275 24.8033 23.0521 26.3777C24.0767 27.9521 25.5328 29.1983 27.2465 29.9674C28.4044 30.5304 29.676 30.8204 30.9636 30.8148C32.068 30.8685 33.1719 30.6973 34.2082 30.3116C35.2445 29.926 36.1917 29.3338 36.9923 28.5712C37.7929 27.8085 38.4303 26.8912 38.8659 25.8748C39.3014 24.8585 39.526 23.7642 39.526 22.6585C39.526 21.5527 39.3014 20.4585 38.8659 19.4422C38.4303 18.4258 37.7929 17.5085 36.9923 16.7458C36.1917 15.9831 35.2445 15.391 34.2082 15.0054C33.1719 14.6197 32.068 14.4485 30.9636 14.5022V14.5407Z" fill="#98BC2A"/>
</svg>
