<svg width="28" height="28" viewBox="0 0 28 28" fill="none" xmlns="http://www.w3.org/2000/svg">
<rect x="3" y="3" width="22" height="22" rx="11" fill="white"/>
<path d="M14 2.625C11.7502 2.625 9.551 3.29213 7.68039 4.54203C5.80978 5.79193 4.35182 7.56847 3.49088 9.64698C2.62993 11.7255 2.40467 14.0126 2.84357 16.2192C3.28248 18.4257 4.36584 20.4525 5.95667 22.0433C7.54749 23.6342 9.57432 24.7175 11.7809 25.1564C13.9874 25.5953 16.2745 25.3701 18.353 24.5091C20.4315 23.6482 22.2081 22.1902 23.458 20.3196C24.7079 18.449 25.375 16.2498 25.375 14C25.3718 10.9841 24.1724 8.09271 22.0398 5.96018C19.9073 3.82764 17.0159 2.62818 14 2.625ZM14 23.625C12.0964 23.625 10.2355 23.0605 8.65264 22.0029C7.06982 20.9453 5.83616 19.4421 5.10766 17.6833C4.37917 15.9246 4.18856 13.9893 4.55995 12.1223C4.93133 10.2552 5.84802 8.54018 7.1941 7.1941C8.54018 5.84802 10.2552 4.93132 12.1223 4.55994C13.9893 4.18856 15.9246 4.37917 17.6833 5.10766C19.4421 5.83615 20.9453 7.06981 22.0029 8.65264C23.0605 10.2355 23.625 12.0964 23.625 14C23.6221 16.5518 22.6071 18.9983 20.8027 20.8027C18.9983 22.6071 16.5518 23.6221 14 23.625Z" fill="#9FA1A4"/>
</svg>
