<svg width="28" height="28" viewBox="0 0 28 28" fill="none" xmlns="http://www.w3.org/2000/svg">
<path d="M14.0034 12.0313C14.912 12.0313 15.8002 11.7618 16.5556 11.2571C17.311 10.7523 17.8998 10.0349 18.2475 9.19545C18.5952 8.35606 18.6862 7.43241 18.5089 6.54131C18.3317 5.65021 17.8942 4.83168 17.2517 4.18923C16.6093 3.54678 15.7907 3.10927 14.8996 2.93202C14.0085 2.75477 13.0849 2.84574 12.2455 3.19343C11.4061 3.54112 10.6886 4.12991 10.1839 4.88535C9.67911 5.64079 9.40969 6.52894 9.40969 7.4375C9.40969 8.65584 9.89367 9.82428 10.7552 10.6858C11.6167 11.5473 12.7851 12.0313 14.0034 12.0313ZM14.0034 4.15625C14.6524 4.15625 15.2868 4.34869 15.8264 4.70924C16.366 5.06979 16.7866 5.58225 17.0349 6.18182C17.2833 6.78139 17.3483 7.44114 17.2216 8.07764C17.095 8.71414 16.7825 9.2988 16.3236 9.7577C15.8647 10.2166 15.2801 10.5291 14.6436 10.6557C14.0071 10.7823 13.3473 10.7173 12.7478 10.469C12.1482 10.2206 11.6357 9.80007 11.2752 9.26047C10.9146 8.72087 10.7222 8.08647 10.7222 7.4375C10.7222 6.56726 11.0679 5.73266 11.6832 5.11731C12.2986 4.50195 13.1332 4.15625 14.0034 4.15625ZM22.5347 24.5C22.5347 24.674 22.4656 24.841 22.3425 24.964C22.2194 25.0871 22.0525 25.1562 21.8784 25.1562H6.12844C5.99485 25.1569 5.86423 25.1169 5.75403 25.0413C5.64383 24.9658 5.5593 24.8585 5.51174 24.7336C5.46418 24.6088 5.45586 24.4724 5.48788 24.3427C5.5199 24.213 5.59075 24.0962 5.69094 24.0078L16.6919 14.3008C15.6869 13.8967 14.6038 13.7239 13.5229 13.7953C12.4421 13.8667 11.3912 14.1804 10.448 14.7132C9.50492 15.246 8.6938 15.9842 8.07479 16.8732C7.45579 17.7621 7.04476 18.7789 6.87219 19.8483C6.84753 20.0021 6.76896 20.1421 6.65054 20.2433C6.53211 20.3445 6.38155 20.4003 6.22579 20.4006C6.18918 20.401 6.1526 20.3985 6.11641 20.393C6.03101 20.3797 5.94907 20.3496 5.87531 20.3045C5.80156 20.2595 5.73743 20.2003 5.68661 20.1304C5.6358 20.0604 5.5993 19.9812 5.5792 19.8971C5.55911 19.813 5.55583 19.7258 5.56954 19.6405C5.78104 18.3209 6.29959 17.0695 7.08341 15.987C7.86723 14.9046 8.89438 14.0214 10.0821 13.4088C11.2698 12.7961 12.5848 12.471 13.9212 12.4597C15.2576 12.4484 16.5779 12.7512 17.7758 13.3438L20.5659 10.8828C20.6965 10.7677 20.8674 10.7091 21.0412 10.7199C21.2149 10.7308 21.3772 10.8102 21.4923 10.9408C21.6075 11.0713 21.6661 11.2423 21.6552 11.416C21.6444 11.5897 21.5649 11.752 21.4344 11.8672L7.86422 23.8438H21.8784C22.0525 23.8438 22.2194 23.9129 22.3425 24.036C22.4656 24.159 22.5347 24.326 22.5347 24.5ZM21.0122 16.135C22.0067 17.5621 22.5382 19.2606 22.5347 21C22.5347 21.174 22.4656 21.341 22.3425 21.464C22.2194 21.5871 22.0525 21.6562 21.8784 21.6562C21.7044 21.6562 21.5375 21.5871 21.4144 21.464C21.2913 21.341 21.2222 21.174 21.2222 21C21.2251 19.5285 20.7757 18.0917 19.9348 16.8842C19.8395 16.7413 19.8041 16.5666 19.8361 16.3978C19.8681 16.229 19.9651 16.0795 20.1062 15.9814C20.2472 15.8833 20.4211 15.8444 20.5906 15.8731C20.76 15.9019 20.9114 15.9959 21.0122 16.135Z" fill="#1C1C1C"/>
</svg>
