<svg width="60" height="60" viewBox="0 0 60 60" fill="none" xmlns="http://www.w3.org/2000/svg">
<path d="M30.0017 2.8125C17.5001 2.8125 7.70792 6.86812 7.70792 12.0469C7.73323 18.8531 7.68917 40.8441 7.70792 47.9541C7.67604 52.2534 18.2098 56.16 28.0723 57.1462C28.3105 57.1431 28.5386 57.0494 28.7103 56.8842C28.882 56.719 28.9845 56.4947 28.9969 56.2567C29.0093 56.0188 28.9307 55.7851 28.7771 55.6029C28.6235 55.4208 28.4064 55.3039 28.1698 55.2759C19.541 54.3666 9.58292 51.1369 9.58292 47.9531V47.5275C10.7529 48.2742 12.001 48.8909 13.3048 49.3669C23.3079 53.0625 41.1335 53.19 50.4204 47.5331C51.2295 51.8166 39.3579 55.8834 28.1698 55.2759C27.9214 55.2645 27.6786 55.3522 27.4949 55.5198C27.3112 55.6873 27.2015 55.921 27.1901 56.1694C27.1787 56.4178 27.2664 56.6605 27.4339 56.8443C27.6015 57.028 27.8352 57.1376 28.0835 57.1491C28.7164 57.1772 29.3585 57.1875 30.011 57.1875C42.506 57.1875 52.2945 53.1319 52.2954 47.9531C52.3235 40.77 52.2757 18.9478 52.2954 12.0469C52.2954 6.86719 42.5032 2.8125 30.0017 2.8125ZM12.7564 47.1234C11.6048 46.6359 10.5346 45.9752 9.58292 45.1641V22.1737C10.584 22.8202 11.647 23.3651 12.7564 23.8003V47.1234ZM20.2657 49.2816C18.3531 48.958 16.4691 48.4838 14.6314 47.8631V24.4828C16.474 25.0704 18.3572 25.5225 20.2657 25.8356V49.2816ZM25.3151 49.9069C24.2276 49.8225 23.1692 49.71 22.1398 49.5694V26.1188C23.171 26.2538 24.2323 26.3606 25.3151 26.4412V49.9069ZM32.8132 50.0212C30.94 50.1122 29.0634 50.1122 27.1901 50.0212V26.5547C29.0342 26.6381 30.971 26.6353 32.8132 26.5491V50.0212ZM37.8635 49.5694C36.8354 49.7094 35.777 49.8219 34.6882 49.9069V26.4384C35.7739 26.3572 36.8323 26.2488 37.8635 26.1131V49.5694ZM50.4204 45.1725C49.4661 45.9812 48.3945 46.6403 47.2423 47.1272V30.8031C47.2423 30.5545 47.1435 30.316 46.9677 30.1402C46.7919 29.9644 46.5534 29.8656 46.3048 29.8656C46.0562 29.8656 45.8177 29.9644 45.6419 30.1402C45.4661 30.316 45.3673 30.5545 45.3673 30.8031V47.8669C43.5312 48.4859 41.6491 48.9593 39.7385 49.2825V25.8328C41.6448 25.5201 43.526 25.0699 45.3673 24.4856V32.0438C45.3673 32.2924 45.4661 32.5308 45.6419 32.7067C45.8177 32.8825 46.0562 32.9813 46.3048 32.9813C46.5534 32.9813 46.7919 32.8825 46.9677 32.7067C47.1435 32.5308 47.2423 32.2924 47.2423 32.0438V23.8125C48.3523 23.3748 49.4168 22.8293 50.4204 22.1841V45.1725ZM50.4204 19.8234C42.0504 26.5022 17.6604 26.3484 9.58292 19.8178V15.8119C16.7098 23.0306 43.3029 23.025 50.4204 15.8119V19.8234ZM30.0017 19.4044C17.9689 19.4044 9.58292 15.5269 9.58292 12.0459C9.58292 8.565 17.9689 4.6875 30.0017 4.6875C42.0345 4.6875 50.4204 8.56594 50.4204 12.0469C50.4204 15.5278 42.0345 19.4044 30.0017 19.4044Z" fill="#1C1C1C"/>
<path d="M30.2008 6.9946C30.0711 6.96253 29.9361 6.95815 29.8045 6.98173C29.673 7.00531 29.5479 7.05633 29.4374 7.13147C29.3269 7.2066 29.2335 7.30417 29.1632 7.41781C29.0929 7.53146 29.0473 7.65863 29.0295 7.79105C29.0116 7.92348 29.0218 8.05818 29.0594 8.1864C29.0971 8.31461 29.1613 8.43346 29.2479 8.53521C29.3345 8.63695 29.4416 8.71931 29.5622 8.77693C29.6828 8.83454 29.8141 8.86612 29.9477 8.8696C35.4414 8.75991 39.6536 10.6865 39.5383 11.954C39.5383 13.2149 35.9008 15.0477 30.2008 15.0477C24.4952 15.0477 20.8539 13.2149 20.8539 11.954C20.8539 11.4946 21.3574 10.9527 22.2424 10.4643C23.5281 9.80491 24.9167 9.3693 26.3486 9.17616C26.5924 9.13442 26.8097 8.99808 26.9534 8.79683C27.0971 8.59557 27.1554 8.34571 27.1157 8.10164C27.076 7.85757 26.9415 7.63907 26.7415 7.49371C26.5415 7.34835 26.2921 7.2879 26.0477 7.32554C23.1705 7.67897 18.8608 9.40116 18.9789 11.954C18.9789 15.1808 24.7605 16.9227 30.2008 16.9227C45.1118 16.7849 45.1249 7.12866 30.2008 6.9946Z" fill="#1C1C1C"/>
<path d="M30.1664 6.99265C30.2961 6.96058 30.4311 6.9562 30.5626 6.97978C30.6942 7.00336 30.8193 7.05438 30.9298 7.12952C31.0403 7.20465 31.1337 7.30222 31.204 7.41586C31.2743 7.5295 31.3198 7.65668 31.3377 7.7891C31.3556 7.92152 31.3454 8.05623 31.3077 8.18444C31.2701 8.31266 31.2059 8.43151 31.1193 8.53325C31.0326 8.635 30.9256 8.71736 30.805 8.77497C30.6844 8.83259 30.5531 8.86417 30.4195 8.86765C24.9257 8.75796 20.7136 10.6845 20.8289 11.952C20.8289 13.213 24.4664 15.0458 30.1664 15.0458C35.872 15.0458 39.5132 13.213 39.5132 11.952C39.5132 11.4926 39.0098 10.9508 38.1248 10.4623C36.8391 9.80295 35.4505 9.36735 34.0186 9.17421C33.7748 9.13247 33.5575 8.99613 33.4138 8.79487C33.2701 8.59362 33.2118 8.34376 33.2515 8.09969C33.2912 7.85562 33.4257 7.63711 33.6257 7.49175C33.8257 7.34639 34.0751 7.28595 34.3195 7.32358C37.1967 7.67702 41.5064 9.39921 41.3882 11.952C41.3882 15.1789 35.6067 16.9208 30.1664 16.9208C15.2554 16.783 15.2423 7.12671 30.1664 6.99265Z" fill="#1C1C1C"/>
</svg>
