<svg width="60" height="60" viewBox="0 0 60 60" fill="none" xmlns="http://www.w3.org/2000/svg">
<path d="M29.0916 25.998C25.8189 25.998 23.2734 28.6344 23.2734 31.8162C23.2734 35.089 25.9098 37.6344 29.0916 37.6344C32.2734 37.6344 34.9098 34.998 34.9098 31.8162C35.0007 28.6344 32.3643 25.998 29.0916 25.998ZM29.0916 35.9071C26.8189 35.9071 25.0916 34.089 25.0916 31.9071C25.0916 29.7253 26.9098 27.9071 29.0916 27.9071C31.2734 27.9071 33.0916 29.7253 33.0916 31.9071C33.0916 34.089 31.3643 35.9071 29.0916 35.9071Z" fill="#1C1C1C"/>
<path d="M29.0945 16.0918C20.4581 16.0918 13.3672 23.1827 13.3672 31.8191C13.3672 40.4554 20.4581 47.5463 29.0945 47.5463C37.7308 47.5463 44.8217 40.4554 44.8217 31.8191C44.8217 23.1827 37.8217 16.0918 29.0945 16.0918ZM29.0945 45.7282C21.4581 45.7282 15.1854 39.4554 15.1854 31.8191C15.1854 24.1827 21.4581 17.91 29.0945 17.91C36.7308 17.91 43.0036 24.1827 43.0036 31.8191C43.0036 39.4554 36.8217 45.7282 29.0945 45.7282Z" fill="#1C1C1C"/>
<path d="M59 21.8182C54.2727 8.72727 41.7273 0 27.8182 0C27.2727 0 26.9091 0.363636 26.9091 0.909091V3.72727C12.2727 4.90909 1 17.0909 1 31.8182C1 47.3636 13.6364 60 29.1818 60C44.7273 60 57.3636 47.3636 57.3636 31.8182C57.3636 29.0909 57 26.4545 56.1818 23.8182L58.5455 23C58.8182 22.9091 59 22.7273 59.0909 22.5455C59.0909 22.3636 59.0909 22.0909 59 21.8182ZM55.4545 31.8182C55.4545 46.3636 43.6364 58.1818 29.0909 58.1818C14.5455 58.1818 2.72727 46.3636 2.72727 31.8182C2.72727 18 13.2727 6.72727 26.8182 5.54545V10.8182C26.8182 11.3636 27.1818 11.7273 27.7273 11.7273C36.7273 11.7273 44.7273 17.3636 47.8182 25.8182C47.9091 26.1818 48.2727 26.4545 48.6364 26.4545C48.7273 26.4545 48.8182 26.4545 48.9091 26.3636L54.2727 24.4545C55.0909 26.8182 55.4545 29.2727 55.4545 31.8182ZM54.7273 22.4545L49.2727 24.4545C45.9091 16 37.8182 10.3636 28.7273 10V1.81818C41.1818 2.18182 52.3636 10 56.9091 21.6364L54.7273 22.4545Z" fill="#1C1C1C"/>
<path d="M17.6349 16.9077H17.8167C18.2713 16.9077 18.6349 16.6349 18.7258 16.1804L19.2713 12.9077C19.3622 12.4531 18.9985 11.9077 18.544 11.8168C18.0894 11.7258 17.544 12.0895 17.4531 12.544L16.8167 15.9077C16.7258 16.3622 17.0894 16.8168 17.6349 16.9077ZM10.3622 29.3622C10.8167 29.0895 10.9076 28.544 10.544 28.0895L8.7258 25.4531C8.45307 24.9986 7.90762 24.9077 7.45307 25.2713C6.99853 25.544 6.90762 26.0895 7.27126 26.544L9.08944 29.1804C9.27126 29.4531 9.54398 29.544 9.81671 29.544C10.0894 29.544 10.2713 29.544 10.3622 29.3622ZM13.544 42.3622L10.1803 41.8168C9.7258 41.7259 9.18035 42.0895 9.08944 42.544C8.99853 42.9986 9.36216 43.544 9.81671 43.6349L13.1803 44.1804H13.3622C13.8167 44.1804 14.1803 43.9077 14.2713 43.4531C14.4531 42.9077 14.0894 42.4531 13.544 42.3622ZM25.9076 50.0895L22.8167 52.2713C22.3622 52.544 22.2713 53.0895 22.6349 53.544C22.8167 53.8168 23.0894 53.9077 23.3622 53.9077C23.544 53.9077 23.7258 53.8168 23.9076 53.7258L26.9985 51.544C27.4531 51.2713 27.544 50.7258 27.1803 50.2713C26.9076 49.9077 26.2713 49.7258 25.9076 50.0895ZM40.8167 46.0895C40.2713 45.9986 39.8167 46.3622 39.7258 46.8168L39.0894 50.7258C38.9985 51.1804 39.3622 51.7258 39.8167 51.8168H39.9985C40.4531 51.8168 40.8167 51.544 40.9076 51.0895L41.544 47.1804C41.6349 46.6349 41.2713 46.1804 40.8167 46.0895ZM47.2713 33.4531C46.8167 33.7258 46.7258 34.2713 47.0894 34.7259L49.544 38.1804C49.7258 38.4531 49.9985 38.544 50.2713 38.544C50.4531 38.544 50.6349 38.4531 50.8167 38.3622C51.2713 38.0895 51.3622 37.544 50.9985 37.0895L48.544 33.6349C48.2713 33.1804 47.6349 33.0895 47.2713 33.4531ZM29.0894 22.8168C29.1803 22.8168 29.3622 22.8168 29.4531 22.7258C29.544 22.7258 29.6349 22.6349 29.7258 22.544C29.9076 22.3622 29.9985 22.1804 29.9985 21.9077C29.9985 21.8168 29.9985 21.6349 29.9076 21.544C29.9076 21.4531 29.8167 21.3622 29.7258 21.2713C29.6349 21.1804 29.544 21.0895 29.4531 21.0895C29.0894 20.9077 28.7258 20.9986 28.4531 21.2713C28.3622 21.3622 28.2713 21.4531 28.2713 21.544C28.2713 21.6349 28.1803 21.8168 28.1803 21.9077C28.1803 22.1804 28.2713 22.3622 28.4531 22.544C28.6349 22.7258 28.9076 22.8168 29.0894 22.8168ZM22.4531 23.9986C22.2713 23.9077 21.9985 23.9077 21.7258 23.9986C21.6349 23.9986 21.544 24.0895 21.4531 24.1804C21.3622 24.2713 21.2713 24.3622 21.2713 24.4531C21.2713 24.544 21.1803 24.7258 21.1803 24.8168C21.1803 25.0895 21.2713 25.2713 21.4531 25.4531C21.6349 25.6349 21.8167 25.7258 22.0894 25.7258C22.3622 25.7258 22.544 25.6349 22.7258 25.4531C22.9076 25.2713 22.9985 25.0895 22.9985 24.8168C22.9985 24.544 22.9076 24.3622 22.7258 24.1804C22.7258 24.0895 22.6349 24.0895 22.4531 23.9986ZM19.9076 31.1804C19.8167 31.0895 19.7258 30.9986 19.6349 30.9986C19.544 30.9986 19.544 30.9077 19.4531 30.9077H19.0894C18.9985 30.9077 18.9985 30.9077 18.9076 30.9986C18.8167 30.9986 18.8167 30.9986 18.7258 31.0895C18.6349 31.0895 18.6349 31.1804 18.544 31.1804C18.4531 31.2713 18.3622 31.3622 18.3622 31.4531C18.3622 31.544 18.2713 31.7258 18.2713 31.8168C18.2713 32.0895 18.3622 32.2713 18.544 32.4531C18.544 32.4531 18.6349 32.544 18.7258 32.544C18.7258 32.544 18.8167 32.6349 18.9076 32.6349C18.9985 32.6349 18.9985 32.7259 19.0894 32.7259H19.4531C19.544 32.7259 19.544 32.7259 19.6349 32.6349C19.7258 32.6349 19.7258 32.6349 19.8167 32.544L19.9076 32.4531C20.0894 32.2713 20.1803 32.0895 20.1803 31.8168C20.1803 31.7258 20.1803 31.544 20.0894 31.4531C19.9985 31.3622 19.9985 31.2713 19.9076 31.1804ZM21.4531 38.1804C21.3622 38.2713 21.2713 38.3622 21.2713 38.4531C21.2713 38.544 21.1803 38.7259 21.1803 38.8168C21.1803 39.0895 21.2713 39.2713 21.4531 39.4531C21.544 39.544 21.6349 39.6349 21.7258 39.6349C21.8167 39.7258 21.9985 39.7259 22.0894 39.7259C22.1803 39.7259 22.3622 39.7258 22.4531 39.6349C22.544 39.6349 22.6349 39.544 22.7258 39.4531C22.9076 39.2713 22.9985 39.0895 22.9985 38.8168C22.9985 38.544 22.9076 38.3622 22.7258 38.1804C22.4531 37.8168 21.8167 37.8168 21.4531 38.1804ZM29.4531 40.9077C29.0894 40.7259 28.7258 40.8168 28.4531 41.0895C28.2713 41.2713 28.1803 41.4531 28.1803 41.7259C28.1803 41.9986 28.2713 42.1804 28.4531 42.3622C28.6349 42.544 28.8167 42.6349 29.0894 42.6349C29.1803 42.6349 29.3622 42.6349 29.4531 42.544C29.544 42.544 29.6349 42.4531 29.7258 42.3622C29.9076 42.1804 29.9985 41.9077 29.9985 41.7259C29.9985 41.4531 29.9076 41.2713 29.7258 41.0895C29.7258 40.9986 29.544 40.9077 29.4531 40.9077ZM35.4531 38.1804C35.2713 38.3622 35.1803 38.6349 35.1803 38.8168V38.9986C35.1803 39.0895 35.1803 39.0895 35.2713 39.1804C35.2713 39.2713 35.2713 39.2713 35.3622 39.3622C35.3622 39.4531 35.4531 39.4531 35.4531 39.544C35.6349 39.7259 35.8167 39.8168 36.0894 39.8168C36.3622 39.8168 36.544 39.7259 36.7258 39.544C36.8167 39.4531 36.9076 39.3622 36.9076 39.2713V38.9077C36.9076 38.6349 36.8167 38.4531 36.6349 38.2713C36.4531 37.8168 35.8167 37.8168 35.4531 38.1804ZM38.6349 30.9986C38.544 30.9986 38.544 30.9986 38.4531 31.0895C38.4531 31.0895 38.3622 31.1804 38.2713 31.1804C38.0894 31.3622 37.9985 31.6349 37.9985 31.8168C37.9985 32.0895 38.0894 32.2713 38.2713 32.4531C38.4531 32.6349 38.7258 32.7259 38.9076 32.7259C39.0894 32.7259 39.3622 32.6349 39.544 32.4531C39.7258 32.2713 39.8167 31.9986 39.8167 31.8168C39.8167 31.6349 39.7258 31.3622 39.544 31.1804C39.3622 30.9986 38.9985 30.9077 38.7258 30.9077C38.8167 30.9077 38.7258 30.9986 38.6349 30.9986ZM36.7258 24.1804C36.3622 23.8168 35.8167 23.8168 35.4531 24.1804C35.3622 24.2713 35.2713 24.3622 35.2713 24.4531C35.1803 24.544 35.1803 24.7258 35.1803 24.8168C35.1803 25.0895 35.2713 25.2713 35.4531 25.4531C35.6349 25.6349 35.8167 25.7258 36.0894 25.7258C36.3622 25.7258 36.544 25.6349 36.7258 25.4531C36.9076 25.2713 36.9985 24.9986 36.9985 24.8168C36.9985 24.7258 36.9985 24.544 36.9076 24.4531C36.9076 24.3622 36.8167 24.2713 36.7258 24.1804Z" fill="#1C1C1C"/>
</svg>
