<svg width="60" height="60" viewBox="0 0 60 60" fill="none" xmlns="http://www.w3.org/2000/svg">
<path d="M55 28H53C52.2043 28 51.4413 28.3161 50.8787 28.8787C50.3161 29.4413 50 30.2044 50 31V32H48V27C48 26.2044 47.6839 25.4413 47.1213 24.8787C46.5587 24.3161 45.7957 24 45 24H42C41.7348 24 41.4804 23.8946 41.2929 23.7071C41.1054 23.5196 41 23.2652 41 23V21C41 20.2044 40.6839 19.4413 40.1213 18.8787C39.5587 18.3161 38.7957 18 38 18H34V15H39C39.7957 15 40.5587 14.6839 41.1213 14.1213C41.6839 13.5587 42 12.7957 42 12C42 11.2044 41.6839 10.4413 41.1213 9.87868C40.5587 9.31607 39.7957 9 39 9H19C18.2044 9 17.4413 9.31607 16.8787 9.87868C16.3161 10.4413 16 11.2044 16 12C16 12.7957 16.3161 13.5587 16.8787 14.1213C17.4413 14.6839 18.2044 15 19 15H24V18H19C18.2044 18 17.4413 18.3161 16.8787 18.8787C16.3161 19.4413 16 20.2044 16 21C16 21.2652 15.8946 21.5196 15.7071 21.7071C15.5196 21.8946 15.2652 22 15 22H12C11.2044 22 10.4413 22.3161 9.87868 22.8787C9.31607 23.4413 9 24.2044 9 25V29H6V25C6 24.2044 5.68393 23.4413 5.12132 22.8787C4.55871 22.3161 3.79565 22 3 22C2.20435 22 1.44129 22.3161 0.87868 22.8787C0.31607 23.4413 0 24.2044 0 25L0 41C0 41.7957 0.31607 42.5587 0.87868 43.1213C1.44129 43.6839 2.20435 44 3 44C3.79565 44 4.55871 43.6839 5.12132 43.1213C5.68393 42.5587 6 41.7957 6 41V37H9V42C9 42.7957 9.31607 43.5587 9.87868 44.1213C10.4413 44.6839 11.2044 45 12 45H16.172C16.4372 45.0001 16.6915 45.1055 16.879 45.293L21.707 50.121C21.9848 50.4006 22.3153 50.6222 22.6794 50.7731C23.0435 50.924 23.4339 51.0011 23.828 51H45C45.7957 51 46.5587 50.6839 47.1213 50.1213C47.6839 49.5587 48 48.7957 48 48V44H50V45C50 45.7957 50.3161 46.5587 50.8787 47.1213C51.4413 47.6839 52.2043 48 53 48H55C56.3256 47.9984 57.5964 47.4711 58.5338 46.5338C59.4711 45.5964 59.9984 44.3256 60 43V33C59.9984 31.6744 59.4711 30.4036 58.5338 29.4662C57.5964 28.5289 56.3256 28.0016 55 28ZM18 12C18 11.7348 18.1054 11.4804 18.2929 11.2929C18.4804 11.1054 18.7348 11 19 11H39C39.2652 11 39.5196 11.1054 39.7071 11.2929C39.8946 11.4804 40 11.7348 40 12C40 12.2652 39.8946 12.5196 39.7071 12.7071C39.5196 12.8946 39.2652 13 39 13H19C18.7348 13 18.4804 12.8946 18.2929 12.7071C18.1054 12.5196 18 12.2652 18 12ZM26 15H32V18H26V15ZM4 41C4 41.2652 3.89464 41.5196 3.70711 41.7071C3.51957 41.8946 3.26522 42 3 42C2.73478 42 2.48043 41.8946 2.29289 41.7071C2.10536 41.5196 2 41.2652 2 41V25C2 24.7348 2.10536 24.4804 2.29289 24.2929C2.48043 24.1054 2.73478 24 3 24C3.26522 24 3.51957 24.1054 3.70711 24.2929C3.89464 24.4804 4 24.7348 4 25V41ZM6 35V31H9V35H6ZM46 48C46 48.2652 45.8946 48.5196 45.7071 48.7071C45.5196 48.8946 45.2652 49 45 49H23.828C23.5628 48.9999 23.3085 48.8946 23.121 48.707L18.293 43.879C18.0151 43.5996 17.6845 43.3781 17.3205 43.2272C16.9564 43.0763 16.5661 42.9991 16.172 43H12C11.7348 43 11.4804 42.8946 11.2929 42.7071C11.1054 42.5196 11 42.2652 11 42V25C11 24.7348 11.1054 24.4804 11.2929 24.2929C11.4804 24.1054 11.7348 24 12 24H15C15.7956 24 16.5587 23.6839 17.1213 23.1213C17.6839 22.5587 18 21.7957 18 21C18 20.7348 18.1054 20.4804 18.2929 20.2929C18.4804 20.1054 18.7348 20 19 20H38C38.2652 20 38.5196 20.1054 38.7071 20.2929C38.8946 20.4804 39 20.7348 39 21V23C39 23.7957 39.3161 24.5587 39.8787 25.1213C40.4413 25.6839 41.2043 26 42 26H45C45.2652 26 45.5196 26.1054 45.7071 26.2929C45.8946 26.4804 46 26.7348 46 27V48ZM48 42V34H50V42H48ZM58 43C58 43.7957 57.6839 44.5587 57.1213 45.1213C56.5587 45.6839 55.7957 46 55 46H53C52.7348 46 52.4804 45.8946 52.2929 45.7071C52.1054 45.5196 52 45.2652 52 45V31C52 30.7348 52.1054 30.4804 52.2929 30.2929C52.4804 30.1054 52.7348 30 53 30H55C55.7957 30 56.5587 30.3161 57.1213 30.8787C57.6839 31.4413 58 32.2044 58 33V43Z" fill="#1C1C1C"/>
</svg>
