<svg width="60" height="60" viewBox="0 0 60 60" fill="none" xmlns="http://www.w3.org/2000/svg">
<g clip-path="url(#clip0_13439_106310)">
<path d="M30 10.625C26.168 10.625 22.422 11.7613 19.2358 13.8903C16.0496 16.0192 13.5663 19.0452 12.0998 22.5855C10.6334 26.1258 10.2497 30.0215 10.9973 33.7799C11.7449 37.5382 13.5902 40.9905 16.2998 43.7002C19.0095 46.4098 22.4617 48.2551 26.2201 49.0027C29.9785 49.7503 33.8742 49.3666 37.4145 47.9001C40.9548 46.4337 43.9808 43.9503 46.1097 40.7641C48.2387 37.5779 49.375 33.832 49.375 30C49.3684 24.8634 47.325 19.9392 43.6929 16.3071C40.0608 12.675 35.1365 10.6316 30 10.625ZM30 47.375C26.5635 47.375 23.2043 46.3559 20.347 44.4468C17.4897 42.5376 15.2627 39.824 13.9476 36.6491C12.6325 33.4742 12.2884 29.9807 12.9589 26.6103C13.6293 23.2399 15.2841 20.1439 17.714 17.714C20.144 15.2841 23.2399 13.6293 26.6103 12.9589C29.9807 12.2884 33.4742 12.6325 36.6491 13.9476C39.824 15.2627 42.5376 17.4897 44.4468 20.347C46.356 23.2043 47.375 26.5635 47.375 30C47.3699 34.6066 45.5378 39.023 42.2804 42.2804C39.0231 45.5378 34.6066 47.3699 30 47.375Z" fill="#1C1C1C"/>
<path d="M51.2351 8.83004C45.6398 3.20319 38.0399 0.0273636 30.1046 0.000176C22.1694 -0.0270116 14.5479 3.09666 8.91416 8.68504C8.88316 8.71089 8.85378 8.73861 8.82616 8.76804C6.03732 11.5425 3.82243 14.8392 2.30802 18.4699C0.793618 22.1005 0.0093699 25.994 8.34502e-05 29.9278C-0.009203 33.8616 0.756654 37.7588 2.2539 41.3965C3.75115 45.0343 5.95045 48.3414 8.72616 51.129C8.77967 51.1984 8.84223 51.2602 8.91216 51.313C14.5176 56.8812 22.0991 60.0043 30.0001 60C37.9002 60.0043 45.4808 56.8819 51.0861 51.315C51.1174 51.2891 51.1468 51.261 51.1741 51.231C56.7994 45.6352 59.9737 38.0355 60 30.101C60.0262 22.1665 56.9022 14.546 51.3141 8.91304C51.2893 8.88393 51.263 8.85622 51.2351 8.83004ZM52.8221 27.48L57.9861 30.56C57.8596 37.1653 55.3916 43.511 51.0221 48.466L49.8591 43.866C49.7927 43.6104 49.6279 43.3915 49.4007 43.257C49.1735 43.1225 48.9023 43.0833 48.6463 43.148C48.3902 43.2127 48.1702 43.376 48.0342 43.6023C47.8981 43.8286 47.8571 44.0996 47.9201 44.356L49.3901 50.172C44.6319 54.7624 38.3982 57.5139 31.8001 57.936L34.2391 53.847C34.3119 53.7342 34.3612 53.6079 34.3841 53.4757C34.407 53.3434 34.403 53.2079 34.3725 53.0773C34.3419 52.9466 34.2853 52.8234 34.2062 52.715C34.127 52.6066 34.0268 52.5153 33.9116 52.4465C33.7963 52.3777 33.6684 52.3328 33.5355 52.3144C33.4025 52.2961 33.2672 52.3047 33.1377 52.3397C33.0081 52.3747 32.8869 52.4355 32.7814 52.5184C32.6758 52.6012 32.588 52.7045 32.5231 52.822L29.4431 57.986C22.8376 57.8595 16.4916 55.3915 11.5362 51.022L16.1362 49.859C16.2635 49.8268 16.3833 49.7699 16.4887 49.6914C16.5941 49.6129 16.683 49.5145 16.7503 49.4017C16.8176 49.2888 16.862 49.1639 16.8811 49.0339C16.9001 48.9039 16.8933 48.7714 16.8612 48.644C16.829 48.5166 16.772 48.3968 16.6936 48.2915C16.6151 48.1861 16.5166 48.0972 16.4038 48.0299C16.291 47.9625 16.166 47.9181 16.036 47.8991C15.906 47.8801 15.7735 47.8868 15.6462 47.919L9.82916 49.39C5.23837 44.632 2.48651 38.3982 2.06416 31.8L6.15216 34.239C6.30714 34.331 6.48395 34.3797 6.66416 34.38C6.88328 34.3805 7.09648 34.3089 7.27098 34.1764C7.44548 34.0439 7.57163 33.8577 7.63002 33.6465C7.68842 33.4353 7.67583 33.2108 7.59419 33.0074C7.51255 32.8041 7.36638 32.6332 7.17816 32.521L2.01416 29.44C2.14067 22.8348 4.60864 16.4891 8.97816 11.534L10.1412 16.134C10.2076 16.3896 10.3724 16.6085 10.5996 16.7431C10.8268 16.8776 11.098 16.9168 11.354 16.8521C11.61 16.7874 11.8301 16.624 11.9661 16.3977C12.1021 16.1714 12.1431 15.9005 12.0802 15.644L10.6102 9.82804C15.3683 5.23762 21.6021 2.48612 28.2001 2.06404L25.7631 6.15304C25.6904 6.26583 25.6411 6.39211 25.6182 6.52436C25.5953 6.6566 25.5992 6.7921 25.6298 6.92279C25.6604 7.05347 25.7169 7.17667 25.7961 7.28503C25.8753 7.39339 25.9755 7.48471 26.0907 7.55353C26.2059 7.62236 26.3338 7.66728 26.4668 7.68564C26.5998 7.70399 26.735 7.69539 26.8646 7.66035C26.9942 7.62531 27.1153 7.56455 27.2209 7.48169C27.3265 7.39883 27.4143 7.29556 27.4791 7.17804L30.5591 2.01404C37.1647 2.14058 43.5107 4.60853 48.4661 8.97804L43.8661 10.141C43.6294 10.2004 43.4225 10.3443 43.2845 10.5456C43.1464 10.7469 43.0868 10.9917 43.1168 11.234C43.1468 11.4762 43.2644 11.6991 43.4473 11.8606C43.6303 12.0222 43.866 12.1113 44.1101 12.111C44.193 12.1109 44.2756 12.1008 44.3561 12.081L50.1721 10.61C54.7625 15.3682 57.514 21.602 57.9361 28.2L53.8481 25.761C53.6203 25.625 53.3478 25.585 53.0905 25.6499C52.8332 25.7148 52.6122 25.8792 52.4761 26.107C52.3401 26.3348 52.3001 26.6074 52.365 26.8647C52.4299 27.122 52.5943 27.344 52.8221 27.48Z" fill="#1C1C1C"/>
<path d="M30.0029 15.4199C27.119 15.4199 24.2999 16.2751 21.9021 17.8773C19.5043 19.4794 17.6354 21.7567 16.5318 24.421C15.4282 27.0853 15.1394 30.0171 15.7021 32.8455C16.2647 35.674 17.6534 38.272 19.6926 40.3112C21.7317 42.3504 24.3298 43.7391 27.1583 44.3017C29.9867 44.8643 32.9184 44.5756 35.5828 43.472C38.2471 42.3684 40.5243 40.4995 42.1265 38.1017C43.7287 35.7038 44.5839 32.8848 44.5839 30.0009C44.5788 26.1353 43.041 22.4295 40.3076 19.6961C37.5743 16.9628 33.8684 15.4249 30.0029 15.4199ZM30.0029 42.5819C27.5146 42.5819 25.0822 41.844 23.0132 40.4616C20.9443 39.0792 19.3318 37.1143 18.3796 34.8154C17.4273 32.5166 17.1782 29.987 17.6636 27.5465C18.1491 25.106 19.3473 22.8643 21.1068 21.1048C22.8663 19.3453 25.108 18.1471 27.5484 17.6617C29.9889 17.1762 32.5185 17.4254 34.8174 18.3776C37.1163 19.3298 39.0812 20.9424 40.4636 23.0113C41.846 25.0802 42.5839 27.5126 42.5839 30.0009C42.5802 33.3365 41.2535 36.5343 38.8949 38.8929C36.5363 41.2515 33.3384 42.5782 30.0029 42.5819Z" fill="#1C1C1C"/>
</g>
<defs>
<clipPath id="clip0_13439_106310">
<rect width="60" height="60" fill="white"/>
</clipPath>
</defs>
</svg>
