<svg width="60" height="60" viewBox="0 0 60 60" fill="none" xmlns="http://www.w3.org/2000/svg">
<path d="M59.0625 13.125H53.4375V9.375C53.4375 9.12636 53.3387 8.8879 53.1629 8.71209C52.9871 8.53627 52.7486 8.4375 52.5 8.4375H51.5625V4.6875C51.5625 4.43886 51.4637 4.2004 51.2879 4.02459C51.1121 3.84877 50.8736 3.75 50.625 3.75H45C44.7514 3.75 44.5129 3.84877 44.3371 4.02459C44.1613 4.2004 44.0625 4.43886 44.0625 4.6875V8.4375H43.125C42.8764 8.4375 42.6379 8.53627 42.4621 8.71209C42.2863 8.8879 42.1875 9.12636 42.1875 9.375V13.125H39.0169L37.4006 9.89344C37.3228 9.73774 37.2032 9.60677 37.0552 9.51521C36.9072 9.42364 36.7366 9.37509 36.5625 9.375H23.4375C23.2634 9.37509 23.0928 9.42364 22.9448 9.51521C22.7968 9.60677 22.6772 9.73774 22.5994 9.89344L20.9822 13.125H17.8125V9.375C17.8125 9.12636 17.7137 8.8879 17.5379 8.71209C17.3621 8.53627 17.1236 8.4375 16.875 8.4375H15.9375V4.6875C15.9375 4.43886 15.8387 4.2004 15.6629 4.02459C15.4871 3.84877 15.2486 3.75 15 3.75H9.375C9.12636 3.75 8.8879 3.84877 8.71209 4.02459C8.53627 4.2004 8.4375 4.43886 8.4375 4.6875V8.4375H7.5C7.25136 8.4375 7.0129 8.53627 6.83709 8.71209C6.66127 8.8879 6.5625 9.12636 6.5625 9.375V13.125H0.9375C0.68886 13.125 0.450403 13.2238 0.274587 13.3996C0.0987721 13.5754 0 13.8139 0 14.0625L0 21.5625C0 21.8111 0.0987721 22.0496 0.274587 22.2254C0.450403 22.4012 0.68886 22.5 0.9375 22.5H3.75V55.3125C3.75 55.5611 3.84877 55.7996 4.02459 55.9754C4.2004 56.1512 4.43886 56.25 4.6875 56.25H55.3125C55.5611 56.25 55.7996 56.1512 55.9754 55.9754C56.1512 55.7996 56.25 55.5611 56.25 55.3125V22.5H59.0625C59.3111 22.5 59.5496 22.4012 59.7254 22.2254C59.9012 22.0496 60 21.8111 60 21.5625V14.0625C60 13.8139 59.9012 13.5754 59.7254 13.3996C59.5496 13.2238 59.3111 13.125 59.0625 13.125ZM45.9375 5.625H49.6875V8.4375H45.9375V5.625ZM44.0625 10.3125H51.5625V13.125H44.0625V10.3125ZM24.0169 11.25H35.9831L36.9206 13.125H23.0794L24.0169 11.25ZM10.3125 5.625H14.0625V8.4375H10.3125V5.625ZM8.4375 10.3125H15.9375V13.125H8.4375V10.3125ZM54.375 54.375H5.625V22.5H54.375V54.375ZM58.125 20.625H1.875V15H58.125V20.625Z" fill="#1C1C1C"/>
<path d="M20.625 41.25H27.1875V48.75C27.1873 48.9387 27.2441 49.1231 27.3504 49.279C27.4567 49.4349 27.6076 49.5551 27.7833 49.6239C27.9591 49.6927 28.1515 49.7068 28.3354 49.6645C28.5193 49.6221 28.6861 49.5253 28.8141 49.3866L40.0641 37.1991C40.1879 37.0652 40.27 36.8981 40.3003 36.7182C40.3306 36.5384 40.3078 36.3536 40.2346 36.1865C40.1615 36.0195 40.0412 35.8774 39.8885 35.7776C39.7358 35.6779 39.5574 35.6248 39.375 35.625H32.8125V28.125C32.8127 27.9363 32.7559 27.7519 32.6496 27.596C32.5433 27.4401 32.3924 27.3199 32.2167 27.2511C32.0409 27.1823 31.8485 27.1682 31.6646 27.2105C31.4807 27.2529 31.3139 27.3497 31.1859 27.4884L19.9359 39.6759C19.8121 39.8098 19.73 39.9769 19.6997 40.1568C19.6694 40.3366 19.6922 40.5214 19.7654 40.6885C19.8385 40.8555 19.9588 40.9976 20.1115 41.0974C20.2642 41.1971 20.4426 41.2502 20.625 41.25ZM30.9375 30.5231V36.5625C30.9375 36.8111 31.0363 37.0496 31.2121 37.2254C31.3879 37.4012 31.6264 37.5 31.875 37.5H37.2337L29.0625 46.3519V40.3125C29.0625 40.0639 28.9637 39.8254 28.7879 39.6496C28.6121 39.4738 28.3736 39.375 28.125 39.375H22.7663L30.9375 30.5231ZM45.9375 28.125H46.875V29.0625C46.875 29.3111 46.9738 29.5496 47.1496 29.7254C47.3254 29.9012 47.5639 30 47.8125 30C48.0611 30 48.2996 29.9012 48.4754 29.7254C48.6512 29.5496 48.75 29.3111 48.75 29.0625V28.125H49.6875C49.9361 28.125 50.1746 28.0262 50.3504 27.8504C50.5262 27.6746 50.625 27.4361 50.625 27.1875C50.625 26.9389 50.5262 26.7004 50.3504 26.5246C50.1746 26.3488 49.9361 26.25 49.6875 26.25H48.75V25.3125C48.75 25.0639 48.6512 24.8254 48.4754 24.6496C48.2996 24.4738 48.0611 24.375 47.8125 24.375C47.5639 24.375 47.3254 24.4738 47.1496 24.6496C46.9738 24.8254 46.875 25.0639 46.875 25.3125V26.25H45.9375C45.6889 26.25 45.4504 26.3488 45.2746 26.5246C45.0988 26.7004 45 26.9389 45 27.1875C45 27.4361 45.0988 27.6746 45.2746 27.8504C45.4504 28.0262 45.6889 28.125 45.9375 28.125ZM10.3125 28.125H14.0625C14.3111 28.125 14.5496 28.0262 14.7254 27.8504C14.9012 27.6746 15 27.4361 15 27.1875C15 26.9389 14.9012 26.7004 14.7254 26.5246C14.5496 26.3488 14.3111 26.25 14.0625 26.25H10.3125C10.0639 26.25 9.8254 26.3488 9.64959 26.5246C9.47377 26.7004 9.375 26.9389 9.375 27.1875C9.375 27.4361 9.47377 27.6746 9.64959 27.8504C9.8254 28.0262 10.0639 28.125 10.3125 28.125Z" fill="#1C1C1C"/>
</svg>
