<svg width="60" height="60" viewBox="0 0 60 60" fill="none" xmlns="http://www.w3.org/2000/svg">
<path d="M14.6894 34.9009C15.3576 34.9009 16.0107 34.6983 16.5728 34.3085L31.8069 23.7629C32.5129 23.2758 33.003 22.5343 33.1742 21.6937C33.3454 20.8532 33.1844 19.9791 32.7251 19.2546C32.248 18.4997 31.5056 17.9767 30.6338 17.7839C29.7638 17.5892 28.8672 17.7495 28.1152 18.2333L12.5341 28.2571C11.7779 28.7435 11.2615 29.4955 11.0789 30.375C10.8958 31.2542 11.0693 32.1503 11.5663 32.8955L11.9146 33.4185C12.4136 34.1669 13.1745 34.6718 14.0579 34.8407C14.2688 34.8808 14.4796 34.9009 14.6894 34.9009ZM13.6681 32.2521L13.3198 31.7278C13.2294 31.5939 13.1669 31.4431 13.1362 31.2845C13.1055 31.1259 13.1071 30.9627 13.1409 30.8047C13.1732 30.6463 13.2369 30.4959 13.3283 30.3625C13.4196 30.2292 13.5368 30.1154 13.6729 30.0281L29.2545 20.0043C29.4505 19.878 29.6788 19.8109 29.9119 19.8109C29.9999 19.8109 30.0896 19.8198 30.1783 19.8397C30.3354 19.8742 30.484 19.9397 30.6155 20.0323C30.747 20.1248 30.8587 20.2427 30.9442 20.379C31.1126 20.6444 31.1716 20.9648 31.109 21.2728C31.0463 21.5809 30.8667 21.8526 30.6079 22.0311L15.3744 32.5768C15.2418 32.6693 15.0918 32.7343 14.9336 32.7678C14.7753 32.8014 14.6119 32.8028 14.4531 32.7721C14.2941 32.7424 14.1427 32.6811 14.0078 32.5917C13.8729 32.5024 13.7575 32.3869 13.6681 32.2521Z" fill="#1C1C1C"/>
<path d="M55.8859 39.1253C55.8859 34.6232 49.4851 25.8284 47.4618 23.1604V14.99C47.4618 12.9413 46.1001 11.2242 44.2411 10.6433V6.928C44.2411 4.83791 42.5401 3.13745 40.4507 3.13745H34.2807C32.191 3.13745 30.4899 4.83775 30.4899 6.928V10.4156H29.8845C28.9728 10.4142 28.0818 10.6867 27.3267 11.1977L7.84954 24.333C6.75244 25.0719 5.85384 26.0691 5.23286 27.237C4.61189 28.4049 4.28759 29.7075 4.28852 31.0302V53.0308C4.28852 56.8738 7.41456 59.9998 11.2575 59.9998H40.4928C44.3358 59.9998 47.4624 56.8738 47.4624 53.0308V48.8064C52.214 48.14 55.8859 44.0584 55.8859 39.1253ZM32.5965 6.928C32.5965 5.99941 33.3521 5.24328 34.2807 5.24328H40.4507C41.3792 5.24328 42.1348 5.99957 42.1348 6.928V10.4156H32.5965V6.928ZM40.4928 57.8939H11.2569C8.57498 57.8939 6.39388 55.7121 6.39388 53.0308V31.0302C6.39327 30.0522 6.63316 29.089 7.09243 28.2255C7.55169 27.362 8.21624 26.6247 9.02755 26.0785L28.5052 12.9425C28.9125 12.6672 29.3929 12.5203 29.8845 12.5208H42.8878C44.2478 12.5208 45.3558 13.6288 45.3558 14.9894V22.3988C45.3295 22.4254 45.2926 22.4362 45.2691 22.4658C44.3521 23.6401 36.3123 34.0852 36.3123 39.1253C36.3123 44.2711 40.3066 48.4925 45.356 48.875V53.0314C45.356 55.7121 43.1747 57.8939 40.4928 57.8939ZM46.0995 46.8065C41.8648 46.8065 38.4189 43.3605 38.4189 39.1253C38.4189 35.8404 43.3754 28.5086 46.0995 24.8517C48.8248 28.5079 53.7801 35.8379 53.7801 39.1253C53.7801 43.3605 50.3335 46.8065 46.0995 46.8065ZM13.4556 15.216C15.5668 15.216 17.2853 13.4981 17.2853 11.3861C17.2853 9.62738 14.989 6.54962 14.2852 5.64819C13.8864 5.13731 13.0248 5.13731 12.6259 5.64819C11.9221 6.54962 9.62573 9.62738 9.62573 11.3863C9.62651 13.498 11.3442 15.216 13.4556 15.216ZM13.4556 8.07701C14.3865 9.42362 15.1795 10.844 15.1795 11.3861C15.1795 12.3363 14.4058 13.11 13.4556 13.11C12.5061 13.11 11.7323 12.3365 11.7323 11.3861C11.7323 10.8452 12.5247 9.42439 13.4556 8.07701ZM7.80805 6.12127C7.80805 4.36235 5.51172 1.2846 4.80788 0.383158C4.40899 -0.127719 3.54734 -0.127719 3.14861 0.383158C2.44476 1.2846 0.148438 4.36235 0.148438 6.12127C0.148438 8.23311 1.86679 9.951 3.97817 9.951C6.08954 9.951 7.80805 8.23311 7.80805 6.12127ZM3.97878 7.84502C3.0286 7.84502 2.25503 7.07145 2.25503 6.12127C2.25503 5.58016 3.04788 4.15921 3.97878 2.81152C4.90922 4.15874 5.70207 5.57893 5.70207 6.12127C5.70207 7.07207 4.92896 7.84502 3.97878 7.84502Z" fill="#1C1C1C"/>
<path d="M50.6213 37.3594C50.483 37.3594 50.346 37.3866 50.2182 37.4395C50.0904 37.4924 49.9743 37.57 49.8764 37.6678C49.7786 37.7656 49.701 37.8817 49.6481 38.0095C49.5952 38.1373 49.5679 38.2743 49.5679 38.4126C49.5679 40.4444 47.9145 42.0984 45.8822 42.0984C45.3001 42.0984 44.8295 42.5695 44.8295 43.151C44.8295 43.7325 45.3001 44.2042 45.8822 44.2042C49.0757 44.2042 51.6737 41.606 51.6737 38.4126C51.6737 37.8311 51.2033 37.3594 50.6211 37.3594H50.6213ZM36.932 50.5226H14.8182C14.2361 50.5226 13.7656 50.9937 13.7656 51.5751C13.7656 52.1565 14.2361 52.6283 14.8182 52.6283H36.932C37.5142 52.6283 37.9846 52.1566 37.9846 51.5751C37.9846 50.9936 37.5142 50.5225 36.932 50.5225V50.5226Z" fill="#1C1C1C"/>
</svg>
