<svg width="24" height="24" viewBox="0 0 24 24" fill="none" xmlns="http://www.w3.org/2000/svg">
<rect width="24" height="24" fill="#4518CC"/>
<path d="M18.6555 11.3996L15.8367 13.8596L16.6811 17.5221C16.7258 17.7136 16.713 17.914 16.6445 18.0982C16.5759 18.2825 16.4545 18.4424 16.2955 18.5581C16.1365 18.6737 15.9469 18.7399 15.7505 18.7484C15.5541 18.7569 15.3595 18.7073 15.1911 18.6058L11.9967 16.6684L8.80923 18.6058C8.64084 18.7073 8.44627 18.7569 8.24984 18.7484C8.05342 18.7399 7.86385 18.6737 7.70485 18.5581C7.54586 18.4424 7.42447 18.2825 7.35589 18.0982C7.2873 17.914 7.27455 17.7136 7.31923 17.5221L8.16236 13.8634L5.34298 11.3996C5.19386 11.271 5.08603 11.1012 5.03302 10.9116C4.98 10.7219 4.98416 10.5208 5.04497 10.3335C5.10577 10.1462 5.22052 9.98107 5.37483 9.85874C5.52914 9.7364 5.71613 9.66234 5.91236 9.64585L9.62861 9.32398L11.0792 5.86398C11.155 5.68242 11.2828 5.52734 11.4465 5.41826C11.6102 5.30918 11.8025 5.25098 11.9992 5.25098C12.196 5.25098 12.3883 5.30918 12.552 5.41826C12.7157 5.52734 12.8435 5.68242 12.9192 5.86398L14.3742 9.32398L18.0892 9.64585C18.2855 9.66234 18.4725 9.7364 18.6268 9.85874C18.7811 9.98107 18.8958 10.1462 18.9566 10.3335C19.0174 10.5208 19.0216 10.7219 18.9686 10.9116C18.9156 11.1012 18.8077 11.271 18.6586 11.3996H18.6555Z" fill="white"/>
</svg>
