<svg width="24" height="24" viewBox="0 0 24 24" fill="none" xmlns="http://www.w3.org/2000/svg">
<rect width="24" height="24" fill="#2AB47C"/>
<path d="M18.6594 11.3986L15.8406 13.8586L16.685 17.5211C16.7297 17.7126 16.7169 17.913 16.6484 18.0972C16.5798 18.2815 16.4584 18.4414 16.2994 18.5571C16.1404 18.6727 15.9508 18.739 15.7544 18.7474C15.558 18.7559 15.3634 18.7064 15.195 18.6049L12.0006 16.6674L8.81314 18.6049C8.64475 18.7064 8.45017 18.7559 8.25375 18.7474C8.05732 18.739 7.86776 18.6727 7.70876 18.5571C7.54976 18.4414 7.42838 18.2815 7.35979 18.0972C7.29121 17.913 7.27846 17.7126 7.32314 17.5211L8.16626 13.8624L5.34689 11.3986C5.19777 11.27 5.08994 11.1002 5.03692 10.9106C4.98391 10.7209 4.98806 10.5199 5.04887 10.3326C5.10968 10.1453 5.22443 9.9801 5.37874 9.85776C5.53304 9.73542 5.72004 9.66136 5.91626 9.64488L9.63251 9.323L11.0831 5.863C11.1589 5.68145 11.2867 5.52637 11.4504 5.41729C11.6141 5.30821 11.8064 5.25 12.0031 5.25C12.1999 5.25 12.3922 5.30821 12.5559 5.41729C12.7196 5.52637 12.8474 5.68145 12.9231 5.863L14.3781 9.323L18.0931 9.64488C18.2894 9.66136 18.4764 9.73542 18.6307 9.85776C18.785 9.9801 18.8997 10.1453 18.9605 10.3326C19.0213 10.5199 19.0255 10.7209 18.9725 10.9106C18.9195 11.1002 18.8116 11.27 18.6625 11.3986H18.6594Z" fill="white"/>
</svg>
