<svg width="20" height="20" viewBox="0 0 20 20" fill="none" xmlns="http://www.w3.org/2000/svg">
<path d="M18.3068 8.97274L14.7912 12.0063L15.8623 16.5431C15.9214 16.7893 15.9061 17.0476 15.8185 17.2852C15.7309 17.5229 15.5748 17.7292 15.37 17.8782C15.1652 18.0272 14.9208 18.1121 14.6678 18.1222C14.4147 18.1324 14.1643 18.0673 13.9482 17.9352L10.0029 15.5071L6.05522 17.9352C5.83915 18.0666 5.58906 18.131 5.33643 18.1205C5.0838 18.11 4.83993 18.0249 4.63554 17.8761C4.43115 17.7272 4.27536 17.5212 4.18781 17.284C4.10025 17.0468 4.08484 16.789 4.14351 16.5431L5.21851 12.0063L1.70288 8.97274C1.51171 8.80752 1.37345 8.58963 1.30537 8.34629C1.23729 8.10296 1.2424 7.84496 1.32008 7.60452C1.39776 7.36407 1.54455 7.15184 1.74212 6.99432C1.9397 6.83681 2.1793 6.74099 2.43101 6.71884L7.04038 6.34696L8.81851 2.04384C8.91475 1.80932 9.07856 1.60872 9.28911 1.46754C9.49965 1.32636 9.74743 1.25098 10.0009 1.25098C10.2544 1.25098 10.5022 1.32636 10.7127 1.46754C10.9233 1.60872 11.0871 1.80932 11.1833 2.04384L12.9607 6.34696L17.5701 6.71884C17.8223 6.74017 18.0626 6.83545 18.2609 6.99275C18.4592 7.15005 18.6066 7.36236 18.6848 7.6031C18.7629 7.84383 18.7683 8.10228 18.7003 8.34606C18.6322 8.58984 18.4937 8.80811 18.3021 8.97352L18.3068 8.97274Z" fill="#1C1C1C"/>
</svg>
