<svg width="40" height="40" viewBox="0 0 40 40" fill="none" xmlns="http://www.w3.org/2000/svg">
<path fill-rule="evenodd" clip-rule="evenodd" d="M11.1114 23.5549L4.66901 18.2217C3.45305 17.2493 3.98637 15.2938 5.52942 15.0734L14.6669 14.6663L18.5689 4.88352C18.8409 4.34132 19.3938 4 20 4C20.6062 4 21.1591 4.3431 21.4311 4.88352L25.3331 14.6663L34.4706 15.0734C36.0136 15.2938 36.5469 17.2493 35.331 18.2217L28.8886 23.5549L30.6467 33.9669C30.8494 35.3873 29.3739 36.4504 28.0921 35.8086L20 30.6657L11.9079 35.8069C10.6243 36.4486 9.15062 35.3856 9.35328 33.9652L11.1114 23.5549Z" fill="#E7E7E7"/>
</svg>
