<svg width="20" height="20" viewBox="0 0 20 20" fill="none" xmlns="http://www.w3.org/2000/svg">
<path fill-rule="evenodd" clip-rule="evenodd" d="M5.55572 11.7774L2.3345 9.11086C1.72653 8.62465 1.99318 7.64691 2.76471 7.53669L7.33343 7.33314L9.28447 2.44176C9.42047 2.17066 9.6969 2 10 2C10.3031 2 10.5795 2.17155 10.7155 2.44176L12.6666 7.33314L17.2353 7.53669C18.0068 7.64691 18.2735 8.62465 17.6655 9.11086L14.4443 11.7774L15.3234 16.9835C15.4247 17.6937 14.6869 18.2252 14.0461 17.9043L10 15.3329L5.95393 17.9034C5.31217 18.2243 4.57531 17.6928 4.67664 16.9826L5.55572 11.7774Z" fill="#E7E7E7"/>
</svg>
