<svg width="20" height="20" viewBox="0 0 20 20" fill="none" xmlns="http://www.w3.org/2000/svg">
<path d="M18.6854 7.59833C18.6072 7.35812 18.4598 7.1464 18.2615 6.98986C18.0633 6.83331 17.8231 6.73895 17.5713 6.71864L12.9619 6.34677L11.1823 2.04286C11.086 1.80834 10.9222 1.60774 10.7117 1.46656C10.5011 1.32538 10.2533 1.25 9.99983 1.25C9.74633 1.25 9.49856 1.32538 9.28801 1.46656C9.07747 1.60774 8.91366 1.80834 8.81741 2.04286L7.03929 6.34599L2.42757 6.71864C2.17536 6.73997 1.93506 6.83526 1.73677 6.99255C1.53847 7.14985 1.39101 7.36217 1.31285 7.6029C1.23469 7.84364 1.22931 8.10209 1.29738 8.34587C1.36546 8.58965 1.50396 8.80792 1.69554 8.97333L5.21116 12.0069L4.14007 16.5429C4.08016 16.7893 4.09483 17.048 4.18221 17.286C4.26958 17.5241 4.42573 17.7309 4.63082 17.88C4.83591 18.0292 5.0807 18.1141 5.33411 18.1239C5.58752 18.1337 5.83814 18.0679 6.05413 17.9351L9.99944 15.5069L13.9471 17.9351C14.1632 18.0664 14.4133 18.1308 14.6659 18.1203C14.9185 18.1098 15.1624 18.0247 15.3668 17.8759C15.5712 17.727 15.727 17.521 15.8145 17.2838C15.9021 17.0466 15.9175 16.7888 15.8588 16.5429L14.7838 12.0061L18.2994 8.97255C18.4926 8.80741 18.6323 8.58867 18.701 8.34403C18.7697 8.09939 18.7643 7.83987 18.6854 7.59833ZM17.4869 8.02567L13.6823 11.3069C13.5955 11.3817 13.5309 11.4789 13.4957 11.5879C13.4604 11.6969 13.4558 11.8135 13.4823 11.9249L14.6448 16.8311C14.6478 16.8379 14.6481 16.8456 14.6456 16.8525C14.6431 16.8595 14.6381 16.8653 14.6315 16.8686C14.6174 16.8796 14.6135 16.8772 14.6018 16.8686L10.3268 14.2397C10.2283 14.1792 10.115 14.1472 9.99944 14.1472C9.88387 14.1472 9.77055 14.1792 9.6721 14.2397L5.3971 16.8702C5.38538 16.8772 5.38225 16.8796 5.36741 16.8702C5.36082 16.8668 5.35576 16.8611 5.35329 16.8541C5.35082 16.8471 5.35112 16.8395 5.35413 16.8327L6.51663 11.9265C6.54312 11.815 6.53848 11.6984 6.50321 11.5895C6.46794 11.4805 6.4034 11.3833 6.31663 11.3085L2.51194 8.02724C2.50257 8.01942 2.49397 8.01239 2.50179 7.98817C2.5096 7.96396 2.51585 7.96708 2.52757 7.96552L7.52132 7.56239C7.63586 7.55257 7.74547 7.51134 7.83809 7.44325C7.93072 7.37516 8.00277 7.28285 8.04632 7.17646L9.96976 2.51942C9.976 2.50614 9.97835 2.49989 9.9971 2.49989C10.0158 2.49989 10.0182 2.50614 10.0244 2.51942L11.9526 7.17646C11.9965 7.28289 12.069 7.3751 12.1621 7.44293C12.2551 7.51076 12.3651 7.55156 12.4799 7.56083L17.4737 7.96396C17.4854 7.96396 17.4924 7.96396 17.4994 7.98661C17.5065 8.00927 17.4994 8.01786 17.4869 8.02567Z" fill="#1C1C1C"/>
</svg>
