<svg width="20" height="20" viewBox="0 0 20 20" fill="none" xmlns="http://www.w3.org/2000/svg">
<path d="M18.3164 8.93578L14.793 12.0108L15.8485 16.5889C15.9043 16.8282 15.8884 17.0787 15.8026 17.309C15.7169 17.5394 15.5652 17.7393 15.3664 17.8839C15.1677 18.0284 14.9307 18.1112 14.6852 18.1218C14.4397 18.1324 14.1964 18.0704 13.986 17.9436L9.99299 15.5217L6.00861 17.9436C5.79812 18.0704 5.5549 18.1324 5.30937 18.1218C5.06384 18.1112 4.82689 18.0284 4.62814 17.8839C4.42939 17.7393 4.27766 17.5394 4.19193 17.309C4.1062 17.0787 4.09026 16.8282 4.14611 16.5889L5.20002 12.0155L1.6758 8.93578C1.4894 8.77502 1.35461 8.5628 1.28834 8.32574C1.22207 8.08868 1.22727 7.83733 1.30328 7.60321C1.37929 7.36909 1.52273 7.16262 1.71561 7.0097C1.90849 6.85678 2.14223 6.76421 2.38752 6.7436L7.03283 6.34125L8.84611 2.01625C8.9408 1.78931 9.10053 1.59546 9.30516 1.45911C9.5098 1.32276 9.75021 1.25 9.99611 1.25C10.242 1.25 10.4824 1.32276 10.6871 1.45911C10.8917 1.59546 11.0514 1.78931 11.1461 2.01625L12.9649 6.34125L17.6086 6.7436C17.8539 6.76421 18.0876 6.85678 18.2805 7.0097C18.4734 7.16262 18.6168 7.36909 18.6929 7.60321C18.7689 7.83733 18.7741 8.08868 18.7078 8.32574C18.6415 8.5628 18.5067 8.77502 18.3203 8.93578H18.3164Z" fill="#98BC2A"/>
</svg>
