<svg width="28" height="28" viewBox="0 0 28 28" fill="none" xmlns="http://www.w3.org/2000/svg">
<path d="M14.6063 19.3182V14.9157H22.315C22.4758 14.9157 22.63 14.8519 22.7437 14.7382C22.8574 14.6245 22.9213 14.4702 22.9213 14.3094V9.30073C23.5635 9.15186 24.1285 8.7719 24.5087 8.23325C24.8888 7.6946 25.0575 7.03492 24.9826 6.37991C24.9077 5.7249 24.5944 5.12035 24.1024 4.68145C23.6105 4.24256 22.9742 4 22.315 4C21.6557 4 21.0194 4.24256 20.5275 4.68145C20.0355 5.12035 19.7222 5.7249 19.6473 6.37991C19.5724 7.03492 19.7411 7.6946 20.1212 8.23325C20.5014 8.7719 21.0664 9.15186 21.7087 9.30073V13.7031H14.6063V9.30073C15.2486 9.15186 15.8136 8.7719 16.1937 8.23325C16.5739 7.6946 16.7426 7.03492 16.6676 6.37991C16.5927 5.7249 16.2794 5.12035 15.7875 4.68145C15.2955 4.24256 14.6593 4 14 4C13.3407 4 12.7045 4.24256 12.2125 4.68145C11.7206 5.12035 11.4073 5.7249 11.3324 6.37991C11.2574 7.03492 11.4261 7.6946 11.8063 8.23325C12.1864 8.7719 12.7514 9.15186 13.3937 9.30073V13.7031H6.29134V9.30073C6.9336 9.15186 7.49863 8.7719 7.87878 8.23325C8.25892 7.6946 8.42761 7.03492 8.35269 6.37991C8.27777 5.7249 7.96448 5.12035 7.47252 4.68145C6.98056 4.24256 6.34433 4 5.68504 4C5.02576 4 4.38952 4.24256 3.89757 4.68145C3.40561 5.12035 3.09232 5.7249 3.0174 6.37991C2.94248 7.03492 3.11116 7.6946 3.49131 8.23325C3.87146 8.7719 4.43649 9.15186 5.07875 9.30073V19.3182C4.43649 19.467 3.87146 19.847 3.49131 20.3856C3.11116 20.9243 2.94248 21.584 3.0174 22.239C3.09232 22.894 3.40561 23.4986 3.89757 23.9374C4.38952 24.3763 5.02576 24.6189 5.68504 24.6189C6.34433 24.6189 6.98056 24.3763 7.47252 23.9374C7.96448 23.4986 8.27777 22.894 8.35269 22.239C8.42761 21.584 8.25892 20.9243 7.87878 20.3856C7.49863 19.847 6.9336 19.467 6.29134 19.3182V14.9157H13.3937V19.3182C12.7514 19.467 12.1864 19.847 11.8063 20.3856C11.4261 20.9243 11.2574 21.584 11.3324 22.239C11.4073 22.894 11.7206 23.4986 12.2125 23.9374C12.7045 24.3763 13.3407 24.6189 14 24.6189C14.6593 24.6189 15.2955 24.3763 15.7875 23.9374C16.2794 23.4986 16.5927 22.894 16.6676 22.239C16.7426 21.584 16.5739 20.9243 16.1937 20.3856C15.8136 19.847 15.2486 19.467 14.6063 19.3182ZM20.8425 6.68741C20.8425 6.39618 20.9289 6.1115 21.0907 5.86936C21.2525 5.62722 21.4824 5.43849 21.7515 5.32705C22.0205 5.2156 22.3166 5.18644 22.6022 5.24326C22.8878 5.30007 23.1502 5.44031 23.3561 5.64623C23.5621 5.85216 23.7023 6.11452 23.7591 6.40015C23.8159 6.68577 23.7868 6.98183 23.6753 7.25088C23.5639 7.51994 23.3751 7.7499 23.133 7.9117C22.8909 8.07349 22.6062 8.15985 22.315 8.15985C21.9246 8.15939 21.5503 8.00411 21.2743 7.72807C20.9983 7.45203 20.843 7.07778 20.8425 6.68741ZM12.5276 6.68741C12.5276 6.39618 12.6139 6.1115 12.7757 5.86936C12.9375 5.62722 13.1675 5.43849 13.4365 5.32705C13.7056 5.2156 14.0016 5.18644 14.2873 5.24326C14.5729 5.30007 14.8352 5.44031 15.0412 5.64623C15.2471 5.85216 15.3873 6.11452 15.4441 6.40015C15.501 6.68577 15.4718 6.98183 15.3604 7.25088C15.2489 7.51994 15.0602 7.7499 14.818 7.9117C14.5759 8.07349 14.2912 8.15985 14 8.15985C13.6096 8.15939 13.2354 8.00411 12.9593 7.72807C12.6833 7.45203 12.528 7.07778 12.5276 6.68741ZM4.2126 6.68741C4.2126 6.39618 4.29896 6.1115 4.46076 5.86936C4.62255 5.62722 4.85251 5.43849 5.12157 5.32705C5.39062 5.2156 5.68668 5.18644 5.9723 5.24326C6.25793 5.30007 6.52029 5.44031 6.72622 5.64623C6.93214 5.85216 7.07238 6.11452 7.12919 6.40015C7.18601 6.68577 7.15685 6.98183 7.0454 7.25088C6.93396 7.51994 6.74523 7.7499 6.50309 7.9117C6.26095 8.07349 5.97627 8.15985 5.68504 8.15985C5.29467 8.15939 4.92042 8.00411 4.64438 7.72807C4.36834 7.45203 4.21306 7.07778 4.2126 6.68741ZM7.15748 21.9315C7.15748 22.2227 7.07113 22.5074 6.90933 22.7495C6.74754 22.9917 6.51758 23.1804 6.24852 23.2918C5.97947 23.4033 5.68341 23.4325 5.39779 23.3756C5.11216 23.3188 4.8498 23.1786 4.64387 22.9727C4.43795 22.7667 4.29771 22.5044 4.2409 22.2188C4.18408 21.9331 4.21324 21.6371 4.32469 21.368C4.43613 21.099 4.62486 20.869 4.867 20.7072C5.10914 20.5454 5.39382 20.4591 5.68504 20.4591C6.07542 20.4595 6.44967 20.6148 6.72571 20.8908C7.00175 21.1669 7.15703 21.5411 7.15748 21.9315ZM14 23.4039C13.7088 23.4039 13.4241 23.3176 13.182 23.1558C12.9398 22.994 12.7511 22.764 12.6396 22.495C12.5282 22.2259 12.499 21.9299 12.5559 21.6442C12.6127 21.3586 12.7529 21.0962 12.9588 20.8903C13.1648 20.6844 13.4271 20.5442 13.7127 20.4873C13.9984 20.4305 14.2944 20.4597 14.5635 20.5711C14.8325 20.6826 15.0625 20.8713 15.2243 21.1134C15.3861 21.3556 15.4724 21.6403 15.4724 21.9315C15.472 22.3219 15.3167 22.6961 15.0407 22.9722C14.7646 23.2482 14.3904 23.4035 14 23.4039ZM22.315 19.2465C21.7839 19.2465 21.2648 19.4039 20.8232 19.699C20.3817 19.994 20.0375 20.4133 19.8343 20.904C19.6311 21.3946 19.5779 21.9345 19.6815 22.4553C19.7851 22.9762 20.0408 23.4546 20.4163 23.8301C20.7919 24.2056 21.2703 24.4613 21.7911 24.5649C22.312 24.6685 22.8519 24.6154 23.3425 24.4121C23.8331 24.2089 24.2524 23.8648 24.5475 23.4232C24.8425 22.9817 25 22.4625 25 21.9315C24.9992 21.2196 24.716 20.5372 24.2127 20.0338C23.7093 19.5304 23.0268 19.2473 22.315 19.2465ZM22.315 23.4039C22.0237 23.4039 21.7391 23.3176 21.4969 23.1558C21.2548 22.994 21.066 22.764 20.9546 22.495C20.8432 22.2259 20.814 21.9299 20.8708 21.6442C20.9276 21.3586 21.0679 21.0962 21.2738 20.8903C21.4797 20.6844 21.7421 20.5442 22.0277 20.4873C22.3133 20.4305 22.6094 20.4597 22.8784 20.5711C23.1475 20.6826 23.3775 20.8713 23.5392 21.1134C23.701 21.3556 23.7874 21.6403 23.7874 21.9315C23.7869 22.3219 23.6317 22.6961 23.3556 22.9722C23.0796 23.2482 22.7053 23.4035 22.315 23.4039Z" fill="#1C1C1C"/>
</svg>
