<svg width="28" height="28" viewBox="0 0 28 28" fill="none" xmlns="http://www.w3.org/2000/svg">
<path d="M22.75 3.71875H19.9062V2.625C19.9062 2.45095 19.8371 2.28403 19.714 2.16096C19.591 2.03789 19.424 1.96875 19.25 1.96875C19.076 1.96875 18.909 2.03789 18.786 2.16096C18.6629 2.28403 18.5938 2.45095 18.5938 2.625V3.71875H9.40625V2.625C9.40625 2.45095 9.33711 2.28403 9.21404 2.16096C9.09097 2.03789 8.92405 1.96875 8.75 1.96875C8.57595 1.96875 8.40903 2.03789 8.28596 2.16096C8.16289 2.28403 8.09375 2.45095 8.09375 2.625V3.71875H5.25C4.84389 3.71875 4.45441 3.88008 4.16724 4.16724C3.88008 4.45441 3.71875 4.84389 3.71875 5.25V22.75C3.71875 23.1561 3.88008 23.5456 4.16724 23.8328C4.45441 24.1199 4.84389 24.2812 5.25 24.2812H22.75C23.1561 24.2812 23.5456 24.1199 23.8328 23.8328C24.1199 23.5456 24.2812 23.1561 24.2812 22.75V5.25C24.2812 4.84389 24.1199 4.45441 23.8328 4.16724C23.5456 3.88008 23.1561 3.71875 22.75 3.71875ZM5.25 5.03125H8.09375V6.125C8.09375 6.29905 8.16289 6.46597 8.28596 6.58904C8.40903 6.71211 8.57595 6.78125 8.75 6.78125C8.92405 6.78125 9.09097 6.71211 9.21404 6.58904C9.33711 6.46597 9.40625 6.29905 9.40625 6.125V5.03125H18.5938V6.125C18.5938 6.29905 18.6629 6.46597 18.786 6.58904C18.909 6.71211 19.076 6.78125 19.25 6.78125C19.424 6.78125 19.591 6.71211 19.714 6.58904C19.8371 6.46597 19.9062 6.29905 19.9062 6.125V5.03125H22.75C22.808 5.03125 22.8637 5.0543 22.9047 5.09532C22.9457 5.13634 22.9688 5.19198 22.9688 5.25V8.96875H5.03125V5.25C5.03125 5.19198 5.0543 5.13634 5.09532 5.09532C5.13634 5.0543 5.19198 5.03125 5.25 5.03125ZM22.75 22.9688H5.25C5.19198 22.9688 5.13634 22.9457 5.09532 22.9047C5.0543 22.8637 5.03125 22.808 5.03125 22.75V10.2812H22.9688V22.75C22.9688 22.808 22.9457 22.8637 22.9047 22.9047C22.8637 22.9457 22.808 22.9688 22.75 22.9688ZM15.5312 16.625C15.5312 16.9279 15.4414 17.2239 15.2732 17.4757C15.1049 17.7275 14.8658 17.9238 14.586 18.0397C14.3062 18.1556 13.9983 18.1859 13.7013 18.1268C13.4042 18.0677 13.1314 17.9219 12.9172 17.7078C12.7031 17.4936 12.5573 17.2208 12.4982 16.9237C12.4391 16.6267 12.4694 16.3188 12.5853 16.039C12.7012 15.7592 12.8975 15.5201 13.1493 15.3518C13.4011 15.1836 13.6971 15.0938 14 15.0938C14.4061 15.0938 14.7956 15.2551 15.0828 15.5422C15.3699 15.8294 15.5312 16.2189 15.5312 16.625Z" fill="#1C1C1C"/>
</svg>
